<svg width="86" height="58" viewBox="0 0 86 58" fill="none" xmlns="http://www.w3.org/2000/svg">
<g opacity="0.7">
<path d="M39.5 39.8999C37.4 38.0999 35.5 35.5999 32.9 34.2999C31.3 33.4999 28.9 34.2999 26.9 34.4999C26.6 34.4999 26.3 35.4999 26.1 35.9999C24.4 40.4999 21.9 44.4999 17.1 45.7999C9.1 47.9999 0.500005 43.5999 4.5849e-06 33.8999C-0.399995 25.9999 7.8 19.8999 14.1 20.6999C17.5 21.0999 19.9 22.9999 22.2 25.2999C23.2 26.2999 24 27.5999 25 28.5999C25.7 29.1999 26.9 29.3999 28.1 29.4999C26.4 27.0999 25 24.4999 26.9 22.1999C29 19.6999 32 20.5999 34.8 21.6999C31.3 18.4999 28.9 14.5999 26.3 10.7999C25.1 9.09989 24.5 7.19989 24.5 5.19989C24.5 3.29989 24.9 2.69989 26.8 2.79989C30.9 2.89989 34.9 2.99989 39 3.19989C46 3.59989 53 3.99989 60 4.39989C60.5 4.39989 61 4.29989 61.4 3.99989C65.5 0.49989 70.2 0.0998916 75.4 0.399892C79.1 0.599892 81.7 2.19989 84 4.79989C86.3 7.39989 86.5 11.6999 84.2 14.2999C83.4 15.1999 82.2 15.7999 81 16.0999C79.9 16.3999 79.1 16.7999 78.9 17.8999C78.2 21.4999 77.5 25.1999 76.8 28.8999C76.6 30.1999 76.4 31.3999 76.3 32.6999C76.2 34.4999 75.9 36.1999 77.9 37.7999C81.1 40.3999 81.1 48.8999 75.8 51.7999C70.3 54.6999 64.5 55.6999 58.3 53.6999C57.8 53.5999 57.3 53.3999 56.9 53.4999C52.6 54.3999 48.4 55.7999 44 56.2999C38.9 56.9999 33.7 57.0999 28.5 57.1999C25.6 57.1999 25 55.5999 26.7 53.1999C29.1 49.9999 31.5 46.5999 34.2 43.5999C35.7 42.0999 37.8 41.0999 39.5 39.8999ZM66.9 6.29989C65.6 6.19989 64.5 6.1999 63.5 6.0999C62.1 5.8999 61 6.19989 60.1 7.29989C58.1 9.59989 56.1 11.8999 54.1 14.1999C51.8 16.7999 49.7 19.4999 47.2 21.7999C43.2 25.3999 38.6 25.0999 33.9 23.1999C32.9 22.7999 31.8 22.2999 30.7 22.2999C29.7 22.2999 28.4 22.5999 27.9 23.1999C27.1 24.2999 27.4 25.6999 28.4 26.6999C31 29.2999 33.5 31.9999 36.2 34.4999C39.7 37.6999 43.4 40.6999 47 43.9999C49.7 46.4999 52.3 49.0999 55.8 50.4999C56.8 50.8999 57.9 50.9999 58.7 51.5999C62 53.8999 65.5 52.7999 69.4 52.4999C68.4 51.6999 67.6 51.2999 67 50.6999C64.2 48.1999 61.9 45.2999 61.8 41.3999C61.4 33.2999 62 25.2999 64.2 17.3999C65 13.7999 65.9 10.0999 66.9 6.29989ZM2.7 28.4999C2.8 28.5999 3 28.6999 3.1 28.7999C8.2 26.3999 14.3 25.9999 16.5 27.9999C15.6 28.0999 14.9 28.1999 14.2 28.1999C12.1 28.2999 10 28.0999 8.10001 28.4999C6.20001 28.9999 4.3 29.9999 2.6 30.9999C2.1 31.2999 1.9 32.2999 1.4 33.2999C3.2 32.8999 4.3 32.4999 5.5 32.2999C6.6 32.0999 7.8 31.9999 9 32.0999C10.1 32.1999 11.4 31.9999 12.3 33.5999C11.5 33.6999 11.1 33.6999 10.6 33.6999C8.60001 33.7999 6.6 33.7999 4.6 33.9999C3.6 34.0999 2.8 34.6999 1.8 35.0999C2.3 36.0999 2.7 37.1999 3.4 38.0999C3.7 38.5999 4.5 38.8999 5.1 39.0999C8 40.1999 10.9 40.5999 13.9 39.4999C14.2 39.3999 14.6 39.3999 14.9 39.3999C15 39.4999 15 39.5999 15.1 39.7999C14.6 40.1999 14.2 40.6999 13.7 40.9999C10.8 42.5999 7.8 41.5999 4.5 40.8999C5.8 42.8999 7.70001 43.4999 9.60001 43.8999C13.7 44.8999 17.6 44.8999 20.7 41.3999C22.4 39.4999 22.4 38.9999 20.8 36.5999C20.5 36.6999 20.1 36.8999 19.8 36.9999C19.3 37.0999 18.8 36.9999 18.3 36.9999C18.3 36.4999 18.2 35.9999 18.3 35.5999C18.6 34.6999 19 33.8999 19.3 33.0999C19 32.8999 18.9 32.7999 18.7 32.7999C18 32.3999 17.3 31.9999 16.7 31.5999C17.3 30.8999 17.9 30.2999 18.6 29.5999C18.9 29.2999 19.6 29.0999 19.8 28.7999C20.7 27.2999 19.9 24.2999 18.4 23.2999C14.1 20.4999 8.8 21.3999 5 25.4999C4.1 26.5999 3.4 27.5999 2.7 28.4999ZM29 3.89989C28.9 4.09989 28.9 4.29989 28.8 4.39989C29.6 5.69989 30.2 7.19989 31.2 8.29989C34.7 12.0999 38.2 15.8999 42 19.3999C44.5 21.7999 46.1 21.3999 48.4 18.6999C51.9 14.4999 55.3 10.2999 58.8 6.0999C58.8 5.9999 58.8 5.89989 58.8 5.69989C48.8 5.19989 38.9 4.49989 29 3.89989ZM71.7 6.0999C71.2 10.6999 70.6 15.1999 70.3 19.5999C69.8 25.8999 69.5 32.1999 69.1 38.5999C69 39.6999 69.3 40.8999 69.5 41.9999C69.7 42.8999 70.1 43.9999 71.4 43.8999C72.8 43.7999 73.3 42.7999 73.4 41.5999C73.7 38.8999 74 36.1999 74.3 33.4999C74.9 27.7999 75 21.9999 77.2 16.4999C78.1 14.0999 78.7 11.5999 78.3 8.99989C78.1 7.49989 77.6 6.49989 75.9 6.49989C74.7 6.39989 73.3 6.1999 71.7 6.0999ZM70.9 6.29989C69.3 5.89989 68.4 6.19989 68.1 7.79989C67.8 9.59989 67.4 11.2999 66.9 12.9999C64.5 21.2999 63.4 29.6999 63.5 38.3999C63.5 41.9999 64.3 45.0999 66.6 47.7999C68.2 49.6999 70.2 51.4999 72.8 50.9999C75.1 50.5999 76.9 48.9999 77.5 46.4999C78.2 43.6999 78.2 40.8999 75.9 38.1999C75.7 39.1999 75.5 39.7999 75.4 40.3999C75.3 41.0999 75.2 41.7999 75 42.4999C74.5 44.3999 73 45.5999 71.2 45.6999C69.6 45.7999 68.4 44.8999 67.8 42.7999C67.4 41.1999 67.2 39.4999 67.2 37.8999C67.2 36.0999 67.6 34.2999 67.8 32.3999C68.9 23.7999 68.1 14.8999 70.9 6.29989ZM54.6 52.4999C51.6 49.9999 48.6 47.5999 45.6 44.9999C44.9 44.3999 44.3 44.3999 43.5 44.8999C39.6 47.3999 36.3 50.4999 33.7 54.2999C33.4 54.6999 32.8 54.7999 32.3 55.0999C32.3 54.5999 32.1 53.8999 32.3 53.4999C33 52.3999 33.7 51.1999 34.7 50.2999C37.4 47.7999 40.3 45.2999 43.2 42.7999C42.2 41.0999 41.4 40.6999 39.4 41.7999C38.2 42.3999 37 43.0999 36.1 43.9999C33.4 47.1999 30.9 50.4999 28.3 53.7999C28 54.1999 27.9 54.7999 27.8 55.2999C28.3 55.3999 28.8 55.6999 29.3 55.6999C34 55.3999 38.8 55.3999 43.4 54.7999C47.4 54.2999 51.1 53.1999 54.6 52.4999ZM80.5 14.0999C81.9 14.0999 82.7 13.5999 83.4 12.0999C85.2 8.2999 82.3 3.09989 77.7 2.09989C74.3 1.39989 70.9 1.29989 67.6 2.09989C66.2 2.39989 65 3.29989 63.6 3.89989C63.6 4.09989 63.7 4.19989 63.7 4.39989C64.2 4.39989 64.7 4.49989 65.1 4.49989C68.6 4.59989 72.1 4.59989 75.6 4.79989C78.6 4.99989 79.5 5.79989 79.9 8.79989C80.3 10.4999 80.4 12.2999 80.5 14.0999ZM42.7 22.7999C42.7 22.5999 42.7 22.3999 42.7 22.1999C41.1 20.6999 39.4 19.2999 37.9 17.6999C34.8 14.3999 31 11.6999 28.8 7.49989C28.3 6.59989 28 5.69989 27.4 4.89989C27.2 4.49989 26.6 4.39989 26.2 4.09989C26 4.49989 25.7 4.99989 25.7 5.29989C25.8 6.19989 25.9 7.19989 26.3 7.79989C29.8 13.0999 32.6 19.0999 38.9 21.6999C40.1 22.2999 41.4 22.4999 42.7 22.7999ZM31.1 32.2999C29.8 30.3999 28 30.5999 26.2 30.7999C25 30.8999 24.2 30.4999 23.6 29.3999C23.2 28.5999 22.4 27.8999 21.6 26.9999C21.1 28.8999 22.1 31.1999 19.2 31.4999C21.2 32.0999 21.3 33.2999 20.6 34.8999C23.5 33.9999 22 37.1999 23.6 37.6999C24.3 36.1999 24.7 34.1999 25.9 33.2999C27.2 32.3999 29.2 32.5999 31.1 32.2999Z" fill="white"/>
</g>
</svg>
