<svg width="75" height="63" viewBox="0 0 75 63" fill="none" xmlns="http://www.w3.org/2000/svg">
<path opacity="0.7" d="M16.2 55.9999C15.6 56.2999 15.1001 56.4999 14.5001 56.7999C15.6001 57.6999 15.5001 58.7999 15.5001 59.8999C15.4001 62.3999 12.1001 63.5999 9.90008 61.8999C8.00008 60.3999 6.70008 58.6999 7.40008 56.0999C7.40008 55.9999 7.4001 55.8999 7.3001 55.6999C6.5001 55.6999 5.70008 55.6999 4.90008 55.6999C2.30008 55.4999 0.900103 54.2999 0.300103 51.7999C-0.0998971 50.1999 0.500054 48.6999 1.50005 47.4999C1.80005 47.0999 2.50005 46.8999 3.00005 46.8999C4.10005 46.8999 4.20001 46.4999 4.20001 45.5999C4.3 43.8999 4.3001 42.0999 4.8001 40.3999C5.7001 37.0999 7.50001 34.1999 10.2 31.8999C10.4 31.6999 10.6001 31.4999 10.8001 31.2999C10.9001 31.1999 10.9001 31.0999 10.9001 30.9999C10.9001 30.8999 10.8001 30.7999 10.8001 30.7999C7.8001 29.1999 7.60005 25.8999 10.5001 23.9999C13.1001 22.1999 15.3001 22.2999 18.4001 24.2999C18.7001 24.4999 19.0001 24.6999 19.3001 24.8999C19.4001 24.5999 19.5 24.2999 19.6 24.0999C20.2 21.9999 21.4001 20.3999 23.3001 19.1999C25.3001 17.8999 28.0001 18.3999 29.4001 20.2999C31.0001 22.3999 31.1001 23.0999 30.3001 25.6999C31.5001 26.1999 32.9 25.7999 33.7 24.6999C35.5 22.0999 35.8 19.1999 34.6 16.1999C34.5 15.9999 34 15.7999 33.7 15.7999C32.3 16.0999 31 16.2999 29.7 15.6999C28.3 15.0999 27.5001 13.9999 27.4001 12.3999C27.2001 10.6999 28.1001 9.49993 29.4001 8.59993C30.1001 8.09993 30.1001 7.79992 30.0001 6.99992C29.9001 6.09992 29.9001 5.09991 30.3001 4.39991C31.7001 1.49991 35.5001 0.0999267 38.4001 1.59993C40.7001 2.79993 42.1001 5.09992 38.5001 7.69992C40.1001 7.69992 41.5001 7.69992 42.8001 7.69992C42.9001 6.89992 42.8001 5.99992 43.0001 5.19992C43.4001 3.69992 44.6 2.79992 46.1 2.79992C46.5 2.79992 47.0001 2.79992 47.4001 2.79992C50.0001 2.89992 51.6001 4.09992 52.3001 6.49992C52.5001 7.19992 52.8001 7.19992 53.3001 7.29992C54.3001 7.49992 55.4001 7.59992 56.4001 7.99992C58.2001 8.69992 58.7 10.0999 58.1 12.1999C57.7 13.5999 56.2 14.4999 54.6 14.3999C54.5 14.3999 54.4 14.3999 54.2 14.3999C54.9 16.8999 56.6 18.4999 58.7 19.8999C58.8 19.6999 59 19.5999 59.1 19.3999C59.9 17.4999 61.2001 16.3999 63.3001 16.4999C65.4001 16.5999 66.3 18.0999 67.1 19.6999C67.9 21.3999 67.4001 23.0999 66.3001 24.7999C69.7001 25.5999 70.8 28.0999 70.2 30.9999C69.7 33.4999 67.3 33.3999 65.1 33.3999C65.7 35.1999 66.2001 36.8999 66.8001 38.6999C68.7001 36.8999 70.7 36.8999 72.7 37.9999C74.3 38.8999 74.8001 40.2999 74.5001 42.0999C73.8001 45.1999 71.4 45.7999 68.7 45.8999C68.7 46.5999 68.7001 47.0999 68.8001 47.6999C69.0001 49.4999 68.7001 51.1999 67.9001 52.7999C67.6001 53.2999 67.7 53.5999 68.1 53.9999C69.3 55.1999 69.5 58.1999 68.6 59.6999C67.8 60.9999 65.6001 61.6999 63.8001 61.1999C62.5001 60.7999 61.8001 59.8999 61.8001 58.4999C61.8001 57.5999 61.1001 57.4999 60.5001 57.2999C60.2001 57.1999 59.7001 57.4999 59.5001 57.7999C57.6001 60.1999 54.5 60.9999 52.1 59.5999C50.7 58.7999 50.0001 57.4999 49.8001 55.7999C49.8001 55.2999 50.1 54.5999 49.1 54.5999C47.9 54.5999 47.7 54.7999 47.7 55.8999C47.7 57.2999 47.4001 58.4999 46.3001 59.3999C44.1001 61.1999 41.0001 60.3999 40.0001 57.6999C39.7001 56.7999 39.6001 55.7999 39.3001 54.7999C39.2001 54.4999 38.9001 53.9999 38.5001 53.9999C37.8001 53.7999 37.1001 53.7999 36.4001 53.7999C35.8001 53.7999 35.5001 53.9999 35.5001 54.6999C35.5001 55.8999 34.9 56.7999 34.2 57.7999C33 59.3999 31.3 59.4999 29.6 59.0999C28.1 58.7999 27 56.9999 27.1 55.2999C27.2 53.9999 27.2001 53.9999 25.8001 53.9999C24.1001 54.0999 24.2 53.7999 24.1 55.6999C24 57.9999 22.8001 59.1999 20.5001 59.0999C18.8001 59.0999 17.4001 58.4999 16.8001 56.6999C16.5001 56.6999 16.4 56.3999 16.2 55.9999ZM66.3001 30.1999C65.8001 29.9999 65.4001 29.7999 65.0001 29.6999C64.6001 29.5999 63.9 29.3999 63.7 29.5999C63.4 29.7999 63.3001 30.4999 63.4001 30.8999C63.6001 31.3999 64.0001 31.9999 64.5001 32.1999C65.6001 32.6999 66.7001 32.5999 67.8001 31.9999C68.2001 31.7999 68.5 31.2999 68.6 30.8999C69.1 28.4999 67.3001 26.2999 64.8001 26.3999C64.4001 26.3999 64 26.5999 63.6 26.5999C63.3 26.5999 62.8 26.5999 62.7 26.3999C62.6 26.1999 62.6001 25.6999 62.8001 25.4999C63.1001 25.0999 63.6001 24.6999 64.0001 24.4999C65.2001 23.9999 65.7 23.1999 65.7 21.8999C65.7 20.6999 65.2001 19.7999 64.5001 18.9999C63.5001 17.8999 62.1001 17.6999 61.0001 18.6999C60.6001 19.0999 60.4 19.7999 60.1 20.2999C60.6 20.2999 61.2 20.2999 61.7 20.2999C62 20.2999 62.3 20.3999 62.7 20.4999C62.5 20.7999 62.5 21.2999 62.2 21.4999C61.3 22.0999 60.2001 22.0999 59.3001 21.5999C58.5001 21.0999 57.6001 20.6999 56.9001 20.0999C55.9001 19.2999 54.9 18.5999 54.1 17.6999C53.4 16.8999 53 15.8999 52.6 14.8999C52.3 14.2999 52.0001 13.5999 51.9001 12.8999C51.7001 11.7999 52.4001 10.7999 53.3001 10.7999C53.6001 10.7999 54.0001 11.0999 54.3001 11.1999C54.1001 11.3999 53.9 11.5999 53.7 11.7999C53.5 12.0999 53.2 12.3999 53.1 12.6999C53.1 12.8999 53.5001 13.2999 53.8001 13.3999C54.9001 13.7999 56.0001 13.2999 56.4001 12.2999C57.0001 10.7999 56.7001 9.79992 55.3001 9.19992C54.7001 8.89992 54.0001 8.79992 53.3001 8.69992C52.5001 8.59992 51.8001 8.79993 51.3001 9.59993C51.0001 10.0999 50.6 10.4999 50.2 10.8999C50 11.0999 49.6001 11.1999 49.5001 11.0999C49.3001 10.8999 49.1 10.4999 49.2 10.2999C49.5 9.59992 49.8001 8.89991 50.3001 8.39991C50.9001 7.79991 51 7.19992 50.6 6.49992C49.8 4.69992 46.9001 3.49992 45.0001 4.19992C44.1001 4.49992 43.2001 5.79992 43.4001 6.69992C43.6001 7.69992 44.4001 7.69992 45.3001 7.69992C45.9001 7.69992 46.8001 7.39992 46.9001 8.29992C46.9001 9.19992 45.9001 9.09993 45.3001 9.09993C43.3001 9.09993 41.3001 9.19992 39.3001 8.99992C38.0001 8.89992 36.8 8.39991 35.6 7.89991C35.2 7.69991 35.0001 6.69993 34.9001 6.09993C34.8001 5.69993 35.2001 5.29992 35.4001 4.79992C35.5001 4.79992 35.7001 4.89991 35.8001 4.89991C35.8001 5.39991 35.8001 5.79992 35.8001 6.29992C35.8001 7.09992 36.4001 7.29992 37.0001 7.19992C37.8001 7.09992 38.9001 5.49993 38.9001 4.59993C38.8001 3.79993 37.8 2.79993 36.7 2.59993C34.7 2.19993 33 2.59992 31.6 4.19992C30.3 5.59992 30.4001 7.19991 31.9001 8.39991C32.3001 8.79991 32.8001 9.19992 32.3001 9.69992C32.1001 9.89992 31.3001 9.89992 31.0001 9.69992C30.4001 9.29992 30.0001 9.49992 29.5001 9.89991C28.5001 10.7999 28.2 12.1999 28.6 13.4999C28.9 14.3999 30.2001 14.9999 31.5001 14.8999C32.2001 14.7999 33.2 14.8999 33.2 13.8999C33.2 12.8999 32.3 12.9999 31.6 12.8999C31.3 12.8999 31.1001 12.6999 30.8001 12.5999C31.0001 12.2999 31.1001 11.9999 31.3001 11.7999C32.7001 11.0999 34.5 12.0999 34.6 13.6999C34.6 14.0999 34.6001 14.4999 34.8001 14.7999C36.6001 17.4999 36.5001 20.3999 35.5001 23.1999C35.0001 24.8999 34 26.3999 32.1 26.8999C29.6 27.5999 27.3001 27.0999 25.0001 26.2999C23.5001 25.7999 23.2001 24.0999 24.5001 22.9999C24.7001 22.7999 25.1001 22.7999 25.5001 22.6999C25.4001 22.9999 25.4001 23.2999 25.3001 23.5999C24.7001 24.6999 25.0001 25.2999 26.3001 25.4999C26.5001 25.4999 26.8001 25.4999 27.0001 25.4999C28.6001 25.5999 29.5001 24.3999 29.0001 22.8999C28.3001 20.8999 26.9001 19.7999 24.8001 20.0999C23.9001 20.1999 22.8 20.7999 22.2 21.5999C20.8 23.1999 19.6 24.8999 20.7 27.1999C20.8 27.2999 20.8 27.5999 20.7 27.6999C20.6 27.7999 20.3 27.8999 20.2 27.7999C19.7 27.4999 19.1 27.1999 18.7 26.6999C16.7 24.5999 13.4 23.0999 10.7 25.2999C9.60001 26.1999 9.10003 27.5999 9.60003 28.4999C10.1 29.5999 11.2 29.9999 12.7 29.6999C13.1 29.5999 13.6 29.1999 13.7 28.8999C13.8 28.4999 13.4 27.9999 13.2 27.5999C13.1 27.3999 12.9 27.0999 12.7 26.8999C13 26.7999 13.3 26.4999 13.6 26.4999C14.4 26.4999 14.9 27.0999 15.1 27.7999C15.5 29.2999 14.7 30.5999 13.2 31.0999C12.8 31.1999 12.4 31.1999 12.1 31.4999C9.20003 33.6999 7.20008 36.6999 5.90008 40.0999C5.30008 41.7999 5.10001 43.5999 5.20001 45.3999C5.3 46.6999 4.80005 48.0999 5.50005 49.4999C6.00005 50.3999 5.20001 51.1999 4.20001 51.1999C4.3 50.8999 4.50003 50.5999 4.60003 50.3999C4.90003 49.4999 4.40001 48.6999 3.70001 48.2999C3.30001 48.0999 2.30005 48.1999 2.00005 48.4999C1.20005 49.3999 0.900103 50.4999 1.3001 51.7999C1.8001 53.5999 3.0001 54.4999 4.8001 54.5999C6.2001 54.5999 7.60003 54.2999 9.10003 54.1999C9.00003 54.4999 9.0001 54.9999 8.8001 55.2999C7.6001 57.6999 8.80001 59.9999 10.7 61.0999C11.4 61.4999 12.6001 61.3999 13.4001 61.1999C13.8001 61.0999 14 59.9999 14.1 59.3999C14.2 59.0999 13.9 58.3999 13.6 58.3999C13.2 58.2999 12.6 58.3999 12.2 58.4999C12 58.5999 11.9 58.9999 11.7 59.0999C11.4 59.2999 11 59.2999 10.6 59.3999C10.6 58.9999 10.4 58.5999 10.6 58.2999C11 57.2999 12.0001 56.6999 13.0001 56.2999C13.8001 55.9999 14.6001 55.5999 15.4001 55.2999C15.4001 55.0999 15.3001 54.9999 15.3001 54.7999C14.5001 54.7999 13.7001 54.6999 12.9001 54.6999C10.4001 54.7999 8.10008 52.6999 7.40008 50.8999C5.80008 46.6999 8.3001 41.2999 13.3001 40.7999C17.6001 40.2999 21.9001 40.1999 26.3001 39.9999C28.4001 39.8999 30.5 39.9999 32.6 39.8999C41.2 39.5999 49.7001 39.8999 58.3001 40.4999C59.5001 40.5999 59.6001 40.4999 59.5001 39.2999C59.2001 34.7999 58.6 30.4999 56.1 26.4999C53.1 21.3999 50 16.6999 44.6 13.7999C43.1 12.9999 41.5001 12.5999 39.8001 12.7999C38.1001 12.9999 37.7 13.8999 38.1 15.4999C38.4 16.6999 38.9001 17.8999 38.9001 19.1999C38.9001 21.0999 38.7001 22.9999 38.4001 24.8999C38.3001 25.7999 37.9001 26.7999 37.4001 27.4999C36.0001 29.3999 34.2001 30.9999 32.0001 31.9999C29.7001 32.9999 27.2001 33.0999 24.8001 33.3999C22.8001 33.5999 20.7 33.5999 18.7 34.0999C15.6 34.7999 12.9 36.1999 11.6 39.3999C11.4 39.8999 11.1001 40.3999 10.8001 40.8999C10.7001 41.0999 10.4 41.1999 10.1 41.4999C10 41.0999 9.90005 40.8999 10.0001 40.6999C10.9001 38.7999 11.5001 36.6999 13.3001 35.3999C15.9001 33.5999 18.8001 32.5999 22.0001 32.2999C24.3001 32.0999 26.7001 31.8999 29.0001 31.5999C33.6001 30.7999 36.8 27.3999 37.2 22.6999C37.2 22.1999 37.3001 21.6999 37.3001 21.1999C37.4001 19.1999 37.1001 17.2999 36.5001 15.3999C36.0001 13.8999 36.5001 12.7999 37.8001 12.1999C39.2001 11.4999 40.7001 11.2999 42.3001 11.5999C43.8001 11.8999 45.1001 12.4999 46.4001 13.3999C48.0001 14.5999 49.8 15.6999 51.2 17.0999C53.7 19.5999 55.6001 22.5999 57.3001 25.7999C58.2001 27.4999 59.3 29.0999 59.7 30.8999C60.4 33.7999 60.6001 36.8999 61.0001 39.8999C61.1001 40.1999 61.3001 40.7999 61.5001 40.7999C63.9001 41.0999 65.3001 42.7999 66.9001 44.1999C67.6001 44.7999 68.2001 45.0999 69.0001 44.8999C69.6001 44.7999 70.3001 44.6999 70.9001 44.4999C72.3001 43.9999 73.2 42.1999 72.7 40.7999C72.2 39.4999 70.3001 38.5999 69.0001 38.9999C68.8001 39.0999 68.5001 39.2999 68.5001 39.3999C68.8001 40.2999 68.2001 40.4999 67.4001 40.6999C68.9001 41.6999 69.2001 39.7999 70.4001 39.7999C70.4001 40.0999 70.5001 40.4999 70.4001 40.6999C69.9001 41.2999 69.3 41.8999 68.6 42.1999C67.8 42.5999 67 42.1999 66.6 41.3999C66.1 40.4999 65.7 39.4999 65.2 38.5999C64.1 36.3999 64.1 33.8999 62.7 31.6999C62 30.5999 62.7 28.7999 63.6 28.3999C64.3 27.8999 65.8001 28.7999 66.3001 30.1999ZM26.3001 41.1999C26.3001 41.0999 26.3001 40.9999 26.3001 40.8999C22.2001 41.1999 18.1 41.4999 14.1 41.7999C11.1 42.0999 9.40008 43.5999 8.40008 46.4999C7.30008 49.6999 10.3001 53.9999 13.8001 53.3999C14.9001 53.1999 16.0001 53.2999 17.0001 53.2999C17.8001 53.2999 18.1001 52.6999 18.0001 51.9999C17.9001 51.1999 17.4001 50.6999 16.5001 50.6999C15.7001 50.6999 14.9001 50.6999 14.0001 50.5999C12.6001 50.3999 11.6001 49.4999 11.5001 48.3999C11.4001 47.2999 12.0001 46.4999 13.5001 45.9999C17.2001 44.5999 21.1001 44.2999 25.0001 44.1999C29.0001 44.1999 33.1 44.3999 37.1 44.2999C44.1 44.1999 51.2 43.8999 58.2 43.7999C59.2 43.7999 60.3 44.0999 61.2 44.4999C62.5 45.0999 62.9001 45.9999 62.8001 47.2999C62.7001 48.2999 61.8001 49.1999 60.5001 49.4999C59.8001 49.6999 59.0001 49.8999 58.4001 50.1999C57.2001 50.7999 56.8001 52.4999 57.9001 53.2999C58.8001 53.8999 59.9001 54.4999 61.0001 54.5999C64.5001 54.7999 66.4001 53.2999 67.0001 49.7999C67.3001 48.1999 67.4001 46.3999 66.3001 45.0999C64.7001 43.2999 63.0001 41.5999 60.3001 41.5999C59.3001 41.5999 58.4001 41.3999 57.4001 41.2999C50.4001 41.0999 43.5001 40.7999 36.5001 40.6999C33.1001 40.7999 29.7001 41.0999 26.3001 41.1999ZM17.2 54.9999C17.6 57.7999 18.9001 58.3999 21.0001 57.9999C22.3001 57.7999 22.5 57.3999 22.6 55.9999C22.6 55.4999 22.7 54.8999 22.6 54.3999C22.5 53.4999 23.0001 53.0999 23.9001 52.9999C24.7001 52.8999 25.5 52.7999 26.2 52.7999C26.8 52.6999 27.4001 52.6999 28.0001 52.6999C28.5001 52.6999 28.8 52.9999 28.6 53.5999C28.3 54.2999 28.1 54.9999 28.1 55.7999C28.1 56.9999 28.9001 57.9999 30.0001 58.1999C31.4001 58.3999 32.5001 58.0999 33.3001 56.8999C33.9001 55.9999 34.0001 55.0999 33.9001 54.0999C33.8001 53.3999 33.9 52.7999 34.7 52.7999C36.2 52.7999 37.7 52.8999 39.2 53.0999C40.1 53.1999 40.4001 53.8999 40.4001 54.7999C40.4001 55.5999 40.6001 56.3999 40.9001 57.1999C41.4001 58.7999 42.6001 59.4999 44.0001 59.0999C45.3001 58.7999 46.1001 57.5999 46.0001 56.0999C45.9001 53.7999 45.9 53.7999 48.2 53.3999C48.3 53.3999 48.3001 53.3999 48.4001 53.3999C50.3001 53.1999 50.7 53.4999 50.7 55.4999C50.7 56.9999 51.3 58.0999 52.7 58.7999C54.5 59.5999 57.3 58.5999 58.2 56.7999C58.6 55.9999 58.5 55.4999 57.7 54.9999C56.4 54.2999 55.9 53.0999 56.2 51.6999C56.4 50.6999 56 50.4999 55.1 50.5999C49.3 50.7999 43.4 51.0999 37.6 51.0999C33.2 51.0999 28.8001 50.6999 24.4001 50.4999C22.8001 50.3999 21.2 50.2999 19.6 50.1999C19.4 50.1999 19.2001 50.1999 18.9001 50.2999C19.8001 53.2999 19.6 53.7999 17.2 54.9999ZM42.1 49.7999C47.4 49.5999 52.3 49.4999 57.2 49.1999C58.3 49.0999 59.4001 48.6999 60.5001 48.1999C61.5001 47.7999 61.6 46.4999 60.6 45.8999C60 45.5999 59.2001 45.2999 58.5001 45.2999C55.9001 45.2999 53.2 45.3999 50.6 45.3999C43.5 45.4999 36.4001 45.4999 29.3001 45.5999C25.5001 45.6999 21.6001 45.8999 17.8001 46.2999C16.4001 46.3999 15 46.9999 13.6 47.4999C13.3 47.5999 12.9001 48.0999 13.0001 48.3999C13.0001 48.6999 13.4001 49.0999 13.8001 49.1999C14.3001 49.3999 14.9001 49.3999 15.5001 49.3999C16.9001 49.2999 18.2 49.0999 19.6 49.0999C21.6 49.0999 23.6001 49.1999 25.5001 49.2999C31.1001 49.3999 36.8 49.5999 42.1 49.7999ZM64.0001 55.8999C64.3001 56.1999 64.5 56.2999 64.7 56.4999C64.9 56.7999 65.2001 57.1999 65.4001 57.4999C65.0001 57.4999 64.6 57.4999 64.2 57.3999C63.4 57.0999 63 57.2999 62.7 58.0999C62.4 58.9999 62.7 59.5999 63.6 59.9999C64.7 60.4999 66.4001 60.0999 66.9001 59.1999C67.5001 58.2999 67.4 55.6999 66.7 54.9999C66.5 54.7999 66.1001 54.6999 65.9001 54.7999C65.3001 55.0999 64.7001 55.4999 64.0001 55.8999Z" fill="white"/>
</svg>
