<svg width="48" height="16" viewBox="0 0 48 16" fill="none" xmlns="http://www.w3.org/2000/svg">
<g opacity="0.7">
<path d="M34.3 6.30003C35.2 5.60003 36 4.80002 36.9 4.10002C37.2 3.80002 37.6 3.60007 38 3.40007C38 3.80007 38.1 4.30006 38 4.70006C37.8 5.80006 37.3 6.80007 35.9 7.40007C36.4 7.50007 36.6 7.60002 36.7 7.60002C38.1 7.10002 39.4 6.60002 40.8 6.10002C41 6.00002 41.3 6.00005 41.6 6.00005C41.6 6.30005 41.7 6.60007 41.5 6.90007C41 7.60007 40.5 8.20002 40.1 9.10002C41 8.70002 41.9 8.20003 42.8 7.80003C43.1 7.70003 43.5 7.70002 43.8 7.60002C43.7 7.90002 43.7 8.30002 43.5 8.60002C43.3 9.00002 42.9 9.30006 42.5 9.70006C42.8 9.70006 43 9.80003 43.1 9.80003C44.4 9.50003 45.6 9.70005 46.6 10.5C46.9 10.7 47.1 11.1 47.4 11.3C47.1 11.5 46.8 11.9 46.5 12C44.4 12.7 42.3 13.4 40.2 14C38.5 14.5 36.7 15.1 34.9 15.3C33.9 15.5 32.8 15.2 31.7 15C30.4 14.7 29.2 14.6 28 15C27 15.3 26 15.5001 25 15.7001C24.4 15.8001 23.8 15.9001 23.2 15.9001C20.9 15.5001 18.6 15.2001 16.3 14.2001C13.3 12.9001 10.9 10.7 7.99999 9.30003C7.19999 9.00003 6.59999 8.40003 5.89999 7.80003C4.99999 6.90003 3.89999 6.60005 2.69999 6.50005C2.49999 6.50005 2.39999 6.50005 2.19999 6.50005C1.59999 6.30005 0.999994 6.10005 0.399994 6.00005C0.699994 5.20005 0.699993 4.30003 1.19999 3.80003C2.29999 2.60003 3.49999 1.60006 4.69999 0.700058C5.69999 5.8502e-05 6.39999 0.200058 7.09999 1.20006C7.89999 2.50006 8.9 3.40002 10.3 4.10002C14 5.90002 17.9 6.00003 21.8 5.80003C24.2 5.70003 26.7 5.30002 29.1 5.10002C29.5 5.10002 30 5.00002 30.4 5.10002C31.7 5.50002 32.5 4.70003 33.1 3.80003C33.2 3.60003 33.3 3.40003 33.4 3.30003C33.6 3.10003 33.9 3.10007 34.1 2.90007C34.2 3.10007 34.4 3.40002 34.3 3.60002C34.1 4.40002 33.9 5.10007 33.7 5.90007C33.7 6.00007 33.6 6.20003 33.6 6.30003C34.2 6.10003 34.3 6.20003 34.3 6.30003ZM3.89999 3.00005C3.49999 3.30005 2.99999 3.70006 2.39999 4.20006C3.49999 4.80006 4.49999 5.40007 5.39999 5.90007C5.79999 6.10007 6.09999 6.30005 6.49999 6.50005C9.29999 8.30005 12.2 10.1 15 12C15.1 12.1 15.3 12.1001 15.4 12.2001C17.7 13.3001 20.1 14.4001 22.7 14.7001C23.4 14.8001 24 14.8001 24.5 14.2001C24.8 13.8001 25.3 13.6001 25.7 13.2001C27.6 11.6001 28.6 9.50002 28.9 7.10002C29 6.70002 29.1 6.10006 28.2 6.20006C26.1 6.40006 24 6.70006 21.9 6.70006C18.1 6.80006 14.2 7.00002 10.6 5.10002C9.69999 4.60002 8.89999 4.20006 7.99999 3.70006C7.79999 3.60006 7.5 3.60007 7.3 3.40007C6.8 3.10007 6.1 2.90005 5.8 2.50005C5.2 1.80005 4.8 1.90005 4.3 2.50005C4.2 2.60005 3.99999 2.80005 3.89999 3.00005ZM45.7 11.1C45.7 11 45.7 10.9 45.7 10.8C45.3 10.7 44.9 10.5 44.6 10.6C43 10.8 41.4 11.1001 39.8 11.4001C39.3 11.5001 37.1 10.2 37.1 9.80003V9.70006C37.2 9.10006 36.8 8.90006 36.2 8.70006C35.8 8.60006 35.4 8.20007 35.1 7.90007C34.9 7.70007 34.6 7.30007 34.4 7.40007C33.6 7.50007 33.1 7.30007 33 6.40007C33 6.30007 32.7 6.10002 32.5 6.10002C32 6.00002 31.4 6.00003 30.9 5.80003C30.2 5.60003 29.9 5.90002 29.9 6.60002C29.9 8.20002 29.5 9.70002 28.6 11.1C27.9 12.2 27 13.2001 26.2 14.4001C26.7 14.3001 27.2 14.2 27.7 14C29.1 13.6 30.5 13.3 31.9 13.8C33.3 14.3 34.7 14.4 36.2 14C39.1 13.2 42 12.4 44.9 11.5C45.2 11.4 45.5 11.2 45.7 11.1ZM39.7 7.70006C39.7 7.60006 39.6 7.60005 39.6 7.50005C39.1 7.60005 38.7 7.70003 38.2 7.80003C38.1 7.80003 38 8.10003 37.9 8.30003C38.1 8.40003 38.4 8.60005 38.5 8.50005C38.9 8.30005 39.3 8.00006 39.7 7.70006ZM36.8 5.60002C36.7 5.50002 36.6 5.40003 36.5 5.30003C36.1 5.60003 35.7 5.90006 35.3 6.20006C35.4 6.30006 35.5 6.40002 35.6 6.60002C36.1 6.30002 36.5 5.90002 36.8 5.60002Z" fill="white"/>
<path d="M3.89999 3.00009C4.79999 2.70009 5.29999 3.30009 5.69999 4.00009C5.79999 4.20009 5.79999 4.70008 5.69999 4.80008C5.49999 4.90008 4.99999 4.90008 4.89999 4.80008C4.49999 4.20008 4.19999 3.60009 3.89999 3.00009Z" fill="white"/>
<path d="M36.4 10.8999C36.6 11.7999 36.4 12.0999 35.4 12.2999C34.4 12.4999 33.5 12.3999 32.9 11.4999C32.3 10.6999 32.6 9.89987 33.5 9.49987C34.8 9.09987 36.2 9.6999 36.4 10.8999ZM35.3 11.1999C35 10.5999 34.7 10.1999 34 10.4999C33.9 10.4999 33.7 10.8999 33.8 10.9999C34.2 11.4999 34.6 11.4999 35.3 11.1999Z" fill="white"/>
</g>
</svg>
