<svg width="107" height="38" viewBox="0 0 107 38" fill="none" xmlns="http://www.w3.org/2000/svg">
<g opacity="0.7">
<path d="M28.3 26.0003C24.1 23.5003 19.8 21.0003 14.5 22.3003C12.7 22.7003 10.9 23.6003 9.19999 24.3003C7.39999 25.1003 5.6 26.2002 3.8 27.1002C2.8 27.6002 1.9 27.3003 1.8 26.2003C1.5 22.7003 0.499987 19.0003 3.39999 15.9003C3.59999 15.7003 3.49999 15.1003 3.39999 14.7003C3.39999 14.5003 3.19999 14.4003 2.99999 14.3003C-0.100007 11.3003 -0.300013 7.50025 0.399987 3.60025C0.499987 3.10025 0.699987 2.50027 0.899987 2.00027C1.99999 -0.29973 2.79999 -0.299755 4.39999 1.60025C6.29999 3.80025 8.69999 5.20026 11.4 6.30026C15.3 8.00026 19.5 7.70026 23.6 7.80026C26.1 7.80026 28.5 7.90029 31 7.90029C31.4 7.90029 31.8 7.90027 32.5 8.00027C32 7.50027 31.8 7.30027 31.6 7.00027C30.9 6.00027 30 5.10027 29.5 4.00027C28.6 2.10027 29 0.600257 31.6 0.800257C35 1.10026 38.3 1.80025 41.4 3.10025C45.1 4.60025 48.8 5.40028 52.8 5.20028C57.2 4.90028 61.4 5.40026 65.8 6.30026C65.9 6.10026 65.9 5.90028 65.9 5.70028C65.9 4.90028 66 4.20026 66.8 3.80026C67.7 3.40026 68.5 3.70028 69.3 4.20028C71.3 5.50028 73.2 6.90024 75.3 8.10024C78.5 9.90024 81.7 11.7003 84.9 13.3003C86.1 13.9003 87.5 14.2003 88.8 14.2003C93.2 14.1003 97.1 15.4002 100.8 17.6002C101.1 17.8002 101.4 18.1003 101.7 18.4003C102.7 19.3003 103.7 20.3003 104.8 21.2003C106.5 22.6003 106.5 25.8003 104.5 27.3003C103.1 28.4003 101.5 29.2003 100 30.2003C98.1 31.6003 96.3 33.1003 94.4 34.4003C90.9 36.8003 87 38.0003 82.7 37.7003C77.2 37.3003 71.7 37.2002 66.2 36.6002C59.2 35.9002 52.1 35.3003 45.3 33.2003C43.6 32.7003 41.7 32.6003 39.9 32.7003C36.8 32.9003 33.7 32.2003 30.7 31.9003C29.5 31.7003 28.3 31.6003 27 31.4003C25.9 31.2003 25.6 30.7003 26.2 29.7003C26.7 28.3003 27.5 27.2003 28.3 26.0003ZM58.3 34.2003C57.9 33.3003 57.3 32.7003 57.4 32.3003C57.9 30.5003 57 29.7003 55.6 29.2003C55.4 29.1003 55.3 28.9003 55.2 28.8003C54.5 28.1003 53.3 28.2002 52.5 29.1002C51.9 29.8002 51.7 30.5003 52.5 31.3003C52.7 31.5003 52.8 32.0003 52.9 32.4003C52.5 32.3003 52 32.4002 51.6 32.1002C50.7 31.6002 50.6 30.7003 50.8 29.8003C51 28.8003 51.6 28.0003 52.6 27.8003C53.9 27.6003 54.2 26.9003 53.9 25.7003C53.5 24.0003 53.8 22.3003 54.8 20.9003C55.5 19.8003 56.4 18.9003 55.8 17.5003C55.7 17.4003 55.9 17.2003 55.9 17.0003C55.8 16.5003 55.7 16.0002 55.4 15.6002C54.6 14.7002 53.9 13.7003 54.2 12.4003C54.7 9.50029 56.8 8.40029 59.4 9.40029C60 8.70029 60.5 8.00026 61.1 7.30026C60.8 7.20026 60.6 7.00027 60.4 7.00027C58 6.90027 55.6 6.80026 53.1 6.80026C52.1 6.80026 51.9 7.60029 51.9 8.40029C51.9 8.80029 52 9.30027 52 10.0003C50.2 9.40027 51 7.90027 50.8 7.00027C49.5 6.90027 48.2 6.80028 46.9 6.70028C46.6 6.70028 46.3 6.80029 46.1 6.90029C44.2 7.70029 42.4 8.70026 40.4 9.30026C38.8 9.80026 37.2 10.2003 35.5 10.2003C33.5 10.2003 31.4 9.70029 29.4 9.40029C28.4 9.30029 27.5 9.10028 26.6 10.2003C25.8 11.1003 25.1 11.8003 25.3 13.0003C25.3 13.2003 25.2 13.7003 25 13.7003C24.7 13.7003 24.3 13.7003 24.2 13.5003C24 13.1003 23.7 12.5002 23.8 12.1002C24 10.7002 24.7 9.70026 26.2 9.30026C25.7 9.30026 25.2 9.30029 24.8 9.40029C22.3 9.70029 22.3 9.70027 23 12.0003C23 12.1003 22.9 12.1003 22.9 12.2003C21.7 11.8003 21.5 11.4003 21.9 9.50027C21.5 9.50027 21 9.50027 20.6 9.50027C19.1 9.60027 18.8 9.90026 19 11.3003C19.1 12.2003 19.5 13.1003 19.7 14.2003C19.7 14.2003 19.6 14.3003 19.4 14.4003C17.3 15.5003 17.2 16.6003 19.1 17.9003C19.3 18.0003 19.4 18.4003 19.3 18.7003C19 20.2003 19.3 20.6003 20.7 21.0003C22.4 21.6003 24.2 22.2003 25.8 22.9003C28.5 24.2003 30.9 26.2003 34 26.9003C34.4 27.0003 34.8 27.2003 35.2 27.4003C36.1 27.8003 36.9 28.2003 37.8 28.5003C39 25.8003 39.9 25.1003 41.2 26.0003C41.1 26.1003 41 26.3003 40.8 26.4003C39.2 27.8003 39.2 27.9003 40.2 29.7003C40.3 29.9003 40.4 30.3003 40.3 30.3003C40.1 30.5003 39.7 30.7002 39.5 30.6002C39 30.5002 38.6 30.3002 38.2 30.1002C35.9 29.1002 33.6 28.0003 31.4 27.0003C29.5 26.2003 27.6 27.4003 27.4 29.8003C31.4 30.1003 35.3 30.4003 39.3 30.7003C40 30.7003 40.7 30.6003 41.3 30.8003C44.5 31.4003 47.7 32.1003 51 32.7003C53.5 33.4003 55.8 33.8003 58.3 34.2003ZM101.4 19.6002C101 19.3002 100.8 18.9003 100.5 18.7003C97.2 16.6003 93.6 15.3003 89.6 15.5003C88.3 15.6003 87.3 16.1003 86.5 17.2003C85.8 18.2003 85.4 19.3003 85.5 20.5003C85.5 20.9003 85.1 21.3003 85 21.7003C84.7 21.4003 84.3 21.1003 84.2 20.7003C83.8 19.0003 84.5 17.5003 85.5 16.2003C85.8 15.9003 86.2 15.7003 86.6 15.5003C84.3 14.4003 80.8 15.7003 79.4 17.7003C78.2 19.5003 77.2 21.2003 77.2 23.5003C77.2 26.7003 77 29.8002 78.8 32.6002C79.4 33.5002 79.7 34.6003 80.3 35.8003C85.3 36.7003 90.1 35.7003 94.4 32.4003C96.7 30.6003 99.3 29.0003 101.7 27.3003C102.4 26.8003 103.2 26.5003 103.6 25.9003C104.1 25.1003 104.5 24.0002 104.5 23.1002C104.5 22.1002 103.4 21.9003 102.5 21.7003C99.2 20.8003 96.1 21.7003 93 22.4003C92.1 22.6003 90.8 23.5003 90.5 22.5003C90.1 21.4003 91.7 21.2002 92.5 21.1002C95.3 20.4002 98.3 20.0002 101.4 19.6002ZM72.9 35.4003C72.1 34.4003 71.5 33.7003 71.1 32.9003C69.2 29.5003 68.7 25.7003 68.9 21.8003C69 19.3003 69.5 16.9003 70.7 14.7003C70.9 14.4003 70.8 13.8003 70.6 13.5003C69.5 12.1003 68.2 10.9003 67.3 9.50027C66.5 8.20027 65.5 7.60027 64.1 7.50027C63.5 7.50027 62.7 7.50026 62.2 7.80026C59.8 9.70026 58.9 13.8002 60.2 16.6002C60.6 17.4002 61 18.0003 62.1 17.9003C62.5 17.9003 62.9 18.1003 63.4 18.2003C63.4 18.3003 63.4 18.5002 63.4 18.6002C62.5 18.8002 61.5 19.2003 60.6 19.2003C56.9 19.4003 55 21.6003 55.5 25.3003C55.7 27.1003 56.5 28.4003 58.4 29.0003C59 29.2003 59.6 29.5003 60.1 29.8003C60.3 29.9003 60.4 30.3002 60.5 30.6002C60.2 30.7002 60 30.9003 59.7 31.0003C59.4 31.1003 58.9 31.2003 58.9 31.4003C58.8 31.7003 58.9 32.2003 59.1 32.5003C60.1 33.7003 61.1 34.9003 62.9 34.7003C63.4 34.7003 64 34.8003 64.6 34.9003C67.1 35.0003 69.8 35.2003 72.9 35.4003ZM2.8 2.10025C0.899996 4.50025 1.39999 6.50025 3.99999 7.60024C4.59999 7.90025 5.19999 8.10029 5.99999 8.40029C5.59999 8.60029 5.39999 8.80026 5.19999 8.80026C4.09999 8.60026 3.09999 8.30027 1.99999 8.00027C1.59999 9.30027 2.9 9.50029 3.6 9.90029C4.4 10.4003 5.4 10.5003 6.6 10.9003C5.2 11.8003 4.09999 11.2003 2.89999 11.0003C3.79999 13.2003 5.89999 12.8003 7.89999 13.4003C7.19999 13.9003 6.7 14.1003 6.1 14.5003C7.5 14.7003 8.6 14.9003 9.8 15.0003C9.8 15.2003 9.8 15.4003 9.8 15.5003C9 15.6003 8.2 15.9003 7.3 15.8003C5.9 15.8003 4.89999 16.3003 4.39999 17.8003C5.19999 18.1003 6.09999 18.4002 6.89999 18.6002C6.89999 18.8002 6.8 19.0003 6.8 19.2003C5.9 19.1003 5.09999 19.0003 4.19999 18.9003C3.89999 18.9003 3.6 19.3003 3.3 19.4003C3.5 19.7003 3.69999 20.0002 3.99999 20.1002C4.29999 20.3002 4.79999 20.2003 5.19999 20.3003C5.69999 20.4003 6.3 20.5002 6.8 20.6002C6 21.7002 5.1 21.4003 4.1 21.5003C3.8 21.5003 3.19999 21.9003 3.19999 22.0003C3.19999 22.5003 3.49999 23.3003 3.69999 23.3003C5.09999 23.3003 6.69999 23.6002 7.89999 23.1002C10.9 21.6002 13.8 20.3003 17.2 20.3003C17.6 20.3003 18.3 20.0003 18.3 19.8003C18.3 19.2003 18.2 18.5003 17.8 18.2003C16.9 17.3003 16.4 15.7003 17.3 14.9003C18.3 13.9003 18.2 13.0003 18 11.9003C17.9 11.4003 17.9 10.9003 18 10.4003C18.2 9.40029 17.8 9.20028 16.9 9.20028C16.1 9.20028 15.3 9.10029 14.5 8.90029C9.89999 7.80029 6 5.70024 2.8 2.10025ZM82.8 13.8003C82.6 13.6003 82.6 13.5003 82.4 13.4003C80.7 12.5003 78.9 11.6003 77.2 10.8003C76.9 10.7003 76.3 10.8003 76 11.0003C73.3 12.8003 71.7 15.3003 70.9 18.4003C70.2 20.9003 70.1 23.5002 70.5 26.1002C70.9 29.3002 71.9 32.2002 74.3 34.6002C75.8 36.0002 77.2 35.4003 79 35.7003C78.7 35.1003 78.5 34.8003 78.3 34.5003C76.8 32.6003 75.8 30.4003 75.7 28.0003C75.6 26.3003 75.7 24.7003 75.8 23.0003C76.1 18.8003 78.2 15.8003 82.1 14.2003C82.3 14.0003 82.5 13.9003 82.8 13.8003ZM44.3 6.30026C44.3 6.20026 44.3 6.00029 44.2 5.90029C39.9 4.20029 35.6 2.40026 30.5 2.30026C30.8 3.00026 30.9 3.60027 31.2 4.00027C32.3 5.20027 33.4 6.20029 34.5 7.40029C35.7 8.60029 36.9 9.10029 38.6 8.40029C40.4 7.50029 42.4 7.00026 44.3 6.30026ZM67.4 4.80026C67.5 8.50026 69.6 10.6003 71.6 12.8003C72.8 11.7003 73.9 10.8003 75.1 9.70028C72.5 8.10028 70.1 6.50026 67.4 4.80026ZM58.8 10.2003C57.6 9.90028 56.6 10.2002 56 11.1002C55.4 12.1002 55.1 13.1002 55.9 14.1002C56.2 14.4002 56.7 14.8003 56.9 14.8003C57.4 14.6003 58 14.2003 58.2 13.7003C58.5 12.6003 58.6 11.5003 58.8 10.2003ZM58.2 15.4003C57.4 16.2003 56.8 17.1003 57.3 18.0003C57.8 18.8003 58.5 18.2003 59.2 17.8003C58.9 17.0003 58.6 16.3003 58.2 15.4003Z" fill="white"/>
<path d="M50.1 12.9004C49 15.1004 46.9 16.9004 49.3 19.3004C48.2 19.8004 47.5 19.4003 47.1 18.6003C46.3 17.1003 47.4 13.8003 49 13.1003C49.2 13.0003 49.5 13.0004 50.1 12.9004Z" fill="white"/>
<path d="M50.1 27.3003C49.4 27.9003 48.8 27.7003 48.2 27.2003C47.4 26.5003 47.1 25.1003 47.6 24.0003C48 22.9003 48.9 22.3003 50.1 22.3003C50.4 22.3003 50.7 22.6003 51 22.7003C50.8 22.9003 50.7 23.2003 50.4 23.4003C48.3 24.4003 48.1 25.4003 49.9 26.9003C49.9 26.9003 49.9 27.1003 50.1 27.3003Z" fill="white"/>
<path d="M42.9 13.3003C42.3 14.3003 41.7 15.1003 41.3 16.0003C41 16.7003 41.1 17.4003 41.9 17.8003C42.1 17.9003 42.3 18.2003 42.2 18.3003C42.1 18.5003 41.8 18.8003 41.6 18.8003C41.1 18.6003 40.4 18.5003 40.1 18.1003C39.2 16.9003 39.9 14.2003 41.2 13.5003C41.8 13.3003 42.3 13.3003 42.9 13.3003Z" fill="white"/>
<path d="M38.2 15.7002C37.6 15.3002 37 15.2002 37 14.9002C36.8 13.9002 36.6 12.9002 36.8 12.0002C37 10.9002 38 10.4002 39.1 10.2002C39.3 10.2002 39.5 10.3002 39.7 10.4002C39.6 10.6002 39.6 10.9002 39.5 11.0002C37.7 11.8002 37.7 13.2002 38.2 14.8002C38.2 14.9002 38.2 15.2002 38.2 15.7002Z" fill="white"/>
<path d="M39.5 20.7001C39.2 20.9001 39.1 21.1001 39 21.2001C37.5 21.8001 36.8 22.9001 37.2 24.6001C37.2 24.8001 37.1 25.2001 37 25.3001C36.8 25.4001 36.5 25.3001 36.3 25.1001C35.7 24.5001 35.8 22.6001 36.5 21.6001C37 20.6001 38.2 20.2001 39.5 20.7001Z" fill="white"/>
<path d="M45.5 20.7002C43.5 22.6002 43.5 22.6002 44.7 25.3002C43.7 25.6002 43.1 25.1003 42.6 24.4003C42.1 23.5003 42.3 22.1002 43.1 21.3002C43.7 20.7002 44.4 20.0002 45.5 20.7002Z" fill="white"/>
<path d="M54 16.1004C53.5 16.5004 53.2 16.7004 52.9 17.0004C51.8 17.9004 51.7 18.7004 52.6 19.8004C52.8 20.0004 52.8 20.4004 53 20.7004C52.6 20.7004 52.2 20.8004 51.9 20.7004C50.9 20.2004 50.5 18.7004 51 17.6004C51.3 16.4004 52.4 15.8004 54 16.1004Z" fill="white"/>
<path d="M35.3 17.3004C33.8 18.5004 32.8 19.6005 34.6 21.2005C34.5 21.3005 34.4 21.4004 34.3 21.5004C33.8 21.4004 33.2 21.5005 32.9 21.2005C32.1 20.6005 32 19.0004 32.8 18.1004C33.3 17.4004 34 16.9004 35.3 17.3004Z" fill="white"/>
<path d="M29.9 14.3004C28.2 15.3004 28.3 16.6003 29.3 18.1003C29.2 18.2003 29.1 18.3004 28.9 18.4004C28.5 18.2004 27.9 18.1004 27.7 17.8004C27 17.1004 27.1 15.5004 27.7 14.7004C28.2 14.0004 28.8 13.9004 29.9 14.3004Z" fill="white"/>
<path d="M35 12.3004C33.1 13.0004 33 14.5004 33.2 16.2004C33 16.2004 32.9 16.2004 32.7 16.3004C32.4 15.9004 32 15.5004 31.9 15.0004C31.7 13.8004 32 12.7003 33.1 12.1003C33.5 11.9003 34.2 12.0004 34.7 11.9004C34.9 12.0004 34.9 12.2004 35 12.3004Z" fill="white"/>
<path d="M25 20.9004C24.3 20.8004 23.6 20.8004 23.4 20.5004C23 19.9004 22.8 19.0004 22.9 18.4004C23 17.5004 23.7 16.9004 25 16.9004C24.7 17.6004 24.2 18.2004 24.2 18.7004C24.1 19.3004 24.5 19.9004 25 20.9004Z" fill="white"/>
<path d="M48.1 8.50047C46.3 9.80047 46.2 11.2005 47.1 12.8005C47 12.9005 47 13.0004 46.9 13.1004C46.5 13.0004 46.1 12.9004 45.8 12.6004C45.2 12.0004 45.2 10.3005 45.7 9.40049C46.3 8.80049 46.8 8.10047 48.1 8.50047Z" fill="white"/>
<path d="M22.5 14.7005C21.6 15.8005 21.6 16.8005 22 17.9005C22 18.0005 21.6 18.5005 21.4 18.5005C20.7 18.4005 20.2 17.2004 20.4 16.1004C20.7 14.9004 21.3 14.5005 22.5 14.7005Z" fill="white"/>
<path d="M30.6 19.9005C30.5 21.1005 30.5 22.2005 30.4 23.3005C30.4 23.4005 30.2 23.7005 30.1 23.7005C29.8 23.7005 29.3 23.6005 29.3 23.5005C29.2 22.8005 29 22.0005 29.2 21.3005C29.2 20.4005 29.8 19.8005 30.6 19.9005Z" fill="white"/>
<path d="M44.6 31.0002C44.4 30.7002 43.9 30.2002 43.9 30.1002C44.2 29.5002 44.7 28.8002 45.2 28.3002C45.8 27.8002 46.6 27.8002 47.3 28.7002C46.3 29.2002 44.7 29.0002 45 30.9002C44.9 30.9002 44.8 31.0002 44.6 31.0002Z" fill="white"/>
<path d="M91.2 27.4002C91.4 28.9002 90.8 30.1002 89.6 30.6002C88.4 31.1002 86.5 30.6002 85.8 29.7002C84.9 28.5002 85.7 26.6002 87.4 26.4002C88.1 26.3002 88.9 26.6002 89.7 26.8002C90.1 26.9002 90.6 27.2002 91.2 27.4002ZM87.6 27.1002C87.2 27.8002 87 28.2002 86.7 28.6002C87.3 28.9002 88 29.3002 88.6 29.3002C88.9 29.3002 89.3 28.7002 89.6 28.4002C89.1 28.1002 88.5 27.7002 87.6 27.1002Z" fill="white"/>
<path d="M3.10001 4.30029C4.50001 5.10029 5.8 5.90032 7.2 6.70032C5.8 7.60032 3.20001 6.20029 3.10001 4.30029Z" fill="white"/>
</g>
</svg>
