<svg width="129" height="95" viewBox="0 0 129 95" fill="none" xmlns="http://www.w3.org/2000/svg">
<g opacity="0.7">
<path d="M15.4 71.7998C13.2 69.9998 10.9 69.0998 8.49999 68.5998C8.29999 68.4998 7.99998 68.5998 7.79998 68.4998C7.49998 68.2998 7.09998 67.9998 6.79998 67.7998C7.09998 67.4998 7.4 67.0998 7.7 66.9998C8.9 66.7998 10.1 66.5998 11.3 66.7998C13.3 67.1998 15.2 67.8998 17.2 68.3998C18.1 68.6998 19 68.8998 20 69.0998C21.9 69.3998 23.9 69.5998 25.8 69.9998C28.3 70.4998 30.8 70.3998 33.3 69.7998C33.6 69.6998 33.8 69.5998 34.2 69.4998C33.9 69.2998 33.8 69.0998 33.6 69.0998C27 67.8998 21.1 64.7998 15.4 61.4998C11.1 58.9998 7.19999 55.7998 4.49999 51.5998C2.79999 48.8998 1.49998 45.9998 0.799979 42.8998C-0.700021 36.4998 0.200004 30.3998 2.7 24.3998C3.7 21.9998 4.4 19.3998 5.6 17.0998C8.5 11.4998 11.9 6.29981 16.9 2.19981C17.7 1.59981 18.6 0.999785 19.5 0.799785C20.2 0.599785 21.2 0.799785 21.7 1.29979C22.4 1.89979 21.7 2.69979 21.2 3.29979C15.8 9.59978 12.3 16.8998 9.89999 24.6998C8.79998 28.1998 7.8 31.6998 7.1 35.2998C6.7 37.5998 6.5 40.1998 7.2 42.2998C8.2 45.2998 10.7 47.4998 13.6 49.0998C16 50.3998 18.4 51.7998 20.9 52.6998C24.8 53.9998 28.9 54.2998 33.1 54.0998C35.9 53.8998 36.1 52.5998 34.7 50.3998C33.1 47.8998 30.7 46.1998 27.9 44.9998C27.3 44.6998 26.6 44.4998 26 44.2998C23.9 43.4998 23.7 43.5998 22.4 45.4998C21.6 46.5998 20.8 47.6998 19.4 48.1998C17.5 48.7998 15.8 48.4998 14.1 47.6998C12.8 47.0998 11.7 46.1998 10.6 45.3998C10.3 45.1998 10.2 44.4998 10.1 44.0998C10.5 43.9998 11 43.7998 11.4 43.8998C12.9 44.0998 14.4 44.4998 15.9 44.7998C16.3 44.8998 17.3 44.4998 17.3 44.3998C17.3 43.7998 17.2 42.8998 16.7 42.5998C15.9 42.0998 14.9 41.8998 14 41.6998C13.2 41.5998 12.4 41.6998 11.6 41.5998C11.3 41.5998 10.7 41.2998 10.7 41.0998C10.6 40.7998 10.9 40.2998 11.1 40.0998C12.3 39.1998 13.5 38.2998 15 37.1998C13.3 37.0998 11.7 37.0998 10.1 36.9998C9.7 36.9998 9.29998 36.7998 8.79998 36.5998C8.99998 36.1998 9.19999 35.6998 9.49999 35.4998C13.2 33.1998 17.1 33.3998 20.6 35.2998C23.8 36.9998 26.9 38.3998 30.4 38.8998C34.9 39.4998 37.9 42.3998 40.7 45.4998C42.7 47.6998 44.4 50.3998 46.2 52.7998C47.2 54.2998 48.9 54.3998 50.4 54.5998C54.4 55.0998 58.5 55.2998 62.5 55.7998C66.1 56.1998 69.6 56.6998 73.1 57.1998C74.6 57.3998 76.2 57.4998 77.8 57.5998C75.4 56.0998 72.9 54.9998 70 54.6998C67.7 54.4998 65.3 54.3998 63.1 53.8998C61.8 53.5998 60.5 52.7998 59.3 52.0998C59 51.8998 59 51.2998 58.9 50.8998C59.3 50.8998 59.8 50.7998 60.2 50.8998C61.8 51.1998 63.4 51.5998 65 51.8998C65.4 51.9998 65.9 51.6998 66.3 51.4998C66.3 51.3998 66.4 51.2998 66.4 51.1998C65.8 50.8998 65.2 50.4998 64.6 50.2998C62.5 49.5998 60.4 49.1998 58.2 49.3998C57.8 49.3998 57.3 49.4998 56.9 49.3998C56.6 49.2998 56.3 48.9998 56 48.7998C56.2 48.4998 56.4 47.9998 56.7 47.8998C58 47.4998 59.4 47.0998 60.7 46.6998C61 46.5998 61.2 46.5998 61.5 46.4998C61.5 46.3998 61.5 46.1998 61.5 46.0998C59.7 45.7998 57.9 45.3998 56 45.0998C55.7 45.0998 55.4 45.1998 55.2 44.9998C54.9 44.7998 54.6 44.4998 54.3 44.2998C54.6 44.0998 54.8 43.7998 55.1 43.6998C59.4 42.3998 63.1 43.6998 66.6 45.9998C69 47.4998 71.4 49.0998 73.9 50.4998C75.5 51.3998 77.4 52.0998 79.2 52.4998C83.6 53.5998 87.7 55.3998 91.3 57.9998C93.1 59.2998 94.8 60.9998 96.3 62.5998C98.6 64.9998 101.4 66.4998 104.7 66.8998C107.5 67.2998 110.4 67.3998 113.2 67.6998C115.4 67.8998 117.1 68.8998 118.7 70.3998C121 72.6998 123.5 74.8998 125.9 77.0998C127.1 78.1998 128.4 79.3998 127.9 81.1998C127.5 82.8998 125.8 83.1998 124.3 83.6998C121.5 84.6998 118.7 85.6998 115.9 86.5998C114.7 86.9998 113.5 87.2998 112.3 87.1998C110.2 86.9998 108.1 86.4998 106 86.1998C103.6 85.8998 101.2 85.5998 98.9 85.3998C97.2 85.2998 95.8 86.0998 94.5 87.0998C91.5 89.2998 88.1 90.6998 84.4 90.8998C83 90.9998 81.5 90.5998 80.1 90.0998C77.2 89.0998 74.2 88.7998 71.2 89.4998C70.3 89.6998 69.4 90.2998 68.6 90.8998C65.3 93.4998 61.7 94.8998 57.4 93.8998C55.7 93.4998 53.9 93.3998 52.2 93.0998C52.1 93.0998 51.9 93.0998 51.8 92.9998C51.5 92.7998 51.2 92.4998 50.8 92.2998C51.2 92.1998 51.5 91.8998 51.9 91.8998C53 91.8998 54.1 92.0998 55.1 92.0998C55.4 92.0998 55.6 92.0998 56 91.7998C55.4 91.4998 54.8 91.2998 54.2 91.0998C52 90.3998 50.1 89.2998 48.6 87.3998C48.4 87.0998 48.4 86.5998 48.3 86.1998C48.8 86.2998 49.3 86.1998 49.7 86.3998C51 87.0998 52.2 87.9998 53.5 88.7998C53.6 88.6998 53.7 88.5998 53.8 88.4998C53.3 87.7998 52.8 87.1998 52.3 86.4998C52 86.0998 51.7 85.7998 51.6 85.3998C51.5 84.9998 51.4 84.2998 51.6 84.0998C51.8 83.8998 52.5 83.8998 52.9 83.9998C54.2 84.5998 55.4 85.3998 56.6 85.9998C57.5 86.3998 58.3 86.8998 59.3 87.0998C61 87.5998 62.5 87.1998 64 85.7998C62.7 85.4998 61.6 85.1998 60.5 84.8998C60.2 84.7998 59.7 84.8998 59.4 84.7998C59 84.5998 58.7 84.2998 58.4 84.0998C58.7 83.7998 58.9 83.3998 59.2 83.1998C61.4 82.0998 63.6 82.1998 65.9 82.6998C68.1 83.1998 70.3 83.8998 72.5 84.2998C74.8 84.6998 77.1 84.8998 79.3 83.9998C79.9 83.7998 80.4 83.2998 80.9 82.9998C80.9 82.8998 80.9 82.7998 80.8 82.5998C80.2 82.5998 79.6 82.5998 79 82.5998C72.8 82.5998 66.7 81.7998 60.7 80.3998C55.5 79.1998 50.7 77.0998 46 74.6998C45.7 74.5998 45.2 74.5998 44.9 74.6998C43.8 75.2998 42.6 75.8998 41.5 76.5998C37.7 78.9998 33.6 79.4998 29.4 78.0998C27.5 77.4998 25.7 76.6998 23.9 75.9998C22.9 75.5998 22.2 75.8998 21.5 76.5998C20.9 77.1998 20.3 77.7998 19.7 78.3998C17.3 80.5998 14.6 81.4998 11.4 80.8998C9.19999 80.4998 7.09999 79.8998 4.99999 79.2998C3.99999 78.9998 3.49999 78.4998 4.39999 77.4998C3.49999 76.8998 2.59998 76.2998 1.79998 75.5998C1.49998 75.3998 1.49999 74.8998 1.39999 74.4998C1.79999 74.4998 2.2 74.2998 2.6 74.3998C3.8 74.7998 5.09999 75.2998 6.39999 75.4998C5.59999 74.7998 4.79999 74.0998 3.99999 73.2998C3.69999 72.9998 3.69999 72.3998 3.49999 71.8998C3.99999 71.8998 4.59999 71.7998 4.99999 72.0998C7.89999 73.7998 10.9 73.9998 14 72.6998C14.4 72.3998 14.8 72.0998 15.4 71.7998ZM20.6 2.19981C20.5 1.99981 20.4 1.89981 20.3 1.69981C19.6 1.99981 18.9 2.0998 18.3 2.5998C17.1 3.5998 15.9 4.59981 14.8 5.69981C8.09998 13.0998 4.19999 21.8998 1.89999 31.3998C0.299985 37.9998 1.29999 44.2998 4.89999 49.9998C7.99999 54.8998 12.6 58.3998 17.6 61.1998C24 64.6998 30.6 67.6998 38.3 68.4998C37.9 68.9998 37.7 69.5998 37.3 69.7998C34.6 70.8998 31.8 71.7998 28.9 71.6998C26.5 71.4998 24.1 70.9998 21.7 70.7998C19.3 70.5998 17 70.0998 14.9 68.9998C14.3 68.6998 13.6 68.5998 13 68.4998C13.8 69.1998 14.5 69.8998 15.4 70.2998C17.6 71.4998 17.1 72.1998 15.4 73.3998C15 73.5998 14.6 73.8998 14.2 73.9998C12.5 74.3998 10.8 74.7998 9.2 75.0998C10.8 75.7998 12.6 76.0998 14.6 75.7998C15 75.6998 15.4 75.9998 15.8 76.0998C15.5 76.3998 15.2 76.9998 14.9 76.9998C13.5 77.0998 12.1 77.0998 10.7 77.0998C10.1 77.0998 9.59999 76.8998 8.99999 76.8998C8.39999 76.8998 7.89998 76.8998 7.29998 76.8998C7.29998 76.9998 7.29998 77.0998 7.29998 77.2998C9.09998 77.4998 10.9 77.6998 12.6 77.9998C13.1 78.0998 13.5 78.3998 13.9 78.5998C13.5 78.7998 13.1 79.0998 12.6 79.1998C12.1 79.2998 11.5 79.2998 10.9 79.1998C9.89999 79.0998 8.99999 78.9998 7.99999 78.7998C10.8 79.6998 13.6 80.4998 16.4 78.9998C17.8 78.1998 19 76.9998 20.2 75.9998C21.3 75.0998 22.6 74.6998 24 75.0998C26.3 75.7998 28.4 76.7998 30.7 77.2998C34.2 78.0998 37.5 77.5998 40.5 75.5998C41.3 75.0998 42.1 74.3998 43 74.0998C44 73.7998 45.1 73.3998 46 73.6998C47.5 73.9998 48.8 74.7998 50.2 75.3998C52.6 76.3998 54.9 77.4998 57.4 78.1998C64.5 80.2998 71.8 81.1998 79.2 81.1998C81.2 81.1998 83.3 81.2998 85.3 81.4998C85.8 81.4998 86.3 82.0998 86.8 82.3998C86.2 82.5998 85.7 82.6998 85.1 82.8998C85 82.8998 84.9 82.8998 84.7 82.8998C83.5 82.6998 82.5 82.7998 81.6 83.7998C79.5 86.1998 76.6 86.6998 73.7 86.1998C71.2 85.7998 68.8 85.0998 66.4 84.5998C65.1 84.2998 63.7 84.0998 62.4 83.8998C62.4 83.9998 62.4 84.0998 62.3 84.2998C63.3 84.5998 64.4 84.7998 65.4 85.0998C66.3 85.3998 66.3 85.8998 65.6 86.3998C65.2 86.6998 64.9 86.8998 64.5 87.1998C62.3 89.0998 59.8 89.5998 57.1 88.1998C56.5 87.8998 55.9 87.5998 55.3 87.1998C54.7 86.8998 54.1 86.5998 53.5 86.2998C54.5 88.0998 56 88.8998 57.8 89.2998C58.5 89.4998 59.1 89.5998 59.8 89.7998C60 89.8998 60.2 90.1998 60.3 90.3998C60.1 90.5998 59.8 90.7998 59.6 90.8998C59.2 90.9998 58.8 90.7998 58.4 90.7998C57.8 90.7998 57.3 90.7998 56.7 90.7998C56.7 90.8998 56.7 91.0998 56.7 91.1998C57.7 91.2998 58.7 91.2998 59.7 91.4998C60.2 91.5998 60.6 92.0998 61.1 92.3998C60.7 92.5998 60.3 92.7998 59.9 92.8998C59.2 92.9998 58.5 92.8998 57.8 92.8998C57.8 92.9998 57.8 93.1998 57.8 93.2998C58.2 93.3998 58.6 93.4998 59 93.4998C62.1 93.5998 64.8 92.6998 67.1 90.6998C68.8 89.1998 70.6 88.3998 72.8 88.2998C75.6 88.0998 78.3 88.4998 81 89.4998C82.2 89.8998 83.5 89.8998 84.7 89.7998C88.2 89.4998 91.2 87.7998 94.1 85.8998C95.1 85.1998 96.3 84.4998 97.5 84.4998C99.9 84.3998 102.3 84.5998 104.7 84.7998C105.6 84.8998 106.1 84.8998 106.8 84.1998C109.4 81.5998 113.2 80.4998 116.3 83.2998C117.2 84.0998 118.3 84.3998 119.4 83.9998C121.4 83.3998 123.3 82.7998 125.3 82.0998C126.6 81.5998 126.7 80.8998 126 79.6998C125.8 79.3998 125.5 78.9998 125.2 78.7998C122.8 76.6998 120.3 74.5998 117.9 72.4998C115.5 73.5998 115.2 73.5998 112.6 73.3998C110.3 73.1998 108.8 71.9998 108.2 69.7998C108.1 69.4998 107.6 69.1998 107.2 69.0998C104.3 68.3998 101.4 67.6998 98.6 66.9998C98 66.7998 97.1 66.5998 97.8 65.7998C97 65.0998 96.2 64.3998 95.5 63.6998C93.9 62.2998 92.5 60.5998 90.8 59.3998C87.1 56.6998 83.1 54.7998 78.6 53.8998C74.8 53.0998 71.6 51.1998 68.4 49.0998C67.6 48.5998 66.8 47.9998 66 47.4998C65.1 49.4998 63.6 47.4998 62.5 48.2998C63.2 48.4998 63.8 48.6998 64.5 48.8998C65.2 49.0998 65.9 49.2998 66.5 49.6998C68.6 50.8998 68.6 51.1998 66.8 52.6998C66.7 52.7998 66.7 52.8998 66.6 53.0998C66.9 53.1998 67.1 53.1998 67.3 53.2998C68.9 53.4998 70.4 53.4998 72 53.7998C76.5 54.6998 80.1 57.5998 84.2 59.3998C84.5 59.4998 84.6 59.9998 84.8 60.2998C84.4 60.3998 84 60.5998 83.6 60.4998C82.3 60.1998 81 59.6998 79.7 59.4998C77.2 59.0998 74.7 58.7998 72.2 58.3998C69.3 57.9998 66.3 57.4998 63.4 57.0998C60.5 56.7998 57.6 56.5998 54.6 56.2998C51.8 55.9998 49 55.6998 46.4 54.4998C46 54.2998 45.5 53.9998 45.3 53.6998C43.6 51.3998 42.2 48.9998 40.4 46.8998C37.4 43.2998 33.8 40.4998 28.9 39.8998C26.2 39.5998 23.5 38.7998 21.2 36.9998C19 35.2998 15.6 34.8998 13.4 35.4998C14.8 35.8998 16.4 36.3998 18 36.9998C18.3 37.0998 18.5 37.6998 18.8 38.0998C18.4 38.2998 18.1 38.5998 17.7 38.5998C16.9 38.7998 16 38.7998 15.2 38.9998C14.5 39.1998 13.9 39.5998 13.3 39.8998C13.3 39.9998 13.4 40.0998 13.4 40.1998C13.8 40.2998 14.2 40.2998 14.6 40.3998C16.1 40.5998 17.4 41.0998 18.4 42.2998C19.1 43.1998 19 44.1998 18.5 45.0998C18 45.9998 17.3 46.1998 16.4 46.0998C15.7 46.0998 15.1 46.0998 14.3 46.0998C16.1 47.6998 19.1 47.5998 20.6 45.9998C21.4 45.0998 22.2 43.9998 23.1 43.1998C23.5 42.7998 24.4 42.4998 24.9 42.5998C28.6 43.4998 31.9 45.1998 34.6 47.9998C35.5 48.8998 36.4 50.0998 36.7 51.2998C37.4 53.8998 36.9 54.9998 34.3 55.1998C29.9 55.6998 25.5 55.3998 21.3 54.0998C19 53.3998 17 52.0998 14.8 51.0998C11.9 49.7998 9.7 47.6998 7.7 45.2998C6.4 43.6998 5.99998 41.9998 5.79998 40.0998C5.49998 36.2998 6.6 32.6998 7.6 29.1998C8.6 25.4998 10 21.7998 11.2 18.0998C11.3 17.7998 11.3 17.3998 11.3 16.9998C11.3 16.5998 11.2 16.1998 11.1 15.7998C11.4 15.7998 11.8 15.7998 12.1 15.6998C13.4 13.3998 14.9 11.0998 16 8.5998C16.8 5.8998 19 4.19981 20.6 2.19981ZM113.3 82.7998C111.5 82.1998 108.8 83.2998 107.8 84.9998C110.7 86.2998 115.5 86.4998 116.6 84.3998C116.1 84.0998 115.7 83.7998 115.2 83.5998C115.2 83.6998 115.3 83.7998 115.3 83.9998C114.8 84.2998 114.4 84.7998 113.9 84.8998C113.2 85.0998 112.4 85.0998 111.6 84.9998C111.3 84.9998 110.8 84.5998 110.7 84.3998C110.7 84.0998 111 83.6998 111.3 83.4998C112 83.0998 112.7 82.9998 113.3 82.7998ZM113.7 72.1998C114.5 72.0998 115.3 71.9998 116.1 71.7998C116.4 71.6998 116.7 71.3998 117 71.0998C117.1 70.9998 116.7 70.4998 116.6 70.4998C116.3 70.4998 115.9 70.5998 115.6 70.7998C114.2 71.7998 111.2 71.1998 110.7 69.7998C110.5 69.2998 110.4 68.6998 109.8 69.0998C109.6 69.1998 109.7 69.9998 109.9 70.2998C110.6 71.8998 112.1 72.1998 113.7 72.1998Z" fill="white"/>
<path d="M43.5 65.7C41.7 66.2 38.3 65 37.4 63.5C37.1 63 37 62.2 37.2 61.9C37.4 61.5 38.2 61.3 38.7 61.4C40 61.5 41.3 61.8 42.6 62.1C43.1 62.2 43.6 62.5 44.1 62.9C42.3 63.9 40.5 62.7 38.8 63C38.8 63.1 38.7 63.2 38.7 63.3C40.3 64 42 64.7 43.6 65.4C43.6 65.4 43.6 65.6 43.5 65.7Z" fill="white"/>
<path d="M57.4 65.0997C54.8 64.7997 52.5 64.5997 50.2 64.3997C50.2 64.4997 50.1 64.6997 50.1 64.7997C51.4 65.4997 52.7 66.2997 54 66.9997C53.9 67.0997 53.9 67.2997 53.8 67.3997C52.7 67.7997 51.6 67.1997 50.7 66.6997C49.8 66.1997 49.1 65.2997 48.4 64.4997C48 63.8997 48.2 63.1997 49 63.1997C51.8 63.2997 54.5 63.3997 57.1 64.4997C57.2 64.4997 57.2 64.6997 57.4 65.0997Z" fill="white"/>
<path d="M72.8 69.0996C74.3 69.8996 75.9 70.5996 77.6 71.4996C75.2 72.3996 71.7 70.4996 71.2 68.3996C71 67.6996 71.4 67.0996 72.1 67.0996C74.1 67.0996 76 67.2996 78 67.4996C78.3 67.4996 78.5 67.8996 78.7 68.1996C78.4 68.2996 78.1 68.5996 77.8 68.5996C76.6 68.5996 75.3 68.5996 74.1 68.5996C73.7 68.5996 73.4 68.5996 73 68.6996C72.9 68.7996 72.9 68.8996 72.8 69.0996Z" fill="white"/>
<path d="M67 70.5999C64.6 71.1999 61.1 68.7999 61 66.4999C61 66.0999 61.5 65.3999 61.7 65.3999C63.7 65.5999 65.7 65.9999 67.7 66.2999C67.8 66.2999 67.9 66.4999 68.2 67.0999C66.1 66.9999 64.3 66.8999 62.3 66.6999C63.2 68.9999 65.8 68.7999 67 70.5999Z" fill="white"/>
<path d="M26.3 59.2C25.1 59.1 23.8 58.9999 22.6 58.7999C22.6 58.8999 22.5 59 22.5 59.1C23.5 59.5 24.6 59.9999 25.8 60.4999C24.7 61.2999 23.7 61 23 60.7C21.7 60.1 20.5 59.2999 19.4 58.3999C18.8 57.8999 19.1 57.1 19.9 57.2C22 57.6 24.1 58.0999 26.2 58.4999C26.3 58.4999 26.3 58.6999 26.4 58.7999C26.4 58.8999 26.4 59 26.3 59.2Z" fill="white"/>
<path d="M34.3 61.3998C32.6 61.1998 31 60.9998 29.3 60.7998C29.2 60.8998 29.2 61.0998 29.1 61.1998C30.4 61.7998 31.8 62.3998 33.3 63.0998C31.1 64.0998 27.5 62.2998 27.3 60.2998C27.3 59.9998 27.8 59.2998 28 59.3998C30 59.7998 32.1 60.2998 34.1 60.6998C34.2 60.6998 34.2 60.8998 34.3 60.9998C34.3 61.0998 34.3 61.2998 34.3 61.3998Z" fill="white"/>
<path d="M17.2 57.6998C15.5 57.6998 14.2 57.0997 13.3 55.7997C13.1 55.5997 13.1 54.9997 13.2 54.7997C13.4 54.5997 13.9 54.3997 14.2 54.4997C15.1 54.7997 16.1 55.1998 17 55.6998C17.2 55.7998 17.3 56.1997 17.4 56.4997C17.3 56.7997 17.2 57.1998 17.2 57.6998Z" fill="white"/>
<path d="M85.8 70.1998C85.9 70.6998 85.9 71.0998 86 71.3998C85.6 71.3998 84.9 71.4998 84.7 71.1998C84.3 70.7998 84.1 70.0998 83.7 69.5998C84.2 69.3998 84.7 68.9998 85.2 68.8998C86 68.7998 86.8 68.8998 87.6 68.9998C87.8 68.9998 88 69.3998 88.3 69.5998C88.1 69.7998 87.9 70.0998 87.6 70.0998C87 70.1998 86.4 70.1998 85.8 70.1998Z" fill="white"/>
<path d="M9.5 51.0996C10.1 51.5996 10.6 51.8996 11 52.2996C10.7 52.6996 10.4 53.0996 10 53.4996C9.5 53.0996 8.99999 52.5996 8.39999 52.1996C8.79999 51.7996 9 51.4996 9.5 51.0996Z" fill="white"/>
<path d="M6.60001 49C5.10001 48.6 4.99999 47.7 4.89999 46.9C4.89999 46.8 5.10001 46.5 5.20001 46.5C5.40001 46.5 5.79999 46.6 5.89999 46.8C6.09999 47.4 6.30001 48 6.60001 49Z" fill="white"/>
<path d="M12.2 11.5C12.5 12 12.8 12.3 12.7 12.4C12.5 12.9 12.1 13.3 11.8 13.7C11.6 13.5 11.3 13.2 11.3 13.1C11.5 12.6 11.8 12.2 12.2 11.5Z" fill="white"/>
</g>
</svg>
