<svg width="218" height="64" viewBox="0 0 218 64" fill="none" xmlns="http://www.w3.org/2000/svg">
<g opacity="0.7">
<path d="M145.4 9C144.9 7.8 144.3 6.69998 143.9 5.59998C143.7 5.19998 143.7 4.79999 143.6 4.29999C143.6 3.99999 143.7 3.7 143.8 3.5C144.1 3.6 144.4 3.70001 144.7 3.70001C144.7 3.70001 144.8 3.69999 144.8 3.79999C147.1 6.59999 150.5 7 153.7 8C157.7 9.2 161.7 10.4 165.7 11.6C167 12 168.3 12.2 169.6 12.6C173.1 13.5 176.5 14.4 180 15.3C185.7 16.9 191.4 18.5 196.9 20.6C201.5 22.4 206 24.5 210.5 26.8C211.9 27.5 213 29 214.2 30.2C214.8 30.8 214.7 31.6 214.1 32.3C213.8 32.6 213.6 33 213.4 33.4C212.5 34.8 210.9 34.7 210.1 33.3C209.6 32.3 208.2 32.1 207.4 32.9C207.1 33.2 206.9 33.5 206.7 33.7C205.6 35 204.4 34.9 203.7 33.4C203.4 32.7 203 32.5 202.3 32.5C201.9 32.5 201.5 32.5 201.2 32.4C200.2 32.2 199.5 32.5 199 33.4C198.9 33.6 198.7 33.7 198.6 33.9C197.7 34.8 196.7 34.6 196.2 33.4C196 32.9 195.8 32.2 195.5 32.1C194.7 32 193.8 32 192.9 32.2C192.3 32.3 192.2 32.9 192.9 33.3C193.9 33.8 195 34.3 196 34.7C197 35 198 35 199 35.2C199.5 35.3 199.9 35.1 200.3 34.6C200.6 34.2 201.3 33.7 201.7 33.8C202.1 33.9 202.6 34.5 202.8 35C203.1 35.9 203.8 35.8 204.4 35.9C205 36 205.6 36.2 206 35.4C206.1 35.1 206.4 34.8 206.7 34.5C207.7 33.6 209.2 34.1 209.4 35.4C209.7 36.8 211.2 37.9 212.6 37.6C212.9 37.5 213.1 37.2 213.3 37C213.8 36.6 214.3 36 215 35.7C215.8 35.3 216.4 35.6 216.5 36.5C216.6 37.3 216.6 38.1 216.4 38.9C216.2 39.6 216.4 40.1 216.9 40.3C217.7 40.7 217.7 41.3 217.5 42C217.2 43.8 216.1 45.2 215 46.6C212.2 50.2 208.5 52.6 204.3 54.2C201.7 55.2 198.9 55.9 196.2 56.5C193.3 57.2 190.3 57.7 187.3 58.1C184.3 58.5 181.3 58.7 178.3 58.9C173 59.3 167.8 59.6 162.5 60C161.9 60 161.4 60 160.8 60.1C155.3 60.4 149.8 60.6 144.3 60.9C144.1 60.9 143.9 60.9 143.7 61.1C141.4 62.6 138.8 63 136.2 63.5C133.1 64.1 130 64 126.9 63.3C125.6 63 125.5 62.5 126.3 61.5C126.7 61 127.2 60.5 127.8 59.9C125.8 59.7 124 59.6 122.2 59.4C117.7 58.9 113.2 58.6 108.7 58C104.5 57.5 100.3 56.8 96.1 56C90.5 54.9 85 53.5 79.4 52.4C75.3 51.6 71.1 51 67 50.3C64.8 49.9 62.5 49.8 60.4 48.6C59.4 48.1 59.4 47.9 60.3 47.2C61.8 46.1 63.4 45 64.9 43.9C64 43.6 62.9 43.4 61.9 43.1C57.5 41.7 53.1 40.3 48.8 38.9C45.2 37.7 41.6 36.8 37.9 36.4C35.2 36.1 32.6 35.8 29.9 35.5C26.4 35.1 22.8 34.6 19.3 34.2C15 33.6 10.7 33.8 6.40001 34.5C4.70001 34.8 3.09998 35.4 1.49998 35.8C1.09998 35.9 0.600007 36 0.400007 35.8C0.200007 35.6 0.0999949 35 0.199995 34.7C0.599995 33.3 1.09999 31.9 1.69999 30.6C2.99999 28 4.39998 25.5 5.99998 23.1C6.69998 22 7.90001 21.2 8.90001 20.2C9.10001 20 9.39999 19.8 9.7 19.6C7.1 18.3 5.69997 16.1 4.79997 13.7C4.19997 12.1 3.7 10.3 3.7 8.59998C3.7 6.19998 4.10001 3.8 4.40001 1.5C4.40001 1.3 4.49996 1.10002 4.59996 0.900024C4.79996 0.600024 5.20001 0.3 5.40001 0C5.70001 0.3 6.1 0.500024 6.2 0.900024C7.79999 4.20002 9.89999 6.90001 13.2 8.70001C17.4 11 21.8 12.4 26.5 13.1C29.2 13.5 31.9 14.2 34.6 14.5C36.9 14.7 39.3 14.6 41.6 14.6C47 14.7 52.4 14.7 57.8 14.8C58.9 14.8 60 14.8 61.1 14.8C61.1 14.7 61.2 14.6 61.2 14.4C61 14.1 60.7 13.9 60.5 13.6C59.9 12.4 59.3 11.2 58.9 10C58.7 9.4 59.3 9.30002 59.7 9.40002C63 10.1 66.2 10.9 69.5 11.6C72.4 12.1 75.3 12.6 78.2 12.9C83.7 13.5 89.2 12.9 94.7 12.6C96.6 12.5 98.5 12.6 100.4 12.4C104.2 11.9 108 11.3 111.8 10.8C114 10.5 116.3 10.3 118.5 10.2C125.7 9.90001 133 9.59999 140.2 9.29999C141.7 9.19999 143.2 9.29999 144.8 9.29999C144.6 8.99999 145 9 145.4 9ZM155.6 50C156 50 156.5 49.9 156.9 49.9C156.9 48.2 156.9 46.6 156.9 45.1C156.9 44.1 156.5 43.8 155.6 44.3C153.8 45.2 153.5 47.7 155.1 49C155.4 49.2 155.9 49.4 155.6 50C154.8 50 154.2 49.6 153.6 49C153.4 48.8 153.1 48.6 152.9 48.6C152 48.7 151 50 151 50.9C151 51.8 152 52.8 153 52.8C153.3 52.8 153.7 52.5 153.9 52.3C154.5 51.5 155.1 50.7 155.6 50ZM171.9 14.4C172 14.4 172.1 14.5 172.2 14.5C172.2 14.7 172.2 15 172.1 15.2C171.8 15.9 171.6 16.5 171.2 17.2C169.7 20.3 168.2 23.3 166.7 26.4C163.8 32.3 163 38.5 163.2 44.9C163.3 49.3 164.8 53.2 167.9 56.3C168.2 56.6 168.6 57 168.8 57.4C169 58 169.3 58 169.8 58C171.6 57.9 173.4 57.7 175.2 57.6C180.7 57.3 186.2 57.1 191.6 55.9C195.7 55 199.9 54.6 203.9 52.8C207.7 51.1 211.2 48.9 213.8 45.5C214.6 44.4 215.6 43.3 215.8 41.9C215.9 41.3 215.8 40.8 215.2 40.5C213.8 39.9 212.5 39 211.1 38.6C206.8 37.3 202.4 36.8 198 36.2C195.9 35.9 193.9 35.6 192.1 34.3C191.3 33.8 190.8 33.1 191 32.1C191.2 31.1 192.1 30.9 192.9 30.7C193.1 30.7 193.4 30.7 193.6 30.7C195.3 30.8 197.1 30.9 198.8 30.9C203.2 30.9 207.6 31 212.1 31C212.3 31 212.6 30.8 212.8 30.7C212.7 30.5 212.6 30.1 212.5 30C211.5 29.1 210.5 28.1 209.4 27.5C203.7 24.6 197.9 21.9 191.7 20C188.2 19 184.8 17.9 181.3 16.9C180.9 16.8 180.3 16.9 180.1 17.1C179.1 18.3 178.1 19.5 177.4 20.9C175.7 24 174.1 27.2 172.7 30.4C171.3 33.4 170.7 36.6 170.6 39.9C170.4 43.2 171.4 46.3 172.3 49.4C173.1 51.9 174 54.6 176.8 55.8C177 55.9 177.1 56.2 177.2 56.5C176.9 56.6 176.7 56.9 176.4 56.8C175.2 56.6 174.3 56.1 173.5 55.1C171.8 52.8 170.9 50.1 170.1 47.4C168.7 42.4 168.6 37.5 170.4 32.6C171.5 29.6 173 26.7 174.5 23.8C175.6 21.7 176.9 19.8 178.1 17.8C178.4 17.3 178.9 16.9 179.4 16.3C179 16.1 178.7 16 178.5 15.9C174.3 14.8 170.1 13.8 165.8 12.8C165.6 12.8 165.2 13 165.1 13.2C164.3 15.5 163.3 17.7 162.7 20.1C161.4 25.2 160.3 30.3 159.2 35.4C158 41.2 158 47 158.9 52.7C159.1 54.2 159.6 55.6 160 57C160.1 57.3 159.8 57.7 159.7 58C159.4 57.8 159 57.6 158.8 57.4C158.6 57.1 158.5 56.7 158.4 56.3C158.3 55.7 157.9 55.4 157.3 55.3C155.9 55 154.8 56.1 154.7 57.6C154.7 58.4 154.9 58.7 155.8 58.7C158.7 58.5 161.7 58.5 164.6 58.3C165.7 58.2 166.7 58.1 167.9 58C167.6 57.6 167.4 57.4 167.2 57.2C165 54.9 163.3 52.3 162.6 49.1C161.4 43.5 161.9 37.9 163.3 32.4C164.9 26.2 168.1 20.6 171.2 15.1C171.3 14.8 171.7 14.6 171.9 14.4ZM12.3 24.7C12 24.8 11.8 24.8 11.5 24.8C9.69998 24.9 8 25 6.2 25C4.89999 25 4.09998 25.7 3.99998 27.2C6.09998 27.5 8.30001 26.9 10.4 27.6C10 27.9 9.69997 28 9.29997 28.1C7.59997 28.2 5.89999 28.4 4.2 28.4C3.2 28.4 2.89997 28.8 2.79997 29.8C5.49997 29.9 8 29.2 10.7 29.6C10.4 29.9 10.1 30 9.7 30.1C7.39999 30.3 5.09997 30.5 2.79997 30.8C2.49997 30.8 2.09996 30.9 2.09996 31C1.59996 32 1.19999 33 0.699995 34.2C1.29999 34.1 1.49999 34.1 1.69999 34C7.39999 32.2 13.2 32.2 19.1 32.7C20.2 32.8 21.3 33 22.4 33.1C23 33.2 23.3 32.9 23.4 32.3C23.6 30.8 23.8 29.3 24 27.9C24.5 23.7 25 19.5 25.5 15.3C25.7 13.8 25.7 13.8 24.3 13.6C23.8 13.5 23.3 13.5 22.8 13.3C20.7 12.7 18.6 12.3 16.6 11.5C15.1 11 13.8 10.1 12.4 9.40002C10 8.20002 7.89998 6.60001 6.49998 4.20001C5.89998 3.20001 5.29999 2.19998 4.7 1.09998C4.6 1.39998 4.50001 1.50001 4.40001 1.70001C4.30001 3.40001 4.19996 5.20002 4.09996 6.90002C4.09996 7.50002 4.49998 7.59998 4.99998 7.59998C6.19998 7.59998 7.39998 7.69999 8.49998 7.79999C8.79998 7.79999 9.09997 7.99998 9.29997 8.09998C9.29997 8.19998 9.3 8.30002 9.2 8.40002C7.89999 8.50002 6.5 8.49998 5.2 8.59998C4.89999 8.59998 4.39997 8.89998 4.29997 9.09998C4.19997 9.69998 4.7 9.70001 5.2 9.70001C6.7 9.80001 8.2 9.80002 9.7 9.90002C10.1 9.90002 10.4 10.1 10.8 10.2C10.8 10.3 10.8 10.4 10.7 10.5C8.8 11.1 6.79996 10.7 4.59996 10.6C4.69996 11.1 4.69997 11.5 4.79997 11.9C4.89997 12.1 5.29996 12.4 5.59996 12.4C7.39996 12.4 9.29996 12.3 11.1 12.3C11.6 12.3 12.2 12.5 12.7 12.6C12.7 12.7 12.7 12.8 12.7 12.9C10.4 13.6 8 12.9 5.7 13.5C6.2 15.1 6.29999 15.2 7.7 15.3C9.5 15.4 11.4 15.4 13.2 15.5C13.7 15.5 14.1 15.7 14.6 15.8C14.6 15.9 14.6 16 14.6 16.1C12.4 16.6 9.99996 16.2 7.59996 16.4C8.59996 17.7 9.8 18.2 11.2 18.2C12.6 18.3 14.1 18.3 15.5 18.3C15.9 18.3 16.2 18.5 16.6 18.5C16.6 18.6 16.6 18.7 16.6 18.8C16.2 18.9 15.8 19 15.4 19C14.2 19 12.9 19 11.7 19C10.4 19 8.49998 20.1 7.99998 21.2C10.3 21.5 12.7 20.7 14.9 21.6C14.6 21.8 14.3 21.9 14 21.9C11.8 22.1 9.60001 22.2 7.40001 22.3C6.50001 22.3 6.09997 22.8 5.79997 23.7C7.99997 24.2 10.2 23.6 12.3 24.7ZM115.9 33.5C115.9 33.6 115.9 33.7 115.9 33.8C117.9 34.3 119.8 34.8 121.8 35.3C124.3 35.8 126.8 36.1 129.2 36.7C132.6 37.5 136 38.5 139.3 39.6C144.7 41.3 150.3 41.9 155.9 42.7C156.7 42.8 157 42.5 157 41.8C157.1 40.5 157.1 39.2 157.3 37.9C157.5 36.5 157.5 36.5 156.1 36.5C151.2 36.4 146.4 36.3 141.6 36.2C140.7 36.2 139.8 35.9 138.9 35.6C138.6 35.5 138.2 34.8 138.2 34.4C138.2 34.1 138.7 33.7 139.1 33.6C139.8 33.4 140.5 33.3 141.2 33.3C146.6 33.3 152 33.4 157.3 33.5C157.7 33.5 158.1 33.5 158.2 33C158.5 31.5 158.8 30 159.2 28.5C159.3 27.9 159.2 27.6 158.5 27.6C158.3 27.6 158 27.6 157.8 27.6C151.6 27.8 145.5 28.9 139.4 29.9C132.7 30.9 126 32.1 119.4 33.2C118.2 33.2 117.1 33.3 115.9 33.5ZM137 22.2C136.4 21.6 135.9 21.1 135.4 20.7C135.2 20.6 135 20.4 134.8 20.5C133.1 20.9 131.4 22.6 131.2 24.4C130.9 26.4 131.5 27.7 133.4 28.6C133.5 28.6 133.5 28.7 133.5 28.8C132.7 29.5 132 29.5 131.3 28.7C130.4 27.7 129.8 26.5 129.9 25C130 22.5 131.5 20.6 133.9 19.8C134.3 19.7 134.5 19.3 134.9 19.1C134.6 18.9 134.3 18.6 133.9 18.5C132.5 18.1 131.2 17.5 130.2 16.4C129.6 15.7 129.1 15.8 128.6 16.3C128.3 16.6 128.1 16.9 128 17.2C127.1 19.2 127.6 20.7 129.5 21.8C129.8 22 130.1 22.3 130.1 22.6C130.1 23.4 129.7 23.9 128.9 24.3C128.4 24.5 127.9 25.1 127.7 25.6C127.2 26.7 126.5 27.8 127.7 28.9C127.8 29 127.8 29.4 127.7 29.6C127.6 29.7 127.2 29.9 127.1 29.8C126.8 29.7 126.4 29.4 126.3 29.2C126.1 27.9 125 27.3 124.1 26.6C123.8 26.3 123.6 25.8 123.3 25.4C123.2 25.2 123 25 122.8 24.8C121.3 26 121 28.9 122 30.3C122.1 30.5 122.1 30.8 122.2 31.1C121.9 31.1 121.4 31.2 121.2 31C120.9 30.7 120.6 30.3 120.5 29.9C120.3 29.3 120.2 28.7 120.2 28.1C120.2 27 119.2 27.1 118.6 26.6C118.4 26.4 117.8 26.6 117.5 26.9C116.6 27.5 116.3 28.5 116.2 29.6C116 32 116.6 32.5 118.5 32.2C123.8 31.3 129.1 30.5 134.3 29.6C135 29.5 135.8 29.3 136.6 29.1C135.8 26.5 136.2 24.3 137 22.2ZM27.4 14.3C26.6 14.1 26.6 14.7 26.5 15.3C26.1 19.2 25.7 23.2 25.3 27.1C25.1 28.9 24.8 30.7 24.5 32.4C24.4 33.3 24.7 33.6 25.6 33.6C26.3 33.6 27 33.6 27.7 33.7C28.5 33.8 28.7 33.6 28.8 32.8C29.2 29.2 29.6 25.6 30.1 22.1C30.4 20.1 30.8 18.1 31.2 16C31.3 15.6 31.4 15.1 30.8 15C29.7 14.7 28.6 14.5 27.4 14.3ZM144.9 5.59998C145.7 7.49998 146.8 8.9 148.2 10C149.8 11.1 151.6 12.2 153.3 13C155.9 14.3 158.5 15.3 160.7 17.2C161.1 17.5 161.4 17.8 161.9 18.1C162.6 16.4 163.2 14.8 163.9 13.2C164.3 12.4 164.1 12.1 163.3 11.9C160.1 11 157 10.1 153.8 9.20001C150.9 8.30001 147.8 7.69998 144.9 5.59998ZM61.1 47.5C66.9 49 72.9 49.4 78.8 50.6C78.1 49.6 77.3 48.6 76.5 47.7C75.3 46.5 74.1 45.4 72.9 44.3C72.1 43.6 71.3 43.6 70.3 43.9C68.3 44.5 66.3 44.9 64.4 45.5C63.1 45.9 62 46.4 61.1 47.5ZM146 58.4C145.5 59 144.7 59.2 144.1 58.6C143.7 58.2 143.3 57.5 143.2 56.9C143.1 56.2 142.9 55.8 142.2 55.7C141.9 55.6 141.7 55.4 141.5 55.3C140.8 54.9 140.4 55.1 140.4 56C140.4 57.1 141.1 58.2 142.1 58.6C142.4 58.7 142.8 58.8 143 59.1C143.3 59.6 143.7 59.6 144.2 59.5C147 59.3 149.8 59.1 152.7 58.9C153.3 58.9 153.5 58.6 153.5 58C153.5 57.3 153.7 56.6 153.9 56C154.3 54.8 153.9 53.9 152.7 53.7C152.4 53.6 152.1 53.4 151.7 53.4C151.2 53.3 150.6 53.2 150.2 53.4C149.6 53.7 149.1 54.2 148.7 54.6C147.6 55.9 147.7 56.9 148.9 58.1C149 58.2 149 58.4 149.1 58.6C149.1 58.7 149 58.8 149 58.9C148.5 58.7 147.9 58.7 147.7 58.4C146.5 57.1 146.8 55.7 147.6 54.3C145.6 53.1 145.3 53.1 144.7 54.4C144.4 55.2 144.3 56.2 144.4 57.1C144.6 57.7 145.5 58 146 58.4ZM103.8 45.4C103.3 44.6 102.8 44.1 102.4 43.4C101.9 42.4 101.3 42.3 100.4 43C98.5 44.4 98.4 47.1 100 48.8C100.1 48.9 100.2 49.2 100.2 49.4C100 49.5 99.7 49.6 99.5 49.6C99.1 49.4 98.8 49 98.4 48.7C98.1 48.5 97.8 48.2 97.5 48.2C94.3 48.1 92.5 50.1 93 53.2C93.1 53.5 93.4 54 93.8 54.1C94.4 54.3 95.1 54.4 95.8 54.5C96.4 54.6 96.7 54.3 96.8 53.7C96.9 52.6 97.5 51.8 98.3 51.2C99.2 50.6 100.3 50.2 101.3 49.7C101.6 49.6 102 49.3 102 49.1C102.2 47.7 102.5 46.3 103.8 45.4ZM142.9 59.6C141.3 59.5 140.3 58.9 139.5 57.8C139.2 57.4 138.3 57.2 137.6 57.3C136.5 57.3 135.3 57.5 134.2 57.7C133.4 57.8 132.6 58 131.8 58.2C131.7 58.2 131.6 58.4 131.5 58.6C131.2 58.9 131 59.3 130.6 59.5C129.9 60 129 60.3 128.3 60.7C127.9 61 127.6 61.4 127.1 61.8C130.6 63.2 139.2 62 142.9 59.6ZM135.1 10.2C134 10.3 133 10.3 131.9 10.3C131.3 10.3 130.9 10.6 130.6 11.2C129.3 14.3 130.7 16.8 134 17.6C134.5 17.7 134.8 17.6 134.9 17C135.2 15.5 136.1 14.5 137.4 13.8C138.4 13.3 138.9 12.6 138.8 11.4C138.8 11.2 138.8 11.1 138.9 10.9C139 10.3 138.8 10.1 138.2 10.1C137.2 10.2 136.1 10.2 135.1 10.2ZM60.1 10.6C60.4 12.2 62 14 63.4 14.2C63.8 14.3 64.3 14.5 64.7 14.7C66.5 15.6 68.4 16.4 70.4 16.6C71.1 16.7 71.5 16.4 72 16C72.8 15.3 73.7 14.7 74.5 14.1C74.7 13.9 74.9 13.8 75.2 13.7C70.1 12.7 65.2 11.7 60.1 10.6ZM94.9 29.2C94.8 27.9 94.7 26.7 94.5 25.5C94.5 25.2 94.3 24.9 94.1 24.7C93.5 24.2 92.9 23.8 92.2 23.4C91.9 23.2 91.5 23.1 91.2 23.2C90 23.6 89 24.2 88.4 25.4C87.1 28 88.8 30.3 90.9 31.4C91.1 31.5 91.6 31.5 91.8 31.4C92.9 30.7 93.9 29.9 94.9 29.2ZM40.3 29.8C39.9 29.3 39.6 28.8 39.2 28.3C37.3 25.8 38.2 21.2 42 21.1C42.2 21.1 42.6 20.7 42.6 20.5C42.6 20.1 42.5 19.6 42.3 19.4C41.3 18.8 40.9 18 40.9 16.9C40.9 15.5 40.9 15.5 39.5 15.5C39.3 15.5 39.1 15.4 38.9 15.5C38.6 15.7 38.2 15.9 38.1 16.2C37.6 20 37.1 23.9 36.6 27.8C36.5 28.9 36.6 29.9 36.6 30.9C37.8 30.6 39 30.2 40.3 29.8ZM102.1 25.2C101 24.7 100 23.9 99.4 22.8C99.3 22.6 99.1 22.4 98.9 22.4C97.9 22.2 95.8 23.7 95.6 24.7C95.1 27 95.8 29.1 97.4 30.8C97.6 31 98 31.1 98.2 31C99.4 30.4 100.5 29.8 101.7 29.1C101.9 27.9 102 26.6 102.1 25.2ZM104.9 33.4C105.3 32.5 104.7 32.1 104 31.6C103.6 31.3 103.1 31 102.8 30.6C102.4 30.1 101.9 30.1 101.4 30.2C99.7 30.6 98.3 32.1 98.2 33.5C98.1 35.4 99.4 37.4 101 38.1C101.6 38.3 101.9 38.2 102.3 37.8C102.8 37.2 103.4 36.6 104.1 36.3C105 35.9 105.3 35.6 104.9 34.6C104.9 34.3 105 33.8 104.9 33.4ZM118.3 35.7C117.6 35.5 116.9 35.3 116.3 35.1C115.7 34.9 115 34.6 114.4 34.4C113 33.8 111.4 34.3 111 35.8C110.7 36.9 110.7 38 110.8 39.2C110.9 40.1 111.6 40.5 112.4 40.8C113.1 41.1 113.7 41.1 114.3 40.5C114.7 40.1 115.4 40 116 39.7C116.3 39.5 116.7 39.2 116.7 38.9C116.9 37.6 117.3 36.6 118.3 35.7ZM76.9 14.5C76.5 14.6 76.1 14.7 75.8 14.9C74.7 15.6 73.6 16.3 72.6 17.1C71.6 18 71.6 18.5 72.6 19.5C74 20.9 75.7 21.1 77.6 21.1C78.2 21.1 78.6 20.9 78.7 20.2C78.9 19.1 79.6 18.3 80.6 17.7C80.9 17.5 81.1 17.3 81.4 17.1C81.1 16.8 80.9 16.5 80.8 16.3C80.6 16 80.5 15.8 80.4 15.5C80 14.4 79 14.1 78.1 14.8C76.5 16.1 76.5 18.8 78.1 20C78.2 20.1 78.2 20.2 78.3 20.3C77.6 20.7 77.2 20.6 76.7 20C75.9 19.1 75.7 18.1 76 17C76.2 16.2 76.5 15.5 76.9 14.5ZM97.9 45.6C98 45.2 98.1 45 98.1 44.7C98.5 43.3 99.4 42.3 100.8 41.8C101.4 41.6 101.7 41.4 101.7 40.8C101.6 40.1 101.9 39.4 100.9 39C100.2 38.8 99.5 38.2 98.9 37.7C98.3 37.1 97.8 37.1 97.1 37.4C95.2 38.3 94.4 40.3 95 42.2C95.5 43.7 96.4 44.8 97.9 45.6ZM110.9 11.8C110.9 11.8 110.8 11.8 110.7 11.8C108.8 12.1 107 12.4 105.1 12.7C104.8 12.8 104.5 13.1 104.4 13.4C103.6 15.8 104.4 17.8 106.5 19.1C106.9 19.4 107.2 19.3 107.5 18.9C108.1 18.2 108.8 17.6 109.4 16.9C109.6 16.7 109.9 16.5 109.9 16.3C110.4 14.9 110.6 13.4 110.9 11.8ZM110.4 28.9C108.7 29.5 107.1 30.1 106.3 32.2C105.5 34.2 106.3 36.3 108.4 37.4C109.3 37.8 109.4 37.7 109.6 36.8C109.9 35.3 110.5 34 112.2 33.4C112.5 33.3 112.8 33 113.1 32.8C112.5 32.2 111.9 31.8 111.4 31.2C111 30.4 110.8 29.7 110.4 28.9ZM92.1 53.6C92.2 52.4 92.3 51.4 92.3 50.4C92.3 50 92.1 49.6 92 49.2C91.6 48.4 91 47.6 90.9 46.7C90.8 45.9 90.5 45.6 89.7 45.8C89.5 45.9 89.3 45.9 89.1 45.9C87.5 46.2 86.4 47.7 86.4 49.8C86.4 51.8 86.9 52.6 88.7 52.8C89.1 52.8 89.5 53 89.9 53.1C90.5 53.3 91.3 53.5 92.1 53.6ZM59 40.9C59.3 40.3 59.4 39.8 59.8 39.5C61 38.6 61.2 37.5 61.1 36.2C61.1 35.9 61.2 35.5 61.2 35.2C61.2 35 61.1 34.7 61 34.5C60.8 34.1 60.5 33.7 60.2 33.3C60 33.1 59.9 32.8 59.7 32.7C58.9 32.4 57.2 33.1 56.5 33.9C55.7 34.9 55.6 36.3 56.1 37.2C56.7 38.3 57.7 38.9 58.7 39.5C58.9 39.6 59 39.9 59.1 40.1C58.8 40.1 58.5 40.3 58.4 40.2C57.6 39.8 56.9 39.3 56.2 38.7C55.5 38.1 54.5 38.2 53.8 39.3C55.5 39.9 57.2 40.4 59 40.9ZM102.7 40.3C102.6 40.3 102.5 40.4 102.4 40.4C102.8 41.4 103.2 42.5 103.6 43.5C103.9 44.1 104.4 44.6 105.2 44.5C106.1 44.4 106.3 43.9 106.5 43.1C106.8 41.8 107.4 40.6 108.8 40.1C109.1 40 109.4 39.7 109.7 39.5C109.4 39.1 109.2 38.7 108.8 38.5C107.9 37.9 107 37.4 106 36.9C105.7 36.7 105.2 36.6 104.9 36.7C103.4 37.3 102.6 38.5 102.7 40.3ZM78.6 48.2C79.2 46.5 80.4 45.7 82.1 45.7C82.2 45.7 82.5 45.3 82.5 45.1C82.6 43.9 83.1 42.6 81.7 41.8C81.5 41.7 81.4 41.3 81.3 41.1C81.2 40.9 81 40.7 80.8 40.7C79.5 40.6 78.3 40.5 77.3 41.5C75 44.3 76.1 46.2 78.6 48.2ZM99 21.5C98.8 20.8 98.8 20 98.5 19.5C97.9 18.5 97 17.7 96.2 16.7C96 16.5 95.7 16.1 95.6 16.2C94.9 16.3 94 16.4 93.4 16.9C91.3 18.7 91.8 22.3 94.2 23.6C94.4 23.7 94.8 23.7 94.9 23.6C95.9 22.3 97.2 21.7 99 21.5ZM78.3 35.7C78.3 37.2 79 38.3 80.3 38.8C80.9 39 81.2 38.9 81.4 38.3C81.5 37.9 81.7 37.6 81.9 37.3C82.5 36.1 83.6 35.6 84.9 35.5C85.9 35.5 85.7 34.6 85.8 34.1C86 33.5 85.5 33.5 85.1 33.3C84.3 33 83.7 32.5 82.9 32.1C82.5 31.9 81.9 31.6 81.5 31.7C79.5 31.8 78.3 33.3 78.3 35.7ZM79.6 21.8C79.6 22.8 80.3 23.6 81.2 24.3C81.9 24.9 82.6 25.1 83.4 24.4C83.7 24.2 84.1 24.1 84.4 23.9C84.7 23.7 85 23.3 85.1 23C85.3 22 85.4 21.1 85.6 20.1C85.7 19.4 84.7 17.9 84 17.8C81.7 17.5 79.7 19.3 79.6 21.8ZM99.9 20.1C99.9 21.8 100.6 23.1 102.1 23.9C102.4 24 102.9 24 103.1 23.9C103.8 23 104.9 22.8 105.9 22.5C106.2 22.4 106.6 22.1 106.7 21.9C106.7 21.4 107.2 20.7 106.4 20.2C105.2 19.4 104.1 18.5 103.5 17.1C103.3 16.6 102.9 16.5 102.4 16.7C100.7 17.3 99.9 18.4 99.9 20.1ZM107.8 22.5C107.6 24 108.4 25.3 109.5 26.3C110.2 27 110.7 26.9 111.1 26C111.2 25.7 111.4 25.3 111.6 25C112.6 24 112.9 22.9 112.7 21.4C112.6 20.5 112.7 19.7 111.7 19.3C111.3 19.1 111 18.7 110.8 18.3C110.4 17.7 110.1 17.8 109.6 18.2C108.3 19.3 107.7 20.7 107.8 22.5ZM110.2 28.2C109.4 27.5 108.5 26.9 107.8 26.1C107.3 25.5 107 24.6 106.6 23.9C106.5 23.7 106.2 23.3 106.1 23.3C105.4 23.6 104.4 23.7 103.9 24.2C102.6 25.8 102.4 27.7 103.2 29.5C103.5 30.1 104.3 30.5 104.9 31C105 31.1 105.4 30.9 105.6 30.7C106.4 29.4 107.6 28.7 109 28.4C109.6 28.5 110 28.3 110.2 28.2ZM117.2 11.4C117.1 11.3 117.1 11.2 117 11.1C115.9 11.2 114.9 11.2 113.8 11.3C112.6 11.4 111.9 12.2 111.7 13.2C111.4 14.2 111.3 15.3 111.4 16.3C111.5 17.1 112 17.8 112.4 18.5C112.8 19 113.2 19 113.7 18.5C114.5 17.7 115.4 17.1 116.2 16.4C116.4 16.2 116.6 15.9 116.6 15.8C116 14.2 116.1 12.7 117.2 11.4ZM67.6 37.1C66.9 36 66.5 34.7 66.9 33.2C67 33 66.7 32.6 66.5 32.5C65 32.1 62.7 33.3 62.3 34.8C62.1 35.6 62 36.4 62 37.2C62 38.6 63.4 40.1 64.8 40.2C65 40.2 65.4 40.1 65.5 39.9C66.2 39.1 66.8 38.2 67.6 37.1ZM88.1 30.6C87.4 29.3 86.6 27.9 87 26.3C87 26.1 86.8 25.9 86.6 25.7C86.4 25.5 86 25.3 85.8 25C85.3 24.4 84.8 24.4 84.3 24.8C84 25 83.7 25.3 83.4 25.6C82.2 26.7 82 28.1 82.4 29.5C82.8 30.9 83.7 31.8 85.1 32.2C85.5 32.3 86 32.3 86.3 32.1C87 31.7 87.5 31.1 88.1 30.6ZM74.2 34.5C73.6 33.5 73.1 32.7 72.6 31.8C72.5 31.6 72.4 31.4 72.3 31.4C71.2 31.2 70.1 30.8 69.1 31.5C68 32.3 67.4 34.2 67.9 35.5C68.4 36.8 70.2 38.1 71.4 38C71.6 38 71.8 37.8 71.9 37.6C72.3 36.2 73.1 35.1 74.2 34.5ZM106.2 45.1C105.7 45.3 105.3 45.5 104.9 45.7C103.2 46.9 102.6 49.3 103.5 51.3C103.8 52 104.3 52.6 104.8 53.2C104.9 53.4 105.6 53.4 105.7 53.3C106.6 52.2 107.8 51.8 108.9 51.5C108.9 50.6 108.9 49.8 108.9 49C108.9 48.8 108.6 48.5 108.3 48.4C107.3 47.8 106.4 47.2 106.4 45.8C106.4 45.7 106.3 45.5 106.2 45.1ZM121.4 51.9C121.3 51 121.2 50.1 121 49.2C119.8 49 118.7 48.6 118.1 47.4C118 47.2 117.5 47.2 117.3 47.3C115.7 47.8 114.7 49.6 115.1 51.2C115.4 52.6 117.3 54 118.8 53.8C119 53.8 119.2 53.7 119.3 53.6C120 53 120.7 52.4 121.4 51.9ZM97.4 36.2C97.4 34.8 97.4 33.5 97.4 32.2C97.4 32.1 97.4 32 97.3 31.9C96.2 30.1 95.5 29.9 93.8 31.1C93.7 31.2 93.6 31.2 93.6 31.3C91.6 32.7 91.7 35.9 93.9 37.1C94.3 37.4 95.1 37.4 95.6 37.2C96.2 37 96.9 36.5 97.4 36.2ZM79.6 39.7C77.9 38.7 77.1 37.4 77.1 35.7C77.1 35 76.8 34.8 76.2 34.9C74.4 35.1 73.1 36.3 72.8 38C72.5 39.7 73.6 41.8 75 42.4C75.2 42.5 75.7 42.3 75.8 42.1C76.7 40.7 77.8 39.8 79.6 39.7ZM129.2 37.8C127.6 37.6 126.2 37.3 124.9 37.2C124.6 37.2 124.3 37.4 124.1 37.6C121.9 39.8 122.6 42.7 124.9 43.7C125.4 43.9 125.7 44 126.1 43.5C126.5 43 127.1 42.7 127.5 42.3C127.7 42.1 128 41.8 127.9 41.6C127.8 40.2 128 39 129.2 37.8ZM112.7 41.8C112.3 41.6 111.6 41.4 111.1 41.1C110 40.4 108.9 40.6 108.2 41.8C107.4 43 107.3 44.3 107.4 45.6C107.4 46.6 108 47.4 109 47.7C109.2 47.8 109.5 47.7 109.7 47.6C110.7 47 111.6 46.3 112.5 45.7C112.4 44.5 112.5 43.2 112.7 41.8ZM128.5 51.4C128.5 51.3 128.4 51.2 128.4 51C128.4 50.9 128.3 50.7 128.3 50.6C128.3 49.5 127.9 48.8 126.8 48.4C126.4 48.3 126.2 47.7 125.8 47.4C125.6 47.2 125.3 46.9 125.1 47C124 47.2 123 47.6 122.5 48.7C121.7 50.6 122.8 52.8 124.8 53.3C125.1 53.4 125.5 53.3 125.7 53.2C126.7 52.7 127.6 52.1 128.5 51.4ZM136.8 44.9C135.6 45 134.8 45.3 134.3 46.2C133.2 48 134.2 51.1 136.3 51.4C137.3 51.6 138.4 50.6 139.5 50.2C139.6 50.2 139.6 50 139.6 49.9C139.7 49.6 139.8 49.2 139.9 48.9C140.2 48.3 140 48.1 139.5 47.9C138.5 47.5 137.8 46.7 137.5 45.6C137.3 45.2 136.9 45 136.8 44.9ZM90.7 45.1C90.7 45 90.7 44.9 90.8 44.9C90.5 44.7 90.2 44.6 89.9 44.4C88.9 43.7 88.2 42.9 88.1 41.6C88 40.4 87.5 40.1 86.4 40.6C85.2 41.2 84.1 42.1 83.8 43.6C83.6 44.9 83.4 46.2 84.2 47.4C84.8 48.2 85.4 48.1 85.9 47.3C86.7 46 87.8 45.1 89.5 45.2C89.9 45.1 90.3 45.1 90.7 45.1ZM120.5 26.3C120.9 25.7 121.1 24.9 121.6 24.5C122.5 23.8 122.6 23 122.5 22.1C122.5 21.8 122.6 21.4 122.6 21.1C122.5 20.8 122.4 20.4 122.1 20.4C121.2 20.1 120.8 19.4 120.5 18.6C120.4 18.4 120.3 18.1 120.3 17.8C119.1 18.2 117.9 20.3 117.8 22C117.8 23.6 119.1 25.8 120.5 26.3ZM132.1 56.8C131.8 56 131.7 55.2 131.2 54.6C130.8 54 130.1 53.6 129.5 53.1C129.5 53.1 129.5 53 129.4 53C129 52.9 128.6 52.7 128.3 52.9C126.1 53.9 125.3 55.9 126.2 58.3C128.3 58.1 130.6 58.9 132.1 56.8ZM74.9 44.6C75.2 44 75.2 43.7 74.6 43.3C73.8 42.6 72.8 41.9 72.4 41C71.8 39.5 70.9 38.8 69.4 38.6C68.2 38.4 67.3 38.5 66.9 39.7C66.6 40.5 66.5 41.6 66.6 42.5C66.7 43.4 67.2 43.6 68.2 43.4C68.9 43.2 69.6 43 70.4 42.8C71.3 42.5 72.2 42.6 73 43.2C73.6 43.6 74.2 44.1 74.9 44.6ZM125.6 10.6C124.9 10.6 124.3 10.6 123.7 10.6C122.5 10.7 121.2 10.8 120 10.8C118.9 10.8 118.1 11.3 117.6 12.3C116.9 13.7 117.1 15.3 118.2 16.5C118.4 16.8 119 17 119.2 16.9C119.6 16.7 120.3 16.2 120.3 15.9C120.2 13.2 122.5 12.3 124.8 11.7C125.5 11.6 125.6 11.3 125.6 10.6ZM140.2 20.6C140 20.7 139.8 20.8 139.7 20.9C137.6 22.4 137 25.5 137.5 27.5C137.6 28 138.2 28.6 138.6 28.6C139.7 28.6 140.7 28.3 141.7 28.2C141.8 26.9 141.9 25.8 142 24.7C140.3 23.9 140.5 22.2 140.2 20.6ZM94.1 38.6C93.5 38.2 92.9 37.9 92.4 37.5C91.8 36.9 91.3 37 90.7 37.4C89.4 38.3 88.9 39.6 88.9 41.2C88.9 42.5 89.6 43.3 90.6 43.9C90.8 44 91.3 43.9 91.4 43.7C91.9 42.8 92.7 42.3 93.6 42.2C93.8 40.9 94 39.8 94.1 38.6ZM118.8 45.8C118.9 46.2 119 46.8 119.3 47.3C119.8 48.1 121.3 48.6 121.7 48C122.4 46.9 123.5 46.5 124.7 46.3C125.2 46.2 125.4 45.9 125.3 45.5C125.1 45.1 124.8 44.7 124.4 44.5C123.4 44 122.6 43.4 122.2 42.4C121.9 41.7 121.4 41.7 120.9 42C119.4 42.8 119 44.1 118.8 45.8ZM145.6 17.4C146.8 16.9 147.8 16.4 148.8 16C149 15.9 149.1 15.7 149.2 15.4C149.5 14.5 149.7 13.6 149.9 12.5C149.2 12 148.3 11.4 147.5 10.9C146.3 10 145.4 10.3 145.1 11.8C144.9 13 144.8 14.2 144.9 15.4C144.9 16.1 145.3 16.7 145.6 17.4ZM145.3 52C145.1 50.5 145.5 48.9 143.6 48.4C143.4 48.3 143.2 48.1 143 47.9C142.6 47.4 142.3 47.4 141.8 47.8C140.5 48.8 139.8 51.9 140.9 53.2C141.4 53.8 142.2 54.2 142.9 54.6C143 54.7 143.3 54.5 143.4 54.4C144 53.7 144.5 53 145.1 52.3C145.2 52.3 145.3 52.1 145.3 52ZM69 24.9C69.7 23.8 70.8 23.3 72.1 23.2C73 23.1 72.9 22.2 73.2 21.7C73.3 21.6 72.9 21.2 72.7 20.9C72.2 20.2 71.6 19.5 71.2 18.6C71 18.1 70.7 18.1 70.3 18.1C69.2 18.3 68.5 19 68.1 19.9C67.3 21.4 66.9 23.9 69 24.9ZM44.4 24.8C45.4 24 46.2 23.1 47.2 22.8C48.2 22.4 48.7 22 48.9 20.9C49 20.3 49 20 48.5 19.6C48.3 19.4 48.1 19.1 47.9 18.9C47.2 17.7 46.4 17.5 45.3 18.3C43.6 19.4 43 21.4 43.8 23.3C43.9 23.9 44.3 24.5 44.4 24.8ZM113.7 21.3C113.7 22.7 114 24 115.3 24.8C115.8 25.1 116.2 25.4 116.7 25.6C116.9 25.7 117.2 25.7 117.5 25.8C117.5 25.5 117.7 25.1 117.5 24.9C116.3 22.8 116.7 20.8 117.8 18.8C118 18.4 118.4 18 117.8 17.6C117.3 17.2 116.8 16.7 116.1 17.2C114.8 18.2 113.7 19.5 113.7 21.3ZM86.6 35.4C86.5 35.4 86.4 35.5 86.4 35.5C86.8 36.4 87.1 37.3 87.5 38.2C87.8 38.8 88.4 38.9 88.9 38.1C89.2 37.7 89.5 37.2 89.9 37.1C91 36.6 91.2 35.9 91.1 34.7C91 33.3 90.8 32.4 89.5 31.8C88.9 31.5 88.5 31.4 88 31.9C87.1 32.7 86.5 33.9 86.6 35.4ZM114.9 47.6C113.3 46.3 112 46.3 110.7 47.6C109.4 48.9 109.5 50.5 111 52.2C111.9 53.3 112.9 53.3 114.4 52.1C113.8 50.6 113.9 49.1 114.9 47.6ZM91.2 18.1C89.6 17.8 88.6 18 87.7 18.7C86.4 19.8 85.8 22.3 86.3 23.9C86.4 24.2 86.7 24.5 86.9 24.7C87 24.8 87.4 24.8 87.5 24.6C88.4 23.2 89.8 22.6 91.4 22.3C91.2 21.6 91 20.9 91 20.2C91 19.6 91.1 18.9 91.2 18.1ZM143.4 15.4C141.3 15.8 140.4 22.2 142.4 23.9C142.9 23.5 143.4 22.9 143.9 22.6C145.1 22.1 145.4 21.3 145.2 20.2C145.1 19.6 145.4 19 145.2 18.5C144.7 17.4 144.1 16.5 143.4 15.4ZM125.1 12.5C123.7 13.3 121.8 13.5 121.5 15.4C121.2 17 121.3 18.7 122.8 19.9C123.7 18.6 124.8 17.9 126.3 17.5C126.5 17.5 126.7 16.7 126.5 16.6C125.4 15.5 125.1 14.2 125.1 12.5ZM115.6 32.3C114.7 30.1 115.2 28.2 116.4 26.6C115.3 25.9 114.2 25.2 113.1 24.5C111.8 25.3 111 28.8 112.1 30.2C112.8 31.1 113.8 31.8 114.6 32.5C114.9 32.6 115.2 32.4 115.6 32.3ZM143.1 45.1C143.2 46.1 143.2 47.2 144.3 47.8C144.9 48.2 145.4 48.3 145.9 47.6C146.2 47.2 146.8 46.9 147.3 46.5C147.5 46.3 147.8 46 147.9 45.8C148.1 45 148.2 44.2 148.4 43.4C148.5 42.9 148.4 42.6 147.9 42.6C147.3 42.5 146.8 42.5 146.2 42.4C144.3 42.1 143.1 43.1 143.1 45.1ZM129.3 23.1C127.5 22.1 126.3 20.8 126.5 18.7C124.9 19 123.8 20.2 123.7 21.6C123.5 24 124.4 26 126 26.5C126.5 25 127.4 23.7 129.3 23.1ZM97.6 54.7C97.8 54.8 98 54.9 98.2 55C100.3 55.3 102.3 55.7 104.4 55.9C104.7 55.9 105 55.7 105.3 55.6C105.1 55.2 105.1 54.7 104.8 54.6C103.7 53.9 102.9 53 102.6 51.8C102.3 50.8 101.8 50.8 101 51.1C99.2 51.6 98.1 52.8 97.6 54.7ZM103.4 13C101.6 13.1 100 13.3 98.4 13.4C98.3 13.4 98.1 13.4 98 13.4C97.7 13.6 97.3 13.8 97.2 14.1C96.4 15.4 97.2 17.9 98.6 18.5C98.7 18.6 99.1 18.4 99.2 18.2C99.9 16.9 100.9 16.2 102.3 15.9C102.5 15.8 102.9 15.7 102.9 15.5C103.1 14.6 103.2 13.9 103.4 13ZM113.2 44.3C113.4 44.8 113.6 45.4 114 45.7C114.9 46.6 116 46.9 117.2 46.3C117.7 46 118.6 43.2 118.3 42.8L118.2 42.7C117.8 42.2 117.4 41.7 117.1 41.1C116.7 40.4 116.3 40.3 115.7 40.7C114.2 41.5 113.4 42.6 113.2 44.3ZM124.8 58.1C124.8 57.1 124.6 56.3 124.8 55.5C125 54.7 124.9 54.3 124 54.1C123.6 54 123.2 53.7 122.9 53.4C122 52.7 121.4 52.7 120.6 53.5C120.1 54 119.7 54.7 119.4 55.3C118.9 56.5 119.4 57.4 120.6 57.6C122.1 58 123.6 58 124.8 58.1ZM59.2 22C59.2 22.1 59.2 22.5 59.3 22.8C59.5 23.8 59.9 23.9 60.9 23.6C62.2 23.3 63.3 23 63.9 21.7C63.9 21.6 64.1 21.5 64.2 21.5C64.7 21.2 64.6 21 64.3 20.5C64 20 63.7 19.3 63.6 18.7C63.5 18.2 63.3 18 62.8 17.9C60.8 17.9 59.2 19.5 59.2 22ZM85.5 52.5C85.4 51.3 85.4 50.4 85.2 49.5C85.2 49.3 84.9 49.1 84.7 48.9C84.1 48.3 83.5 47.7 82.9 47.2C82.6 47 82.3 46.7 82 46.7C80.8 46.6 79.9 47.3 79.6 48.5C79.4 49.4 80.1 51 81.1 51.4C82.5 51.8 83.9 52.1 85.5 52.5ZM58.3 25.5C58.4 25.6 58.4 25.7 58.5 25.8C58.8 25.7 59.2 25.6 59.3 25.4C59.5 25.1 59.6 24.6 59.4 24.4C58.6 23.6 58.4 22.6 58.5 21.6C58.5 21 58.2 20.7 57.6 20.8C56.2 20.9 55.1 21.7 54.6 23C54 24.2 53.9 25.4 54.9 26.6C55.3 27.1 55.5 27.2 56.1 26.7C56.6 26.2 57.5 25.9 58.3 25.5ZM123 36.7C122.3 36.6 121.5 36.4 120.6 36.2C119.1 35.8 118.4 36.2 117.9 37.6C117.7 38.3 117.4 39.1 117.6 39.8C117.8 40.6 118.4 41.3 118.8 42C119.8 41.4 121 41.1 121.6 40.2C122.4 39.3 122.5 38 123 36.7ZM54.9 37.5C54.9 36.5 54.6 35.4 55 34.7C55.6 33.5 55.4 32.6 54.9 31.5C54.5 30.5 54.1 30.3 53.2 30.7C51.2 31.6 50.5 33.7 51.5 35.6C52.1 36.8 53.9 37.7 54.9 37.5ZM140.1 41C138.5 40.6 136.9 40.2 135.2 39.8C134.3 39.6 133.8 39.9 133.5 40.7C133.2 41.4 133 42.2 133.1 42.9C133.2 43.5 133.7 44.6 133.9 44.6C135.1 44.5 136.4 44.4 137.4 43.8C138.5 43.1 139.2 42 140.1 41ZM137.6 21.2C138.5 20.5 139.4 20 140 19.3C140.4 18.9 140.7 18.1 140.6 17.7C140.1 16.5 139.4 15.4 138.8 14.2C135.5 15.5 134.9 19.9 137.6 21.2ZM42.1 22.1C41 22.3 40.2 22.6 39.7 23.4C38.8 24.9 39.1 27.1 40.4 28.3C40.5 28.4 41 28.4 41.1 28.3C41.9 27.4 42.7 26.9 43.9 26.9C44.1 26.9 44.4 26.7 44.5 26.6C44.6 26.4 44.4 26.1 44.3 25.9C43.7 24.8 43.2 23.7 42.6 22.6C42.5 22.5 42.2 22.3 42.1 22.1ZM76.4 33.5C76.6 33.5 76.8 33.6 76.9 33.5C77.4 33.1 77.9 32.7 78.2 32.2C78.3 32.1 77.9 31.6 77.8 31.3C77.4 30.4 77 29.4 76.5 28.5C76.3 28.1 76.2 27.6 75.9 27.5C75.4 27.4 74.7 27.4 74.4 27.7C73.2 28.5 73 30.1 73.7 31.9C74.2 33.1 74.9 33.5 76.4 33.5ZM81.8 25.9C81.2 25.5 80.7 25.2 80.3 24.9C79.6 24.3 79.1 24.5 78.6 25.1C77.6 26.2 77.6 27.5 77.8 28.8C77.9 29.4 78.2 30 78.6 30.5C78.8 30.8 79.3 31 79.7 31C80.3 31 80.9 30.7 81.5 30.5C81.1 29 81 27.5 81.8 25.9ZM92 16.7C91.9 16.6 91.9 16.5 91.8 16.5C90.6 16 89.5 15.5 89.3 14C89.3 13.9 88.9 13.7 88.7 13.7C87.7 13.7 86.7 13.8 85.7 13.9C85.5 13.9 85.3 14.1 85.2 14.3C84.8 15.3 85.5 17.7 86.4 18.5C89.2 16.8 89.5 16.7 91.6 17.6C91.7 17.3 91.8 17 92 16.7ZM148.5 24.1C148.8 23.5 149 22.9 149.3 22.4C149.6 21.9 150.2 21.4 150.5 20.9C150.6 20.7 150.6 20.3 150.5 20C150.1 19.2 149.7 18.4 149.2 17.6C149.1 17.4 148.7 17.1 148.6 17.1C147.7 17.3 146.8 17.7 146.5 18.6C146 20.4 146.3 22.8 148.5 24.1ZM41 31.1C41 32.7 42.1 33.5 43.6 32.9C43.9 32.8 44.3 32.6 44.7 32.7C45.8 32.8 45.6 31.8 45.9 31.3C46.2 30.8 46 30.5 45.6 30.1C45.1 29.6 44.7 29 44.5 28.4C44.3 27.6 43.9 27.6 43.3 27.8C42.1 28.1 41 29.7 41 31.1ZM142.8 28C144.7 27.7 146.6 27.4 148.4 27.2C148.4 26.6 148.4 26.1 148.4 25.7C148.4 25.5 148.2 25.3 148.1 25.1C147.5 24.5 146.8 23.9 146.1 23.3C145.9 23.1 145.4 23 145.2 23.1C143.9 23.7 143.1 24.6 143 26C142.9 26.6 142.8 27.2 142.8 28ZM144.3 10.2C143.1 10.2 141.8 10.2 140.5 10.2C140.3 10.2 139.9 10.5 139.9 10.7C139.8 11.7 139.7 12.7 139.9 13.7C140.1 14.6 140.6 15.4 140.9 16.3C141.8 15.5 142.6 14.9 143.3 14.3C143.4 14.2 143.6 13.9 143.6 13.7C143.9 12.7 144.1 11.5 144.3 10.2ZM118.2 54.9C117.2 54.4 116.3 53.9 115.3 53.4C115.1 53.3 114.7 53.2 114.5 53.4C113.8 54 113 54.6 112.5 55.4C111.9 56.4 112.4 57.1 113.6 57.3C114.7 57.4 115.8 57.5 116.9 57.6C117.3 57.6 117.7 57.6 118.1 57.6C118.2 56.5 118.2 55.7 118.2 54.9ZM154.6 43.6C152.9 43.4 151.4 43.2 149.9 43.1C149.8 43.1 149.5 43.3 149.5 43.5C148.8 45.3 148.8 46.9 150.8 48.1C151.5 48.5 153 47.9 153 47.1C152.9 45.8 153.5 44.8 154.6 43.6ZM148.5 53.5C149.2 52.9 150 52.5 150.3 52C150.6 51.3 150.7 50.2 150.4 49.5C150.1 48.8 149.3 48.3 148.7 47.7C148.7 47.7 148.7 47.7 148.6 47.6C148.4 47.1 148.1 47.1 147.6 47.4C145.7 48.6 145.7 50.6 146.7 52.1C147.1 52.7 147.8 53 148.5 53.5ZM74.2 26.8C73.6 25.9 73.2 25.2 72.7 24.5C72.6 24.3 72.2 24.2 71.9 24.2C70.3 24.2 68.8 26.5 69.4 28C69.8 29 70.3 30 71.5 30.1C71.8 30.1 72.3 29.9 72.3 29.7C72.6 28.5 73.2 27.4 74.2 26.8ZM96.6 47.3C97 47.3 97.2 47.4 97.4 47.3C97.6 47.2 97.8 47.1 98 47C97.9 46.8 97.8 46.5 97.6 46.4C96.3 45.9 95.4 45 94.7 43.8C94.2 43 93.7 42.9 93 43.5C91.8 44.5 91.6 47 92.5 48.2C92.9 48.7 93.2 48.8 93.7 48.4C94.6 47.6 95.6 47.3 96.6 47.3ZM111.2 56.9C111.2 56.5 111.3 56.3 111.3 56.1C111.5 54.9 111.2 54 110.3 53.2C109.4 52.2 109.2 52.2 108 52.8C106.7 53.4 106.2 54.3 106.4 55.7C106.4 55.9 106.6 56.2 106.7 56.3C108.2 56.4 109.7 56.6 111.2 56.9ZM53.9 21.9C55 20.9 56.2 19.8 57.7 19.9C57.5 19.2 57.2 18.6 57.1 17.9C57 17.3 57.2 16.6 57.3 15.9C55.8 15.5 54.3 16.1 53.5 17.4C52.9 18.6 53 20.8 53.9 21.9ZM45.3 27.8C45.6 28.3 45.9 28.9 46.4 29.3C46.7 29.5 47.3 29.2 47.8 29C48 29 48.1 28.8 48.3 28.8C49 28.7 49.2 28.2 49.4 27.6C49.8 26.6 49.9 25.9 49 25.2C48.9 25.1 48.8 24.8 48.7 24.6C48.2 23.3 48 23.2 46.8 24C46.5 24.2 46.1 24.5 46 24.9C45.8 25.8 45.6 26.7 45.3 27.8ZM132.5 46.8C131.1 46.7 129.8 47.4 129.4 48.5C128.9 49.8 129.5 51.9 130.6 52.6C131 52.9 131.3 53 131.7 52.4C132.1 51.8 132.6 51.4 133.1 50.9C133.3 50.7 133.5 50.4 133.4 50.2C133.2 49.2 132.8 48.1 132.5 46.8ZM46.3 33.3C46.5 33.8 46.6 34.5 47 35.2C47.3 35.7 47.7 35.8 48.3 35.5C49.5 35 50.5 34.5 50.2 33C50.2 32.9 50.3 32.7 50.3 32.6C50.3 32.4 50.3 32.1 50.2 31.9C50 31.3 49.6 30.8 49.5 30.2C49.3 29.4 48.9 29.4 48.3 29.8C47 30.5 46.5 31.7 46.3 33.3ZM55.5 30.2C55.6 30.5 55.7 31.2 55.9 31.8C56.1 32.3 56.4 32.5 57 32.2C57.6 32 58.4 31.9 59 31.7C59.3 31.6 59.7 31.5 59.7 31.3C59.8 31 59.8 30.5 59.6 30.3C58.7 29.5 58.6 28.5 58.7 27.4C58.8 26.3 58.5 26.1 57.5 26.5C56.3 27.1 55.5 28.4 55.5 30.2ZM31.3 26.4C31.3 26.3 31.3 26.1 31.2 26C31.5 25.9 31.8 25.7 32.1 25.7C32.8 25.6 33.5 25.7 34.2 25.7C35.5 25.7 35.8 25.2 35.4 23.7C34.3 23.7 33.1 23.7 31.9 23.7C31.7 23.7 31.2 23.9 31.2 24.1C31 25.5 30.8 27 30.6 28.4C30.8 28.5 30.9 28.5 30.9 28.5C31.9 28.5 32.8 28.5 33.8 28.5C35.2 28.5 35.4 28.2 35.2 26.6C34.5 26.6 33.9 26.6 33.2 26.6C32.6 26.6 31.9 26.5 31.3 26.4ZM86.9 39.4C86.5 38.4 86.1 37.6 85.7 36.7C85.6 36.4 85.3 36.1 85 36.1C83.3 35.8 81.7 37.8 82.2 39.5C82.2 39.6 82.3 39.8 82.2 39.9C81.7 40.6 82.2 41.1 82.6 41.6C82.7 41.7 83.2 41.8 83.3 41.6C84.4 40.6 85.6 39.8 86.9 39.4ZM79 23.6C79.1 23.6 79.1 23.7 79.2 23.7C79 23.3 78.9 22.9 78.7 22.5C78.6 22.3 78.3 22.1 78 22.1C77 22 76 22 75.1 21.8C74.4 21.7 74.1 22 73.9 22.5C73.1 24.5 74.8 26.2 76.4 26.4C77.3 25.5 78.1 24.5 79 23.6ZM50.1 28.9C50.2 29.5 50.3 30.1 50.5 30.6C50.7 31.2 51 31.3 51.5 30.9C52.2 30.3 53 29.8 54 29.8C54.2 29.8 54.5 29.6 54.6 29.4C54.8 28.7 55.1 28.1 54.3 27.4C53.8 27 53.5 26.4 53.2 25.8C53 25.2 52.7 25.2 52.2 25.4C51 26 50.2 27.3 50.1 28.9ZM151.5 19.2C152.3 17.1 153.9 16.1 156.1 15.8C156.1 15.6 156.1 15.5 156 15.5C154.4 14.7 152.8 13.9 151.2 13.2C151.1 13.1 150.7 13.3 150.6 13.5C149.6 15.1 150 17.9 151.5 19.2ZM40.1 30.9C37.8 31.1 36.3 32.4 36 34C35.9 34.5 36 34.8 36.6 34.8C38 35 39.4 35.2 40.7 35.4C40.9 35.4 41.3 35.1 41.5 34.8C41.6 34.5 41.7 33.9 41.5 33.8C40.6 33.1 40 32.2 40.1 30.9ZM143.7 42C143.4 41.9 143.2 41.7 143.1 41.8C141.7 42 140.3 42.1 139.2 43.3C138.4 44.1 138.3 45.1 138.8 45.9C139.4 46.9 140.8 47.5 141.7 47C142 46.9 142.3 46.4 142.2 46.1C142.1 44.6 142 43.1 143.7 42ZM49.4 22.8C49.5 23.4 49.5 23.8 49.6 24.2C49.9 25.4 50.3 25.5 51.3 25C51.6 24.8 51.9 24.7 52.3 24.6C53.1 24.3 53.5 23.3 53.2 22.5C52.9 21.8 52.6 21 52.4 20.2C52.1 19.2 51.9 19 50.9 19.5C50.6 19.7 50.3 20 50.1 20.3C49.8 21.2 49.6 22.1 49.4 22.8ZM68.5 26C66.9 25.8 65.5 26.5 65.1 27.6C64.7 28.7 65.2 30.2 66.2 30.8C67.4 31.6 68.2 31.4 69.6 30.1C68.5 29 68.1 27.6 68.5 26ZM133.4 39.2C132.3 38.9 131.4 38.6 130.4 38.3C130.2 38.2 129.9 38.4 129.7 38.6C128.9 39.3 128.7 40.8 129.3 42.1C129.9 43.4 131 44 132.3 43.8C132.1 42.2 132.3 40.7 133.4 39.2ZM133.1 45.9C133.1 45.8 133.2 45.6 133.2 45.5C132.7 45.3 132.3 45.1 131.8 45C130.6 44.8 129.6 44.3 128.8 43.4C128.6 43.2 128 43.1 127.8 43.3C126.9 43.7 126.3 44.6 126.4 45.5C126.5 46.3 127.1 47 127.7 47.6C128 48 128.5 47.9 128.9 47.4C129.8 46.3 130.9 45.7 132.4 45.9C132.6 46 132.8 45.9 133.1 45.9ZM155.6 16.9C154.6 16.9 153.1 18 152.7 19.1C152.2 20.6 152.5 22.7 153.3 23.4C153.7 22.8 154.1 22.1 154.6 21.6C155.1 21.1 155.9 20.8 156.4 20.4C156.1 19.2 155.9 18.1 155.6 16.9ZM60.3 29.5C60.3 29.4 60.2 29.4 60.2 29.3C61.3 28.8 62.5 28.4 63.6 27.9C64.2 27.6 64.1 27.3 63.8 26.8C63.5 26.3 63.2 25.8 63 25.2C62.8 24.2 62.4 24 61.5 24.4C60 25 59.1 28.1 60 29.4C60.1 29.4 60.2 29.5 60.3 29.5ZM129.7 10.3C129 10.3 128.1 10.4 127.2 10.5C127 10.5 126.6 10.8 126.6 11.1C126.2 12.5 126 14 126.8 15.3C126.9 15.5 127.3 15.9 127.4 15.8C128 15.3 128.9 14.9 129.1 14.3C129.4 13.1 129.5 11.8 129.7 10.3ZM53.8 15.7C53.8 15.7 53.7 15.6 53.6 15.6C52.4 15.6 51.2 15.6 50 15.6C48.4 15.6 48 16.1 48.5 17.7C48.6 18.1 48.8 18.4 49 18.8C49.2 19.2 49.5 19.3 50 19C50.5 18.7 51.2 18.6 51.7 18.4C52 18.3 52.3 18.2 52.5 18C52.9 17.4 53.4 16.6 53.8 15.7ZM158.1 26.2C157.8 25.3 157.5 24.6 157.4 23.8C157.3 23.2 157.5 22.5 157.5 21.9C157.6 21.2 157.4 21 156.7 21.2C155.8 21.5 154.9 22 154.7 23C154.5 24.1 154.5 25.2 154.4 26.4C155.8 26.4 157 26.3 158.1 26.2ZM64.5 16C64.3 15.9 64.2 15.8 64.1 15.7C62.5 15.7 60.9 15.6 59.4 15.7C58.1 15.8 57.6 17.4 58.2 18.6C58.6 19.3 58.8 19.3 59.3 18.7C60.1 17.6 61.2 17 62.5 17.2C63.7 17.6 64.2 17.1 64.5 16ZM139.9 34.5C139.9 34.6 139.9 34.7 139.9 34.8C140.3 34.9 140.7 35 141.1 35C143.2 35.1 145.3 35.2 147.4 35.3C150.6 35.4 153.7 35.3 156.9 35.3C157.1 35.3 157.3 35.3 157.5 35.3C157.7 35.2 157.8 35 158 34.8C157.8 34.7 157.7 34.5 157.5 34.4C157.3 34.3 157 34.4 156.8 34.4C151.6 34.4 146.3 34.5 141.1 34.5C140.6 34.4 140.2 34.4 139.9 34.5ZM135.9 56.2C135.8 55.1 135.8 54.2 135.7 53.2C135.7 52.9 135.6 52.4 135.4 52.3C134.9 52 134.4 51.4 133.7 51.8C132.7 52.4 132.1 53.7 132.4 54.9C132.6 55.6 133.1 56.3 133.9 56.3C134.7 56.3 135.4 56.2 135.9 56.2ZM65.1 31.4C64.8 30.8 64.3 30.1 64.1 29.4C63.8 28.7 63.5 28.6 62.9 28.9C62.5 29.1 62.1 29.3 61.7 29.6C60.5 30.6 60.5 32.7 61.5 33.5C62.7 32.8 63.9 32.1 65.1 31.4ZM151.3 21.7C149.8 23.1 149.6 24.7 149.5 26.3C149.5 26.5 149.9 26.8 150 26.8C151.1 26.7 152.2 26.5 153.4 26.3C153.4 25.4 153.7 24.6 152.6 24C152.2 23.8 152 23.1 151.7 22.6C151.6 22.5 151.5 22.2 151.3 21.7ZM44.7 15.7C44.7 15.6 44.7 15.6 44.7 15.7C44 15.6 43.3 15.6 42.7 15.6C42.4 15.6 42 15.9 42 16C42.1 16.8 42.1 17.6 42.4 18.3C42.7 19 43.3 19.1 44 18.4C44.8 17.6 45.7 17 46.9 17.1C47.6 17.1 47.4 16.5 47.4 16.2C47.4 16 47.1 15.7 46.9 15.7C46.1 15.6 45.4 15.7 44.7 15.7ZM36 20.3C34.9 20.2 33.7 20 32.6 20C32.3 20 31.9 20.3 31.8 20.5C31.6 21.3 31.5 22.1 31.4 22.8C32.3 22.8 33.1 22.8 33.8 22.8C36 22.9 36.1 22.8 36.1 20.6C36.1 20.5 36.1 20.5 36 20.3ZM159.4 26.1C159.5 26.1 159.5 26.2 159.6 26.2C159.7 25.8 159.9 25.4 160 24.9C160.5 23.3 160.9 21.6 161.3 20C161.4 19.8 161.3 19.5 161.1 19.3C161 19.2 160.6 19.3 160.4 19.4C160 19.7 159.6 20 159.3 20.4C158.2 21.9 158.1 23.7 159 25.2C159.4 25.5 159.3 25.8 159.4 26.1ZM68.5 17.5C67.8 17.3 67 17.1 66.2 16.7C65.6 16.4 65.3 16.6 65 17.1C64.4 18.2 64.6 19.8 65.6 20.7C66 21.1 66.5 21.2 66.8 20.6C67.3 19.6 67.9 18.6 68.5 17.5ZM96.5 13.4C94.5 13.5 92.6 13.6 90.7 13.8C90.6 13.8 90.3 14.3 90.4 14.5C90.7 15.4 92.3 16 93.2 15.7C93.7 15.5 94.3 15.2 94.8 15.3C95.9 15.2 96.2 14.5 96.5 13.4ZM139.2 56.2C139.7 54.3 139.7 54.3 139.4 52.5C139.4 52.4 139.4 52.4 139.4 52.3C139.4 51.7 139 51.6 138.5 51.8C137.4 52.2 136.7 53.1 136.8 54.1C136.9 55.2 137.7 55.9 139.2 56.2ZM32.2 19.1C32.7 19.1 33.3 19.1 33.9 19.1C34.5 19.2 35.1 19.3 35.7 19.3C35.9 19.3 36.3 19 36.4 18.8C36.6 18.5 36.5 18.1 36.6 17.8C36.7 17.2 36.5 17 35.9 17C35.3 17 34.8 17 34.2 16.9C32 16.6 32.2 16.1 32 18.7C32.1 18.9 32.1 18.9 32.2 19.1ZM67.1 24.9C66.9 24.2 66.6 23.4 66.5 22.7C66.4 22 66.1 21.9 65.5 22C64.7 22.1 64.2 22.6 64 23.3C63.8 24.2 63.7 25.2 64.4 26C64.5 26.1 64.9 26.1 65.1 26.1C65.8 25.6 66.5 25.2 67.1 24.9ZM32.7 29.4C32.2 29.4 31.7 29.4 31.2 29.3C30.5 29.2 30.4 29.6 30.4 30.1C30.4 30.6 30.1 31.2 31 31.3C32 31.3 33 31.5 34.1 31.5C34.4 31.5 34.8 31.4 34.9 31.2C35.5 30.3 35 29.4 33.9 29.4C33.5 29.4 33.1 29.4 32.7 29.4ZM157.7 54.3C157.6 53.5 157.5 52.6 157.3 51.7C157.2 51.4 157 50.8 156.9 50.8C156.5 50.8 155.9 50.9 155.7 51.2C154.8 52 154.8 53.1 154.9 54.2C154.9 54.4 155.4 54.6 155.6 54.6C156.2 54.6 156.9 54.4 157.7 54.3ZM45.3 33.4C44.2 33.5 43.3 33.9 42.7 34.8C42.6 35 42.6 35.7 42.7 35.7C44.1 36.1 45.6 36.5 47.3 36.9C46.8 36.2 46.3 35.7 46 35.2C45.6 34.7 45.5 34 45.3 33.4ZM32 32.4C31.8 32.4 31.5 32.4 31.1 32.3C30.6 32.2 30.2 32.2 30.2 32.8C30.2 33.3 30 34 30.9 34C31.9 34.1 32.8 34.3 33.8 34.4C34 34.4 34.5 34.1 34.5 33.9C34.9 32.7 34.7 32.5 33.4 32.4C33 32.4 32.6 32.4 32 32.4ZM48 37.3C49.4 37.8 50.8 38.3 52.2 38.7C52.4 38.8 52.7 38.6 52.9 38.5C52.8 38.3 52.7 38 52.6 37.9C52 37.3 51.4 36.7 50.7 36.1C50.5 35.9 50.2 35.7 50 35.7C49.2 35.9 48.4 36.2 48 37.3ZM65.2 42.6C65.4 41.6 65.4 41.6 64.7 41.4C63.6 41.1 62.6 40.6 61.8 39.6C61.7 39.4 61.2 39.3 61.1 39.4C60.7 39.8 60.4 40.3 60.2 40.8C60.2 40.9 60.4 41.3 60.6 41.4C62.2 41.8 63.7 42.2 65.2 42.6ZM84.2 16.7C84.2 16.3 84.1 16 84.1 15.7C84.1 15.1 84.2 14.3 83.9 14.1C83.5 13.8 82.7 14 82.1 14C82 14 82 14 81.9 14C81.7 14.2 81.3 14.4 81.2 14.7C81.1 15.9 81.9 17.2 84.2 16.7ZM160.3 18.2C159.2 17.5 158.2 16.8 157.1 16C156.8 17.8 156.9 19.1 158.2 20.1C158.8 19.5 159.5 18.9 160.3 18.2ZM215.1 38.9C215.5 37.9 215.4 36.4 215.1 36.5C214.5 36.8 214 37.4 213.5 37.8C213.5 37.8 213.5 37.9 213.5 38C214.1 38.3 214.6 38.6 215.1 38.9ZM37.1 16C37.1 15.9 37.1 15.8 37 15.6C35.6 15.5 34.2 15.4 32.8 15.3C32.7 15.3 32.6 15.5 32.5 15.6C32.6 15.7 32.8 15.9 32.9 15.9C34 16 35.1 16.2 36.2 16.3C36.5 16.3 36.8 16.1 37.1 16ZM208.1 36.6C208.2 36.5 208.3 36.4 208.4 36.3C208.1 35.8 208.5 34.9 207.5 34.9C207.2 34.9 206.9 35.4 206.6 35.7C207 36.1 207.6 36.3 208.1 36.6ZM212.4 32.5C212.3 32.4 212.3 32.3 212.2 32.1C211.7 32.1 211.1 32.2 210.6 32.2C210.6 32.3 210.5 32.4 210.5 32.5C210.8 32.7 211.2 33 211.5 33C211.8 33.1 212.1 32.7 212.4 32.5ZM205.8 32.7C205.7 32.6 205.7 32.5 205.6 32.4C205.1 32.4 204.7 32.5 204.2 32.5C204.2 32.6 204.1 32.7 204.1 32.8C204.4 33 204.7 33.4 204.9 33.4C205.3 33.3 205.5 32.9 205.8 32.7ZM198.1 32.4C198.1 32.3 198 32.2 198 32.1C197.6 32.1 197.1 32.1 196.4 32.1C196.7 32.6 196.9 32.8 197.1 33.1C197.4 32.9 197.8 32.7 198.1 32.4Z" fill="white"/>
<path d="M188.9 50.4001C187.8 50.2001 186.7 50.2001 185.6 49.9001C183.8 49.5001 182.7 48.2 181.7 46.8C181.6 46.6 181.6 46.3 181.7 46.1C181.7 46 182.1 46 182.3 46C182.6 45.9 183 45.9 183.3 45.8C184.8 45.1 186.3 44.2 187.9 43.8C191.2 43 194.3 43.9 197.1 45.8C197.7 46.2 197.7 46.8 197.4 47.5C196.7 48.6 195.8 49.3 194.6 49.7C192.6 50.2 190.8 50.5001 188.9 50.4001ZM189.5 48.9001C189.5 49.0001 189.6 49.1 189.6 49.1C190.2 48.8 190.9 48.6 191.3 48.1C191.8 47.6 191.5 46.4 190.9 45.8C190.3 45.2 188.8 45.0001 188 45.4001C187.2 45.8001 187.1 46.5 187.2 47.3C187.3 48.5 188 48.9001 189.5 48.9001ZM192.8 48.8C193.4 48.6 194.2 48.4 194.9 48C196.4 47.2 196.4 46.7 194.9 46C194.1 45.6 193.1 45.3 192.3 45C192.5 46.4 192.6 47.5 192.8 48.8ZM185.8 45.8C185.1 46.2 184.3 46.6 183.6 47.1C183.6 47.2 183.6 47.3 183.5 47.5C184.4 48 185.2 48.5 186.1 49.1C186 47.8 185.9 46.9 185.8 45.8Z" fill="white"/>
</g>
</svg>
