<svg width="100" height="121" viewBox="0 0 100 121" fill="none" xmlns="http://www.w3.org/2000/svg">
<path opacity="0.5" d="M25.1999 40.9998C25.3999 41.3998 25.5999 41.7998 25.6999 42.1998C25.7999 42.4998 26 42.8998 25.9 43.1998C25.8 43.3998 25.2999 43.5998 24.9999 43.4998C24.3999 43.3998 23.9 43.2998 23.4 42.9998C21 41.7998 18.8 40.3998 16.4 39.2998C14.8 38.5998 13.0999 38.0998 11.4999 37.5998C9.79995 36.9998 8.19995 37.0998 6.49995 37.4998C5.39995 37.7998 4.19992 37.9998 3.09992 38.3998C2.59992 38.4998 2.59997 38.7998 2.89997 39.2998C3.99997 40.7998 5.09995 42.2998 5.99995 43.7998C6.99995 45.3998 8.5 46.4998 10.3 47.0998C11.4 47.3998 12.7 47.4998 13.9 47.4998C15.8 47.4998 17.5999 47.1998 19.4999 47.1998C21.9999 47.2998 24.4 47.5998 26.8 47.9998C29.6 48.4998 31.9 49.8998 34.3 51.3998C35.1 51.8998 36 52.3998 36.8 52.9998C38.1 54.0998 39 55.4998 39.3 57.1998C39.6 58.8998 40.2999 60.5998 40.1999 62.1998C39.8999 65.1998 40 68.1998 38.9 71.0998C38.2 72.9998 38.2999 75.0998 37.9999 77.0998C37.9999 77.2998 38 77.5998 37.9 77.8998C37 78.0998 37 77.2998 36.9 76.8998C36.8 76.1998 36.7999 75.4998 36.9999 74.7998C37.1999 73.9998 37.2 73.3998 36.8 72.6998C36.5 71.9998 36.2 71.2998 35.9 70.5998C35.3 69.2998 34.3 68.3998 33.3 67.5998C32.4 66.8998 31.4999 66.1998 30.6999 65.2998C29.4999 63.8998 27.6999 63.3998 26.0999 62.5998C25.2999 62.1998 24.3999 61.6998 23.5999 61.3998C20.8999 60.2998 18.0999 59.7998 15.1999 60.2998C13.6999 60.5998 12.2 60.5998 10.9 61.5998C10.5 61.8998 9.99992 62.2998 9.59992 62.6998C7.69992 64.2998 5.9999 65.9998 4.6999 68.0998C4.3999 68.6998 4.79992 68.8998 5.09992 68.9998C8.99992 70.9998 13.2999 71.1998 17.4999 70.7998C19.4999 70.5998 21.1 69.1998 22.9 67.6998C22.2 67.3998 21.5999 67.0998 20.9999 66.8998C19.8999 66.5998 18.8 66.4998 17.8 65.9998C15.7 64.8998 14.3 66.1998 12.8 67.2998C12.3 67.6998 11.7999 68.1998 11.1999 68.4998C10.8999 68.6998 10.4999 68.4998 10.1999 68.4998C10.2999 68.1998 10.2999 67.7998 10.4999 67.6998C11.9999 66.3998 13.3999 64.8998 15.4999 64.4998C15.8999 64.3998 16.3999 64.3998 16.6999 64.4998C18.8999 65.0998 21.3 65.4998 23.4 66.3998C25 67.0998 26.2999 68.5998 27.5999 69.7998C29.5999 71.4998 30.9 73.7998 31.9 76.1998C32.9 78.5998 33.6999 81.1998 34.5999 83.5998C36.2999 87.9998 36.5999 92.4998 36.1999 97.0998C36.0999 98.9998 35.5999 100.9 35.1999 102.7C34.7999 104.5 34.3999 106.2 33.9999 107.9C34.5999 108.2 35.2 108.4 35.8 108.7C36.7 107 38.3999 106.9 40.0999 106.9C41.3999 106.9 42.7 106.6 43.9 106.6C45.3 106.7 45.9 106.9 47.3 107.2C47.5 107.2 48.6 107.2 48.8 107.1C49.4 106.9 54.0999 105.7 55.5999 107C55.8999 107.2 56.5 109.6 56.9 109.7C57.4 109.7 58.8999 109.4 59.4999 109.4C59.1999 109 58.7999 108.6 58.5999 108.1C57.8999 106.7 57.1999 105.3 56.5999 103.9C55.3999 100.8 54.5 97.5998 54.4 94.1998C54.4 92.9998 54.2999 91.6998 53.9999 90.5998C53.2999 87.7998 53.7 84.9998 53.8 82.2998C53.9 79.9998 54.2999 77.6998 54.9999 75.4998C55.6999 73.1998 57.6 71.4998 59.4 69.8998C60.1 69.1998 60.7999 68.5998 61.6999 68.0998C63.8999 66.8998 66 65.4998 68.3 64.6998C69.8 64.1998 71.5999 64.1998 73.0999 65.2998C74.3999 66.2998 75.7999 66.9998 76.9999 67.9998C77.4999 68.3998 77.7999 69.0998 78.1999 69.6998C79.1999 70.9998 80.3 72.2998 81.3 73.6998C81.5 73.9998 81.7999 74.2998 81.9999 74.5998C81.8999 74.6998 81.8 74.8998 81.8 74.9998C81.3 74.7998 80.6999 74.7998 80.4999 74.4998C79.4999 73.2998 78.4999 72.0998 77.5999 70.7998C76.4999 69.1998 75.6 67.5998 73.8 66.8998C73.4 66.6998 72.9999 66.4998 72.6999 66.1998C71.8999 65.3998 71.1999 65.2998 70.0999 65.7998C69.5999 66.0998 69.5999 66.3998 69.6999 66.7998C70.0999 67.8998 70.3999 69.0998 70.9999 70.0998C71.4999 70.9998 72.2 71.8998 72.9 72.4998C74.6 73.8998 76.8 74.3998 78.8 75.1998C79.9 75.6998 80.8999 76.4998 81.9999 77.0998C82.5999 77.4998 83.2 77.8998 83.9 78.1998C84.3 78.2998 84.7999 77.9998 85.1999 77.8998C85.0999 77.5998 85 77.1998 84.8 76.9998C83.3 75.6998 82.9 73.8998 82.3 72.0998C81.7 70.3998 80.7 68.8998 79.8 67.2998C79.4 66.5998 79.0999 65.8998 78.5999 65.3998C77.2999 63.9998 73.6 62.3998 71.3 63.3998C70.6 63.6998 69.7999 63.7998 69.0999 63.8998C68.7999 63.8998 68.4999 63.6998 68.1999 63.4998C68.3999 63.1998 68.5 62.7998 68.8 62.6998C70 62.1998 71.1 61.7998 72.3 61.2998C73.6 60.7998 75 60.2998 76.3 59.7998C76.8 59.5998 77.3 59.3998 77.8 59.3998C79 59.1998 79.8999 58.5998 80.6999 57.5998C81.7999 56.2998 83.3999 55.5998 85.0999 55.2998C87.5999 54.7998 90.0999 54.5998 92.5999 54.4998C93.1999 54.4998 93.7999 53.9998 94.4999 53.8998C94.7999 53.7998 95.1999 53.8998 95.4999 53.9998C95.2999 54.2998 95.2999 54.7998 94.9999 54.8998C93.8999 55.3998 92.8 56.0998 91.4 56.0998C89.3 56.0998 87.1999 56.1998 85.0999 56.4998C83.6999 56.6998 82.2 56.9998 80.8 58.1998C81.4 58.5998 81.9999 58.9998 82.5999 59.1998C83.9999 59.6998 85.3999 60.4998 86.9999 60.1998C90.1999 59.6998 93.2999 58.6998 95.6999 56.2998C96.3999 55.5998 96.9999 54.5998 97.5999 53.7998C97.8999 53.3998 97.7 53.1998 97.3 53.0998C95.6 52.5998 94 51.9998 92.3 51.6998C91.6 51.4998 90.7 51.5998 89.9 51.7998C88.1 52.1998 86.2999 52.6998 84.4999 53.0998C82.0999 53.6998 80 54.4998 77.9 55.8998C76.6 56.7998 74.9 57.2998 73.4 57.8998C72.4 58.2998 71.3 58.4998 70.3 58.6998C69.6 58.8998 68.8999 58.8998 68.0999 58.9998C67.7999 58.9998 67.5 58.7998 67.3 58.5998C67.6 58.3998 67.7999 57.9998 68.0999 57.8998C68.8999 57.6998 69.7999 57.6998 70.5999 57.3998C72.1999 56.8998 73.8999 56.5998 75.1999 55.7998C77.1999 54.3998 79.3999 53.4998 81.5999 52.4998C82.4999 52.0998 83.5999 51.8998 84.5999 51.5998C86.6999 51.0998 88.7 50.4998 90.8 50.1998C92.6 49.9998 94.3 50.3998 95.9 51.1998C96.5 51.4998 97.2 51.5998 97.9 51.7998C99.3 52.1998 99.7999 53.1998 98.9999 54.3998C97.7999 56.1998 96.3999 57.6998 94.5999 58.8998C92.5999 60.2998 90.2 60.9998 87.9 61.5998C86.4 61.9998 84.8999 61.7998 83.4999 61.1998C82.1999 60.6998 80.8 59.8998 79.3 60.1998C78.1 60.4998 77 60.9998 75.8 61.3998C75.4 61.4998 75.0999 61.6998 74.6999 61.8998C75.1999 62.0998 75.6999 62.4998 76.1999 62.5998C78.8999 63.0998 80.2 65.1998 81.4 67.2998C82.2 68.6998 82.8999 70.1998 83.5999 71.6998C83.9999 72.4998 84.0999 73.2998 84.4999 74.0998C84.6999 74.5998 85.0999 75.0998 85.4999 75.5998C85.6999 75.8998 86.1 76.1998 86.3 76.4998C86.9 77.4998 86.8999 78.0998 86.1999 78.8998C85.4999 79.6998 84.0999 79.9998 83.1999 79.4998C81.7999 78.6998 80.4999 77.7998 78.9999 76.9998C78.0999 76.4998 77.0999 76.0998 76.1999 75.6998C74.5999 74.8998 72.8 74.1998 71.4 73.0998C70.3 72.1998 69.1999 70.9998 69.0999 69.2998C68.9999 68.3998 68.6 67.4998 68.3 66.5998C68.3 66.4998 67.7999 66.3998 67.5999 66.4998C65.8999 67.2998 64.1999 67.9998 62.6999 69.0998C60.1999 70.9998 57.6 72.7998 56.4 75.9998C55.8 77.7998 55.2999 79.4998 55.1999 81.3998C56.5999 79.8998 57.8999 78.4998 59.0999 76.8998C60.1999 75.3998 61.7 74.9998 63.3 74.4998C66.2 73.5998 68.5999 74.7998 71.0999 75.7998C71.7999 76.0998 72.5999 76.3998 73.1999 76.8998C73.8999 77.4998 73.7999 78.0998 73.0999 78.5998C70.2999 80.6998 67.1 81.8998 63.8 83.1998C60.7 84.3998 57.6999 85.6998 55.5999 88.4998C54.9999 89.3998 55.2 90.2998 55.3 91.1998C55.3 91.5998 55.4999 91.9998 55.4999 92.3998C55.6999 94.9998 56.3 97.4998 56.8 99.9998C57.3 102.5 58.0999 104.8 59.1999 107C59.5999 107.9 60.2 108.8 60.9 109.5C61.3 109.9 62.0999 109.7 62.6999 109.8C63.6999 109.9 64.7 110.5 64.8 111.3C64.9 112 64.7999 112.8 64.5999 113.5C64.2999 114.7 63.7999 115.9 63.1999 117.4C64.0999 117.3 64.7 117.2 65.4 117.1C65.9 117.1 66.5999 116.7 66.6999 117.6C66.7999 118.3 66.2999 118.7 65.5999 118.8C64.9999 118.9 64.4 118.8 63.8 118.9C62.3 119.1 60.8 119.3 59.4 119.6C59.2 119.6 59 119.7 58.8 119.7C57.3 119.8 55.8 120 54.3 120C48.5 120.2 42.7 120.3 36.8 120.4C34.6 120.4 32.3999 120.4 30.1999 120.5C28.0999 120.6 25.9 120.8 23.8 120.8C23.4 120.8 23.0999 120.6 22.6999 120.4C22.8999 120.1 23.2 119.9 23.4 119.6C23.6 119.4 23.7999 119 23.6999 118.8C23.4999 117.2 23.2 115.5 22.9 113.9C22.7 112.8 22.9999 111.9 23.9999 111.5C25.1999 110.9 26.3999 110.4 27.5999 110C29.0999 109.5 30.5999 109.2 32.0999 108.7C32.3999 108.6 32.8 108.2 32.8 107.8C33.1 106.3 33.2999 104.8 33.4999 103.4C33.7999 100.9 34.1 98.3998 34.4 95.8998C34.5 95.2998 34.7 94.7998 34.3 94.2998C33.5 93.3998 32.9999 92.1998 31.5999 91.7998C30.4999 91.4998 29.5 90.9998 28.4 90.5998C28.1 90.4998 27.7999 90.4998 27.4999 90.4998C23.7999 90.2998 20.2999 89.5998 17.5999 86.7998C16.7999 85.9998 16.1999 84.7998 15.4999 83.8998C14.8999 82.9998 14.1999 82.1998 13.5999 81.2998C13.2999 80.7998 12.6999 80.3998 13.1999 79.6998C13.5999 79.1998 14.2 79.0998 14.9 79.1998C16.4 79.3998 17.9999 79.2998 19.5999 79.2998C21.7999 79.2998 23.9999 79.2998 26.1999 79.2998C26.8999 79.2998 27.4999 79.4998 28.1999 79.5998C30.1999 80.0998 31.0999 81.7998 32.1999 83.3998C32.2999 83.4998 32.3 83.6998 32.4 83.7998C32.5 83.8998 32.6 83.8998 32.9 83.9998C32.8 83.3998 32.6999 82.7998 32.4999 82.1998C31.3999 79.1998 30.4 75.9998 28.4 73.3998C27.6 72.2998 26.5999 71.3998 25.5999 70.3998C25.0999 69.8998 24.5 69.0998 23.9 69.0998C23.3 69.0998 22.7999 69.9998 22.1999 70.3998C20.2999 71.5998 18.4 72.9998 15.9 72.7998C15 72.6998 13.9999 72.7998 13.0999 72.7998C11.3999 72.7998 9.69995 72.7998 7.99995 72.0998C6.59995 71.4998 4.99995 71.0998 3.49995 70.4998C2.49995 70.0998 2.3 69.4998 2.8 68.5998C4.9 65.1998 7.39992 62.0998 11.0999 60.1998C11.8999 59.7998 12.7999 59.3998 13.5999 59.3998C15.8999 59.2998 18.2999 59.2998 20.5999 59.4998C23.2999 59.6998 25.5999 61.1998 27.9999 62.0998C29.1999 62.5998 30.1999 63.5998 31.1999 64.3998C32.3999 65.2998 33.6999 66.1998 34.6999 67.2998C35.6999 68.2998 36.4 69.4998 37.3 70.6998C37.3 70.6998 37.4999 70.5998 37.5999 70.3998C37.7999 69.5998 37.9999 68.7998 37.9999 67.8998C38.1999 65.9998 38.4 64.0998 38.4 62.0998C38.4 59.4998 37.6999 57.0998 35.9999 55.0998C35.2999 54.1998 34.1999 53.6998 33.1999 53.0998C31.8999 52.2998 30.5999 51.4998 29.1999 50.8998C27.8999 50.3998 26.3999 49.8998 24.9999 49.7998C21.8999 49.4998 18.9 49.4998 15.8 49.3998C15.1 49.3998 14.3999 49.5998 13.6999 49.5998C11.6999 49.7998 9.89995 49.3998 7.99995 48.3998C5.29995 46.7998 4.09992 44.2998 2.59992 41.7998C2.19992 41.1998 1.59995 40.7998 0.999947 40.2998C-0.200053 39.3998 -0.200077 38.9998 1.09992 38.2998C3.99992 36.7998 7.19997 36.0998 10.4 36.5998C12.6 36.8998 14.6999 37.8998 16.6999 38.6998C18.6999 39.4998 20.4999 40.4998 22.5999 41.4998C21.6999 37.9998 21.9 34.6998 23.8 31.7998C25.7 28.9998 28.2999 27.0998 31.9999 27.4998C31.9999 27.3998 31.9999 27.2998 31.9999 27.1998C31.2999 26.5998 30.5 25.9998 29.8 25.4998C27.7 24.1998 25.5999 22.9998 23.5999 21.6998C22.9999 21.2998 22.5 20.6998 21.9 20.1998C18.9 17.8998 17.8999 14.4998 16.5999 11.1998C16.5999 11.0998 16.4999 10.9998 16.4999 10.8998C16.3999 10.2998 16.4 9.69979 16.3 9.09979C17 9.09979 17.7 8.79979 18.3 8.99979C20.4 9.49979 22.4999 9.99979 24.4999 10.8998C27.0999 11.9998 29.5999 13.2998 32.1999 14.5998C32.5999 14.7998 32.8999 15.1998 33.1999 15.4998C34.4999 16.9998 35.8 18.3998 36.9 19.9998C37.7 21.1998 38.0999 22.6998 38.6999 23.9998C38.8999 22.6998 39 21.3998 39.3 20.0998C39.7 18.0998 40.1999 16.1998 40.5999 14.1998C40.6999 13.5998 40.8999 12.9998 41.0999 12.3998C41.6999 10.4998 42.8999 8.89979 43.9999 7.29979C45.3999 5.29979 47.2 3.89979 49.3 2.79979C50.6 2.09979 51.7999 1.19979 52.9999 0.499791C53.7999 -0.000208825 54.3 0.19979 54.4 1.09979C54.5 4.59979 54.6999 8.09979 54.6999 11.5998C54.6999 14.2998 53.6 16.6998 52.3 19.0998C51.4 20.8998 50.4 22.5998 49.3 24.2998C48 26.1998 46.6 27.8998 45.3 29.7998C44.7 30.7998 44.2 31.8998 43.8 32.9998C43.7 33.2998 43.8 33.6998 43.8 34.0998C44.9 32.6998 45.7 31.2998 46.8 29.9998C48.8 27.5998 51.0999 25.4998 54.1999 24.4998C55.5999 24.0998 57 23.8998 58.4 23.5998C59.4 23.3998 60.4 23.1998 61.3 23.1998C62.8 23.2998 64.2999 23.5998 65.6999 23.7998C66.4999 23.8998 67.2999 23.9998 68.0999 24.1998C68.9999 24.4998 69.1999 24.9998 68.9999 25.9998C68.0999 29.2998 65.6 31.1998 62.9 32.8998C61.4 33.7998 60 34.9998 58.3 35.1998C56.5 35.3998 54.6999 35.3998 52.9999 35.2998C51.8999 35.1998 50.9999 34.9998 49.9999 35.7998C48.5999 36.7998 47.2 37.7998 46.3 39.3998C45.1 41.6998 44.7 44.0998 44.9 46.5998C44.9 46.6998 44.9999 46.8998 44.9999 47.1998C45.7999 46.2998 46.2999 45.3998 47.0999 44.7998C48.5999 43.6998 50.3 42.7998 51.8 41.7998C54.3 40.1998 57.1 39.5998 59.9 38.8998C61.7 38.3998 63.4999 38.1998 65.1999 37.7998C65.4999 37.6998 65.8 37.3998 65.8 37.1998C66.2 34.7998 67.3999 32.6998 69.1999 30.9998C69.7999 30.3998 70.4999 29.7998 71.1999 29.1998C72.1999 28.3998 72.6999 27.3998 73.0999 26.2998C73.1999 26.0998 73.2 25.8998 73.4 25.6998C73.6 25.3998 73.8999 24.8998 74.0999 24.9998C74.3999 25.0998 74.7999 25.3998 74.9999 25.6998C75.4999 26.6998 75.8999 27.7998 76.4999 28.7998C77.2999 30.1998 78.3 31.4998 78.9 32.9998C79.6 34.7998 79.8 36.6998 79.3 38.5998C79.1 39.5998 78.9999 40.5998 78.6999 41.5998C78.3999 42.8998 77.9999 44.1998 77.5999 45.4998C76.7999 47.7998 76.1 50.1998 74.9 52.3998C74.2 53.6998 72.8999 54.6998 71.6999 55.6998C71.4999 55.8998 70.9 55.6998 70.4 55.6998C70.5 55.2998 70.6 54.7998 70.9 54.5998C72.4 53.4998 73.4999 52.1998 74.1999 50.3998C74.7999 48.7998 75.3 47.0998 75.8 45.3998C76.2 44.3998 76.6999 43.3998 76.9999 42.3998C77.2999 41.4998 77.3999 40.5998 77.4999 39.6998C77.6999 38.2998 77.8 36.8998 77.9 35.4998C78 34.0998 77.3999 32.9998 76.6999 31.8998C75.7999 30.5998 75.1 28.9998 74.3 27.4998C74.3 27.4998 74.0999 27.4998 74.0999 27.5998C73.5999 28.9998 72.5 29.8998 71.4 30.7998C67.7 33.7998 66.4999 37.6998 67.1999 42.2998C67.3999 43.7998 68.4 45.1998 68.8 46.6998C69.2 47.9998 70.1999 49.0998 69.9999 50.4998C69.6999 52.1998 68.7 53.4998 67.8 54.8998C66.4 56.8998 64.1999 57.5998 61.9999 58.2998C59.9999 58.8998 58 59.7998 56.4 61.2998C53.6 63.7998 51.1 66.4998 48.9 69.4998C48.1 70.6998 47.6999 72.1998 47.0999 73.5998C46.7999 74.3998 46.4999 75.1998 46.0999 76.1998C45.7999 75.8998 45.5999 75.6998 45.4999 75.4998C45.3999 75.2998 45.3999 74.9998 45.4999 74.7998C46.4999 73.0998 45.7 71.5998 45.3 69.9998C44.8 67.7998 44.2 65.4998 43.9 63.1998C43.6 60.9998 43.6 58.7998 43.4 56.5998C43.4 56.2998 43.1 56.0998 42.9 55.8998C42.4 55.3998 42.0999 54.8998 42.4999 54.1998C43.0999 53.2998 43.0999 52.2998 43.0999 51.2998C43.0999 48.8998 42.8999 46.4998 43.1999 44.1998C43.5999 40.9998 44.6999 37.9998 47.4999 35.8998C48.0999 35.3998 48.5999 34.8998 49.1999 34.3998C49.9999 33.7998 50.8999 33.4998 52.0999 33.6998C55.5999 34.1998 58.9 33.9998 61.9 31.6998C63 30.7998 64.2 29.9998 65.4 29.1998C66.5 28.2998 67.1 27.1998 67.4 25.7998C64.9 25.0998 62.4 24.3998 59.9 24.8998C57.2 25.3998 54.1999 25.3998 51.9999 27.1998C49.3999 29.2998 46.6999 31.2998 45.1999 34.4998C44.6999 35.6998 43.7999 36.7998 42.9999 37.8998C42.6999 38.2998 42.2 38.4998 41.8 38.7998C41.7 38.7998 41.5999 38.6998 41.4999 38.6998C41.5999 38.3998 41.5999 37.9998 41.6999 37.6998C41.8999 36.9998 42.4 36.3998 42.4 35.6998C42.4 33.6998 42.6999 31.7998 43.6999 30.0998C44.4999 28.6998 45.5999 27.3998 46.4999 25.9998C48.8999 22.5998 51.1999 19.1998 52.4999 15.1998C52.9999 13.7998 53.3 12.1998 53.3 10.6998C53.3 7.99979 53.0999 5.19979 52.9999 2.49979C52.9999 2.39979 52.9 2.29979 52.8 2.19979C52.4 2.49979 51.8999 2.69979 51.4999 2.99979C49.7999 4.09979 47.9999 5.09979 46.4999 6.39979C44.5999 7.99979 43.3 10.0998 42.4 12.4998C42 13.6998 41.6 14.9998 41.3 16.2998C40.9 17.8998 40.4 19.5998 40.3 21.1998C40 23.7998 40 26.4998 39.9 29.1998C39.9 30.8998 40.2 32.5998 40.3 34.2998C40.3 34.7998 40.6 35.4998 39.8 35.4998C39.1 35.4998 39.0999 34.7998 39.0999 34.1998C38.6999 31.4998 38.5 28.7998 37.9 26.0998C37.4 23.6998 36.4999 21.2998 34.9999 19.3998C33.0999 16.9998 31 14.5998 27.8 13.6998C26.4 13.2998 25.2 12.3998 23.9 11.8998C22.3 11.2998 20.6 10.8998 18.9 10.3998C18.5 10.2998 18.1 10.1998 17.4 9.99979C17.7 10.7998 17.8999 11.3998 18.0999 11.9998C18.7999 13.5998 19.3 15.2998 20.3 16.7998C21.1 17.9998 22.3 18.9998 23.4 19.8998C24.8 20.9998 26.4 21.7998 27.8 22.7998C30 24.3998 32.1 25.9998 34.3 27.5998C34.6 27.7998 35 27.8998 35.4 27.9998C36.9 28.0998 37.3 28.6998 36.8 30.1998C36.6 30.6998 36.4999 31.2998 36.4999 31.8998C36.3999 34.4998 36.4999 37.0998 37.1999 39.5998C37.1999 39.6998 37.1999 39.6998 37.1999 39.7998C37.3999 42.2998 37.4999 44.7998 37.6999 47.2998C37.7999 48.4998 37.9999 49.5998 38.1999 50.7998C38.1999 50.9998 38.4 51.2998 38.3 51.3998C38.1 51.7998 37.7999 52.1998 37.5999 52.5998C37.2999 52.1998 37 51.8998 36.9 51.4998C36.3 49.5998 35.1999 48.1998 33.6999 46.9998C32.9999 46.4998 32.2999 45.8998 31.4999 45.1998C31.5999 45.7998 31.6999 46.0998 31.6999 46.3998C30.7999 46.3998 30.3999 45.7998 30.0999 45.0998C29.7999 44.4998 29.4999 43.9998 29.1999 43.3998C28.6999 42.3998 27.9999 41.3998 27.6999 40.2998C27.2999 39.1998 27.9999 38.3998 28.6999 37.6998C29.4999 36.8998 30.5 36.2998 31.4 35.5998C32 35.0998 32.5999 34.5998 32.9999 33.9998C33.9999 32.4998 34.7999 30.8998 35.6999 29.3998C35.4999 29.1998 35.5 29.0998 35.4 29.0998C33.9 28.9998 32.3 28.6998 30.8 28.6998C27.8 28.6998 25.6 30.2998 24.4 32.8998C23.3 35.0998 22.9 37.4998 23.8 39.9998C24.3 40.2998 24.7999 40.5998 25.1999 40.9998ZM46.9 70.4998C47 70.4998 47.0999 70.4998 47.1999 70.4998C47.5999 69.6998 47.8 68.8998 48.3 68.1998C50.1 65.8998 51.9999 63.5998 53.9999 61.3998C55.8999 59.3998 58.3 57.8998 60.9 56.9998C62.6 56.3998 64.4 56.1998 65.8 54.8998C67.4 53.3998 68.8 51.5998 68.4 49.1998C68.1 47.6998 67.4 46.1998 66.8 44.6998C66.7 44.4998 66.0999 44.3998 65.9999 44.4998C63.5999 45.8998 60.7999 46.4998 58.0999 46.8998C55.3999 47.3998 52.6 47.6998 49.9 48.5998C48.5 49.0998 47.4999 50.0998 46.4999 51.0998C45.4999 52.1998 44.8999 53.3998 45.0999 54.9998C45.2999 56.6998 45.1999 58.3998 45.1999 60.0998C45.1999 60.3998 45.2 60.6998 45.3 60.9998C45.7 63.2998 46 65.4998 46.4 67.7998C46.5 68.6998 46.7 69.5998 46.9 70.4998ZM45.9 118.4C45.9 117.4 45.8 116.7 45.9 116C46.1 114.9 46 113.8 46.3 112.7C46.6 111.5 46.2999 110.7 46.5999 109.4C46.5999 109.2 46.5 108.2 46.3 108.2C45.4 108 45.3999 108 44.4999 108C42.5999 108 40.5999 108.3 38.6999 108.3C37.7999 108.3 37.4999 108.6 37.5999 109.5C37.6999 111.3 37.5999 113.1 37.5999 114.9C37.5999 115.5 37.6999 119.8 36.9999 119.8C36.2999 119.8 35.9999 115.5 35.9999 114.9C35.9999 114.1 36.1 113.2 35.9 112.4C35.7 111.5 35.4 110.6 34.9 109.8C34.4 109.1 33.6 109.6 32.9 109.7C32.8 109.7 32.7999 109.7 32.6999 109.7C29.9999 110 27.4999 111 25.0999 112.2C24.4999 112.5 24.3999 112.9 24.4999 113.4C24.7999 115 25.2999 116.5 25.4999 118.1C25.5999 118.9 25.8999 119.1 26.6999 119C27.6999 118.9 28.6999 118.7 29.6999 118.7C33.1999 118.5 36.8 118.4 40.3 118.3C41.9 118.3 43.5999 118.3 45.1999 118.3C45.3999 118.4 45.8 118.4 45.9 118.4ZM56.5999 118.1C55.5999 117.9 55.4 117.5 55.4 115.7C55.4 114.9 55.6999 114 55.5999 113.2C55.5999 112.1 55.4 111.1 55.4 110C55.4 109.1 54.8999 108.5 54.1999 108.1C52.2999 108.1 48.4 108.5 48.3 108.9C48.2 109.6 48.5 112 48.3 112.6C47.7 114.5 47.6999 116.4 47.6999 118.4C48.2999 118.4 47.3999 118.4 47.6999 118.4C49.1999 118.2 50.6999 118 52.0999 117.9C54.7999 117.7 57.3999 117.6 60.0999 117.4C60.6999 117.4 61.7 117.2 61.9 116.8C62.7 115.3 63.8 113.9 63.8 112C63.8 111.1 63.3999 110.7 62.4999 110.7C61.0999 110.7 59.5999 110.7 58.1999 110.7C57.3999 110.7 57.0999 111 56.9999 111.9C56.9999 113.6 56.8999 115.2 56.6999 116.9C56.8999 117 56.6999 117.9 56.5999 118.1ZM15.5999 80.3998C15.7999 80.7998 15.8 80.9998 15.9 81.1998C16.5 82.0998 17.0999 82.8998 17.5999 83.7998C18.3999 85.1998 19.5999 86.3998 20.9999 87.0998C23.2999 88.1998 25.7 88.7998 28.3 88.7998C28.8 88.7998 29.4 88.7998 29.8 88.9998C31.4 89.6998 32.9999 90.4998 34.4999 91.1998C34.4999 90.8998 34.5999 90.3998 34.4999 89.9998C34.2999 89.3998 33.9999 88.3998 33.5999 88.3998C32.8999 88.2998 32.7 87.7998 32.4 87.4998C32.1 87.1998 31.7 86.7998 31.3 86.5998C29.5 85.7998 27.6999 85.3998 25.6999 85.2998C24.7999 85.2998 23.8999 84.8998 22.9999 84.6998C21.4999 84.1998 20.5 82.9998 19.4 81.8998C19.2 81.6998 19.1999 81.3998 19.0999 81.1998C19.1999 81.0998 19.3 81.0998 19.4 80.9998C20.2 81.5998 21.1 82.1998 21.9 82.8998C22.7 83.6998 23.6 84.1998 24.8 84.2998C26.2 84.3998 27.5999 84.6998 28.9999 84.9998C30.1999 85.2998 31.2999 85.7998 32.6999 86.1998C32.5999 85.7998 32.6 85.4998 32.4 85.2998C31.8 84.3998 31.0999 83.5998 30.5999 82.5998C29.6999 80.7998 28 80.2998 26.3 80.2998C22.9 80.1998 19.3999 80.2998 15.5999 80.3998ZM44.8 50.7998C44.9 50.8998 45.0999 50.9998 45.1999 51.0998C45.3999 50.6998 45.6 50.2998 45.9 50.0998C46.9 49.1998 47.7 47.9998 48.9 47.4998C50.7 46.6998 52.6999 46.0998 54.6999 45.9998C57.2999 45.7998 59.8 45.3998 62.3 44.6998C63.4 44.3998 64.4999 43.9998 65.5999 43.4998C65.7999 43.3998 66.0999 42.9998 66.0999 42.6998C66.0999 41.5998 65.9 40.4998 65.8 39.4998C65.8 38.8998 65.5 38.6998 64.9 38.7998C63.7 39.0998 62.3999 39.2998 61.1999 39.5998C58.1999 40.3998 55.2999 41.4998 52.4999 42.7998C49.9999 43.9998 47.5999 45.1998 46.0999 47.6998C45.4999 48.6998 44.6 49.4998 44.8 50.7998ZM55.3 86.1998C57.1 84.9998 58.6 83.5998 60.4 82.7998C62.5 81.6998 64.8999 80.9998 67.0999 80.0998C68.4999 79.4998 69.8999 78.7998 71.1999 78.0998C71.4999 77.9998 71.6 77.6998 71.8 77.3998C71.6 77.2998 71.3999 77.0998 71.0999 76.9998C70.6999 76.7998 70.2 76.6998 69.8 76.3998C67.7 74.7998 65.2999 75.0998 62.9999 75.3998C62.4999 75.4998 61.8999 75.7998 61.4999 76.0998C59.5999 77.8998 57.5999 79.4998 56.1999 81.7998C55.4999 82.9998 55.1999 84.0998 55.0999 85.3998C54.9999 85.6998 55.2 85.9998 55.3 86.1998ZM36.4999 46.8998C36.5999 46.8998 36.7 46.7998 36.8 46.7998C36.7 45.7998 36.5 44.7998 36.4 43.7998C36.3 42.8998 36.4 41.9998 36.3 41.0998C36.1 38.8998 35.7999 36.6998 35.5999 34.4998C35.5999 34.2998 35.5999 34.0998 35.4999 33.7998C35.1999 34.0998 35.1 34.2998 34.9 34.4998C33.5 35.6998 31.9999 36.8998 30.5999 38.0998C29.3999 39.0998 29.2999 41.0998 30.4999 42.1998C31.8999 43.3998 33.4 44.4998 34.9 45.6998C35.5 45.9998 35.9999 46.3998 36.4999 46.8998Z" fill="white"/>
<path opacity="0.5" d="M45.6 79.1997C45.1 80.1997 44.5 80.9997 44.2 81.7997C43.4 83.6997 42.5001 85.5997 41.8001 87.4997C41.5001 88.3997 41.4 89.3997 41.1 90.3997C40.6 92.0997 41 93.6997 41.1 95.2997C41.3 97.0997 41.5 98.9997 42 100.8C42.3 101.8 42.5 102.8 42.1 103.9C41.9 103.6 41.6 103.4 41.5 103.1C41 100.5 40.7 97.7997 40.2 95.1997C39.4 91.3997 40.4 87.9997 41.9 84.5997C42.8 82.5997 43.8001 80.6997 44.8001 78.6997C45.2001 77.8997 45.8 77.7997 46.4 78.5997C47.5 79.9997 48.5 81.4997 49 83.1997C49.3 84.1997 49.8 85.2997 50.1 86.2997C50.4 87.0997 50.7 87.9997 50.7 88.8997C50.9 92.2997 51.1 95.7997 51.1 99.1997C51.1 99.9997 50.6001 100.8 50.3001 101.6C50.2001 101.8 49.9 101.8 49.7 101.9C49.6 101.7 49.4 101.5 49.5 101.3C49.6 100.5 49.9 99.7997 50 98.9997C50.1 97.7997 50.1 96.5997 50.1 95.3997C50.1 94.8997 50 94.3997 50 93.9997C49.8 92.0997 49.8 90.0997 49.5 88.2997C49.2 86.6997 48.3 85.1997 48 83.5997C47.5 81.9997 46.5 80.7997 45.6 79.1997Z" fill="white"/>
<path opacity="0.5" d="M51.8 7.2999C49.9 10.6999 48.1 14.1999 47.5 18.3999C48.7 16.9999 49.9 15.6999 51 14.3999C51.2 14.1999 51.6 14.0999 51.9 13.9999C51.9 14.2999 51.9 14.7999 51.7 14.9999C50.8 16.0999 49.8 17.1999 48.9 18.3999C48.2 19.3999 47.5 20.3999 46.9 21.3999C46 22.9999 45.1 24.6999 44.2 26.2999C44 26.5999 43.7 26.8999 43.5 27.1999C43.4 27.0999 43.3 27.0999 43.2 26.9999C43.4 26.4999 43.6 25.9999 43.7 25.3999C43.8 24.8999 44.5 24.3999 43.6 23.8999C43.5 23.8999 43.6 23.4999 43.7 23.2999C44.2 22.0999 44.8 20.9999 45.3 19.7999C46.1 17.6999 46.8 15.5999 47.3 13.3999C47.9 11.0999 49.1 9.1999 50.4 7.3999C50.6 7.0999 51 6.9999 51.4 6.8999C51.6 6.9999 51.7 7.0999 51.8 7.2999Z" fill="white"/>
<path opacity="0.5" d="M44 102.1C43.6 100.4 43.0001 98.7999 42.9001 97.0999C42.8001 95.2999 43.2001 93.3999 43.4001 91.5999C43.6001 89.5999 44.5 87.8999 45.5 86.1999C45.7 85.8999 46.0001 85.5999 46.3001 85.3999C46.5001 85.6999 46.8001 85.8999 46.9001 86.2999C47.6001 88.5999 48.4001 90.7999 48.3001 93.1999C48.2001 94.9999 48.3 96.6999 48.2 98.4999C48.2 99.4999 48.0001 100.5 47.9001 101.5C47.9001 101.7 47.6 101.9 47.5 102C47.4 101.8 47.1 101.6 47.1 101.4C47.1 100.1 47.3001 98.7999 47.3001 97.4999C47.3001 95.3999 47.4 93.2999 47.2 91.2999C47.1 89.8999 46.6 88.5999 46.2 87.1999C44.5 89.3999 44.4001 91.8999 43.9001 94.4999C43.4001 97.1999 44.5001 99.6999 44.4001 102.3C44.2001 102.1 44.1 102.1 44 102.1Z" fill="white"/>
<path opacity="0.5" d="M23.2 44.6997C23.1 44.6997 22.9 44.6997 22.8 44.6997C20.2 43.6997 17.5 43.1997 14.7 43.1997C13.1 43.1997 11.7 42.5997 10.3 41.9997C9.30005 41.4997 8.19995 41.0997 7.19995 40.5997C6.99995 40.4997 6.79998 40.3997 6.59998 40.2997C6.39998 40.0997 6.29995 39.7997 6.19995 39.4997C6.49995 39.3997 6.89998 39.1997 7.09998 39.2997C8.69998 39.7997 10.3 40.2997 11.7 41.0997C12.7 41.5997 13.7 41.6997 14.7 41.7997C16.4 41.9997 18 42.3997 19.7 42.6997C20.7 42.8997 21.6 43.2997 22.6 43.6997C22.9 43.7997 23.2 44.2997 23.4 44.4997C23.3 44.4997 23.2 44.5997 23.2 44.6997Z" fill="white"/>
<path opacity="0.5" d="M74.9 30.9998C73.6 34.2998 74.5 37.7998 74 41.1998C73.7 43.5998 73.1 45.9998 71.8 48.0998C71.7 48.2998 71.4 48.4998 71.3 48.5998C71.2 48.5998 71.2 48.4998 71.1 48.4998C71.1 48.1998 71.1 47.7998 71.2 47.4998C72.2 44.5998 72.9 41.6998 72.9 38.5998C72.9 37.0998 72.8 35.4998 73 33.9998C73.1 32.9998 73.7 32.0998 74.1 31.1998C74.2 30.9998 74.5 30.8998 74.7 30.7998C74.7 30.7998 74.8 30.8998 74.9 30.9998Z" fill="white"/>
<path opacity="0.5" d="M51.8 75.6C51.9 72.6 55.2 66.6 58.7 65C58.5 65.5 58.6 65.9 58.3 66.2C55.8 68.6 54.1 71.6 52.5 74.7C52.4 75 52.1 75.3 51.8 75.6Z" fill="white"/>
<path opacity="0.5" d="M25.1999 41.0996C24.7999 38.6996 25.4999 36.3996 26.4999 34.2996C27.4999 32.1996 29.3999 30.8996 31.4999 30.0996C31.5999 30.0996 31.6999 30.0996 32.0999 30.1996C31.6999 30.4996 31.5 30.6996 31.3 30.8996C29.8 31.8996 28.3999 32.9996 27.6999 34.5996C26.7999 36.4996 25.8 38.4996 26.4 40.7996C26.5 40.9996 26.3 41.2996 26.3 41.5996C25.8 41.3996 25.4999 41.1996 25.1999 41.0996C25.1999 40.9996 25.1999 41.0996 25.1999 41.0996Z" fill="white"/>
<path opacity="0.5" d="M25.1 15C25.4 15.3 25.8 15.6 26.1 16C26.7 16.8 27.5 17.3 28.5 17.7C30 18.3 31.5 18.9 32.8 19.8C34.1 20.8 35.2 22.2 35.8 23.8C35.7 23.9 35.6 24 35.5 24.1C35.2 23.9 34.7 23.8 34.5 23.5C33.1 20.7 30.6 19.5 27.8 18.5C26.3 17.9 25.6 16.7 24.9 15.3C25 15.2 25 15.1 25.1 15Z" fill="white"/>
<path opacity="0.5" d="M22.3 63.5997C21.7 63.4997 21.1 63.2997 20.5 63.1997C18.1 63.0997 15.8 63.0997 13.5 63.7997C13.1 63.8997 12.7 63.8997 12.3 63.9997C12 63.9997 11.8 63.9997 11.5 63.9997C11.7 63.7997 11.8 63.4996 12.1 63.3996C13.3 62.9996 14.4 62.4996 15.7 62.3996C17.1 62.1996 18.5 62.2996 19.9 62.3996C20.8 62.4996 21.7 62.7997 22.5 63.0997C22.4 63.1997 22.3 63.3997 22.3 63.5997Z" fill="white"/>
<path opacity="0.5" d="M52.9 69C51.4 71.9 50 74.7 48.6 77.6C48 76.1 51.6 69.4 52.9 69Z" fill="white"/>
<path opacity="0.5" d="M34.3 74.3999C33.3 72.0999 32.4 69.7999 31.3 67.3999C33.7 69.1999 33.9 71.8999 34.6 74.2999C34.5 74.2999 34.4 74.2999 34.3 74.3999Z" fill="white"/>
<path opacity="0.5" d="M60.1 81.4998C61.5 80.4998 62.7 79.6998 64 78.7998C63.6 80.0998 61.3 81.6998 60.1 81.4998Z" fill="white"/>
</svg>
