<svg width="101" height="56" viewBox="0 0 101 56" fill="none" xmlns="http://www.w3.org/2000/svg">
<g opacity="0.7">
<path d="M35.6 36.1999C34.8 35.8999 34 35.4999 33.2 35.1999C31 34.4999 29.6 32.6998 27.9 31.2998C24.6 28.5998 22.8001 24.8998 20.8001 21.2998C19.8001 19.4998 18.8 17.5999 17.6 15.9999C14.1 11.2999 6.69998 12.1999 4.09998 16.5999C3.69998 17.2999 3.20006 17.9999 2.80006 18.6999C2.30006 19.3999 1.90001 19.3999 1.50001 18.6999C0.400006 16.6999 0.199982 14.6999 1.09998 12.4999C1.19998 12.1999 1.29996 11.6998 1.19996 11.3998C-0.300042 7.89985 0.399982 4.79986 3.09998 2.19986C5.29998 0.099865 7.80001 -0.000147372 10.5 0.499853C13.2 0.999853 15.4 2.39986 17.6 4.09986C19.7 5.69986 21.6 7.49985 24.1 8.39985C26 9.09985 27.8 9.69986 29.7 10.1999C30 10.2999 30.4 10.0999 30.7 9.99985C32.7 8.69985 35 8.29986 37.4 8.09986C43.1 7.69986 48.7 8.69985 54.1 10.4999C56.8 11.3999 59.4 12.6999 62.1 13.6999C62.8 13.9999 63.6 14.1999 64.4 14.1999C67.7 14.3999 71.1 14.2999 74.4 14.5999C76.2 14.6999 78.1001 15.0999 79.8001 15.5999C85.7001 17.1999 91.6 18.7998 97.5 20.3998C98.3 20.5998 99.0001 21.0998 99.8001 21.3998C100.5 21.6998 100.7 22.1998 100.2 22.8998C98.6 25.1998 96.5 26.8999 94.4 28.6999C93.1 29.6999 91.8 30.6999 90.4 31.6999C87.3 33.9999 83.9 35.2998 80 35.2998C76.2 35.2998 72.5 35.1999 68.7 34.9999C66.8 34.8999 65 34.3999 63.2 33.9999C62.7 33.8999 62.1 33.7999 61.6 33.6999C60.4 33.5999 60.3001 33.5998 60.3001 34.8998C60.4001 37.3998 61.2 39.6999 62.2 42.0999C63.2 44.4999 64.9 45.4999 67.2 45.9999C68.3 46.2999 69.4 46.6999 70.5 47.0999C71 47.2999 71.5001 47.7998 71.8001 48.2998C72.0001 48.5998 72.1 49.0998 71.9 49.3998C71.8 49.5998 71.2 49.6999 70.9 49.5999C70.2 49.3999 69.6 49.0998 68.9 48.8998C68.7 48.7998 68.5 48.7998 68.5 48.7998C67.9 49.3998 67.4 49.8999 67 50.4999C66.8 50.6999 66.8 51.2998 67 51.3998C67.6 52.0998 68.3 52.6998 68.9 53.3998C69.1 53.6998 69.4 53.9998 69.5 54.2998C69.5 54.4998 69.1 54.7998 68.9 54.8998C67.5 55.4998 66 56.1999 64.4 55.6999C61.1 54.5999 60.2 52.6998 61.2 49.2998C61.8 47.0998 61.8 45.4998 60.1 43.7998C58.8 42.4998 57.8 41.0998 56.6 39.7998C55.4 38.4998 54.1001 37.1998 52.8001 35.8998C52.3001 35.3998 51.8 35.2999 51.1 35.4999C48.6 36.4999 46.0001 37.0998 43.3001 37.2998C42.2001 37.3998 41.2001 38.4998 40.3001 39.2998C39.4001 40.1998 38.7 41.2999 37.9 42.1999C36.3 43.9999 34.2 44.3999 32 44.0999C30.2 43.7999 28.5 43.0998 27.1 41.8998C26.5 41.3998 26.1001 41.1998 25.3001 41.7998C24.1001 42.8998 20.8 42.4998 19.7 41.2998C19.5 41.0998 19.4 40.7999 19.5 40.6999C19.6 40.4999 20 40.3998 20.2 40.2998C20.6 40.2998 21.1 40.3998 21.5 40.2998C22 40.1998 22.6001 39.8999 22.8001 39.4999C22.9001 39.1999 22.6001 38.4999 22.3001 38.1999C21.3001 37.4999 20.7 36.5998 20.9 34.9999C19.9 35.3999 19.1001 35.6999 18.3001 36.0999C17.7001 36.3999 17.2 36.7999 16.6 37.0999C15.7 37.5999 14.8 37.1999 14.6 36.1999C14 34.0999 15.5 30.6999 17.5 29.6999C18.9 28.9999 20.2 29.2998 21.4 29.8998C23.2 30.7998 24.8 32.0999 25.9 33.9999C26.8 35.3999 27.6 36.8998 28.5 38.2998C29.6 39.9998 30.7 40.0998 32.4 38.9999C33.6 38.1999 34.8 37.2998 35.9 36.3998C35.7 36.3998 35.6 36.2999 35.6 36.1999ZM6.09998 10.1999C6.09998 10.1999 5.99998 10.1999 6.09998 10.1999C6.39998 10.2999 6.60003 10.4999 6.90003 10.5999C7.30003 10.8999 7.89996 10.9998 8.19996 11.3998C8.69996 12.0998 9.20003 12.0998 9.90003 11.8998C12.9 11.2998 15.4 12.2998 17.7 14.2998C19.7 16.0998 20.6001 18.4999 21.8001 20.6999C23.9001 24.4999 25.9 28.3999 29.5 31.1999C30.4 31.8999 31.1 32.8998 32.1 33.3998C37.8 36.2998 43.6 37.1998 49.7 34.8998C51.1 34.3998 52.5 33.8998 53.9 33.3998C56.8 32.2998 59.8 32.0999 62.9 32.6999C64.7 32.9999 66.5 33.4999 68.4 33.5999C71.7 33.7999 75.0001 33.7998 78.3001 33.8998C80.9001 33.9998 83.4 33.5999 85.9 32.6999C88.2 31.8999 90.1 30.2999 92.1 28.5999C90 28.5999 88.2 28.5999 86.5 28.5999C84.8 28.5999 83.0001 28.4999 81.3001 27.9999C81.5001 27.7999 81.7 27.5999 81.9 27.5999C83 27.4999 84 27.4998 85.1 27.3998C88 27.2998 90.9 27.0999 93.7 26.9999C95.1 26.8999 95.7 25.7999 96.5 24.9999C94 24.9999 91.6 25.0999 89.2 25.1999C85.8 25.2999 82.5 25.0999 81.9 24.4999C82.3 24.3999 82.6 24.2998 82.9 24.2998C87.9 23.9998 93 23.7999 98 23.4999C98.5 23.4999 99.1001 22.8998 99.3001 22.3998C99.5001 21.9998 97.7 21.2999 97.2 21.4999C96.4 21.7999 95.5 22.0999 94.6 22.0999C92 22.2999 89.4001 22.3999 86.8001 22.4999C85.0001 22.5999 83.2 22.4999 81.4 22.4999C81.4 22.3999 81.4 22.1999 81.4 22.0999C83.7 21.8999 86 21.6999 88.4 21.4999C90.7 21.2999 93 20.9998 95.4 20.7998C94.8 20.3998 94.3 20.1999 93.7 19.9999C91.9 19.4999 90.2 18.6999 88.2 18.9999C86.7 19.2999 85.2001 19.3999 83.8001 19.4999C82.4001 19.5999 81 19.6998 79.6 19.7998C79.3 19.7998 79 19.6999 78.7 19.5999C78.7 19.4999 78.7 19.3998 78.7 19.2998C81.4 18.9998 84.1001 18.5998 86.8001 18.2998C86.8001 18.1998 86.8001 18.0998 86.8001 17.8998C85.3001 17.6998 83.7 17.1998 82.2 17.2998C80.1 17.3998 78 17.7999 75.9 17.9999C75 18.0999 74.1001 18.0999 73.3001 17.6999C73.3001 17.5999 73.3001 17.4998 73.3001 17.3998C75.5001 17.1998 77.7 16.9999 79.9 16.6999C79.9 16.5999 79.9 16.4998 79.9 16.3998C75 15.0998 70 14.6999 64.9 14.9999C66.3 15.9999 67.7 16.8999 69.2 17.6999C71.7 18.8999 74.2 20.0999 76.7 21.1999C77.3 21.4999 77.7 21.8999 77.4 22.4999C76.8 23.3999 76.2001 24.4998 75.3001 24.8998C71.8001 26.3998 68.2 27.7999 64.6 29.0999C59.6 30.8999 54.6001 32.5999 49.3001 33.0999C46.8001 33.2999 44.3001 33.4999 41.8001 33.1999C38.3001 32.7999 35.1 31.1999 32.2 29.1999C30.4 27.9999 28.9 26.4999 28.1 24.4999C27.5 22.9999 27.1 21.4999 26.7 19.9999C26.6 19.7999 26.8 19.4998 26.9 19.2998C27 19.2998 27.1 19.2998 27.2 19.2998C27.5 20.0998 27.9 20.8999 28.2 21.6999C28.9 23.9999 29.9001 25.9999 31.8001 27.5999C37.1001 31.7999 43.2001 33.0999 49.8001 32.0999C49.9001 32.0999 50.1 31.9998 50.4 31.8998C50.2 31.7998 50.1 31.6999 50 31.6999C46.4 30.4999 42.9 29.0998 39.1 28.3998C37 27.9998 34.9001 27.1999 33.3001 25.5999C33.1001 25.2999 32.9 24.9999 32.7 24.6999C32.8 24.5999 32.9 24.4999 33 24.4999C33.3 24.6999 33.6001 24.7999 33.8001 24.9999C34.7001 25.5999 35.5 26.2999 36.5 26.6999C38.8 27.4999 41.1 27.3999 43.5 27.0999C44.5 26.9999 45.4 26.7999 46.4 26.5999C44.9 25.9999 43.5 25.4999 42.1 24.9999C41 24.5999 39.8 24.1998 38.7 23.7998C38.5 23.6998 38.4 23.3999 38.2 23.1999C38.4 23.0999 38.7 22.8998 38.9 22.8998C39.1 22.8998 39.3 22.9999 39.5 22.9999C41.2 22.9999 42.8 22.9999 44.5 22.9999C44.3 22.5999 44.1 22.4998 43.9 22.3998C42.2 21.3998 40.4 20.9998 38.4 20.7998C38 20.7998 37.7 20.3999 37.4 20.1999C37.8 20.0999 38.1 19.8998 38.5 19.8998C40.2 19.8998 41.9 19.9998 43.7 19.8998C44.7 19.8998 45.7 19.6999 46.7 19.4999C46.7 19.3999 46.7 19.2999 46.7 19.1999C44.2 18.5999 41.7 17.9998 39.2 17.2998C38.8 17.1998 38.5 16.8999 38.1 16.6999C38.5 16.4999 38.8 16.2999 39.2 16.1999C39.6 16.0999 40.1 16.1999 40.6 16.0999C41.6 15.9999 42.7 15.7999 43.7 15.6999C41.8 15.2999 39.9 14.9999 38.1 14.6999C37.8 14.5999 37.5 14.3999 37.1 14.1999C37.4 13.9999 37.6 13.5999 37.9 13.4999C39.1 13.1999 40.2 12.9998 41.4 12.7998C42 12.6998 42.7001 12.5999 43.3001 12.4999C41.3001 11.7999 39.3001 11.1999 37.3001 10.4999C37.0001 10.3999 36.7 9.99984 36.4 9.79984C36.8 9.69984 37.1 9.39985 37.5 9.39985C40.1 9.59985 42.7 9.79985 45.2 9.99985C46.2 10.0999 47.2 9.99985 48.2 9.99985C48.2 9.89985 48.2 9.79986 48.2 9.69986C46.4 9.39986 44.6001 8.99984 42.8001 8.79984C38.5001 8.49984 34.2001 8.49986 30.3001 11.0999C29.9001 11.3999 29.4 11.3999 28.9 11.5999C28.9 11.5999 28.8 11.4998 28.7 11.3998C28.8 11.0998 28.9 10.8999 28.9 10.6999C27 10.0999 25.0001 9.69984 23.3001 8.79984C21.1001 7.69984 19.2 6.19986 17.2 4.69986C15.2 3.19986 13.1 1.99984 10.7 1.29984C7.39996 0.39984 4.70006 1.19985 2.80006 3.99985C1.40006 5.89985 1.09996 8.09984 2.19996 10.2998C2.29996 10.4998 2.79998 10.6999 3.09998 10.6999C3.99998 10.7999 4.99998 10.4999 6.09998 10.1999ZM72.2 21.5999C72.2 21.4999 72.3001 21.3998 72.3001 21.2998C72.2001 21.1998 72.1 21.0999 71.9 21.0999C70 20.2999 68.1001 19.4999 66.3001 18.6999C64.5001 17.8999 62.7 16.9999 61 16.0999C60.6 15.8999 60.4 15.5998 60.1 15.2998C60.2 15.1998 60.2001 15.0999 60.3001 14.9999C61.7001 15.5999 63.1 16.1999 64.5 16.6999C64.1 16.1999 63.7 15.7999 63.2 15.4999C60 13.4999 56.6 11.9999 52.9 10.9999C52 10.7999 50.9 10.6999 49.9 10.6999C48 10.7999 46 10.9999 44.1 11.0999C43.3 11.0999 42.4 10.9999 41.6 10.9999C43.4 11.5999 45.2 11.8999 47 12.1999C47.3 12.2999 47.5001 12.5998 47.8001 12.7998C47.5001 12.9998 47.2 13.2998 46.9 13.2998C45.6 13.4998 44.2001 13.5999 42.8001 13.6999C41.9001 13.7999 41 13.8999 39.9 14.0999C40.2 14.2999 40.3 14.3998 40.4 14.3998C42.9 14.6998 45.4 14.9998 47.9 15.2998C48.2 15.2998 48.5001 15.5999 48.8001 15.6999C48.5001 15.8999 48.2 16.1999 47.9 16.1999C46.7 16.3999 45.6 16.3999 44.4 16.5999C43.6 16.6999 42.7 16.7998 41.9 16.8998C44.3 17.8998 46.7 18.6999 49.4 18.5999C49.7 18.5999 50.1 18.8999 50.4 18.9999C50.1 19.1999 49.8 19.5999 49.5 19.5999C47.5 19.9999 45.5 20.3998 43.5 20.7998C43.4 20.7998 43.2 20.8998 43.1 20.8998C43.1 20.9998 43.1 21.0999 43 21.1999C43.8 21.4999 44.6 21.8999 45.4 21.9999C46.6 22.1999 47.8 22.1998 49 22.2998C49.3 22.2998 49.6001 22.5998 49.8001 22.7998C49.6001 22.9998 49.3 23.2998 49.1 23.3998C47.9 23.5998 46.6 23.7998 45.4 23.8998C44.4 23.9998 43.3 24.0999 42 24.0999C42.5 24.2999 42.7 24.3999 42.9 24.4999C45 25.2999 47.2 25.7998 49.5 25.7998C49.8 25.7998 50.1 26.1998 50.4 26.2998C50.1 26.4998 49.9 26.7998 49.6 26.7998C47.6 27.1998 45.5 27.4998 43.5 27.8998C43.3 27.8998 43.0001 27.9999 42.8001 28.0999C45.4001 29.1999 48 30.0998 50.7 30.8998C51.7 31.1998 52.9 31.3999 53.9 31.1999C55.8 30.8999 57.6 30.3998 59.5 29.7998C60.9 29.3998 62.3 28.7998 63.7 28.2998C60.4 28.1998 57.2 28.0999 54 27.4999C54.3 27.1999 54.7 26.9999 55 26.9999C55.9 26.9999 56.8 26.9999 57.6 26.9999C62.9 26.9999 68.2 26.5999 73.1 24.4999C73.4 24.3999 73.7 24.1999 74 23.9999C67.2 24.2999 57.0001 23.3999 55.8001 22.0999C61.6001 22.0999 67.2001 23.2999 72.8001 22.5999C72.0001 22.4999 71.3 22.3999 70.5 22.1999C67 21.2999 63.5 20.3999 60.1 19.4999C59.1 19.1999 58.2001 18.6999 57.3001 18.1999C57.1001 18.0999 56.9001 17.7999 56.8001 17.6999C56.9001 17.5999 56.9 17.4998 57 17.2998C62 19.1998 67 20.8999 72.2 21.5999ZM23.7 37.7998C23.6 37.8998 23.5001 37.9999 23.3001 38.0999C23.5001 38.3999 23.7 38.7999 24 38.9999C25.4 39.9999 26.8 40.7998 28.2 41.7998C30.7 43.4998 34.1 43.8999 36.1 42.4999C36.8 41.9999 37.2001 41.2999 37.8001 40.6999C38.8001 39.5999 39.7 38.4998 40.7 37.3998C39.7 37.1998 38.7 36.9998 37.7 36.7998C37.1 36.5998 36.7 36.7998 36.2 37.2998C34.8 38.4998 33.4 39.5999 31.9 40.5999C30.8 41.3999 29.4 41.1999 28.4 40.1999C27.6 39.3999 27.0001 38.3998 26.3001 37.3998C25.4001 35.9998 24.6 34.4998 23.6 33.2998C22.3 31.7998 20.7 30.5998 18.4 30.7998C17.1 30.8998 16 31.9999 16.2 32.9999C19 31.7999 20.7001 31.8999 21.3001 33.0999C21.0001 33.0999 20.8 33.0998 20.6 32.9999C18.2 32.3999 16.6 33.1999 15.6 35.4999C15.5 35.6999 15.6 35.9998 15.6 36.2998C15.8 36.2998 16.1001 36.2999 16.3001 36.1999C16.8001 35.8999 17.2 35.4998 17.7 35.3998C19 34.9998 20.3 34.5998 21.6 34.2998C21.8 34.2998 22.2001 34.4998 22.3001 34.7998C22.4001 34.8998 22.3 35.2998 22.1 35.3998C21.5 35.7998 21.4001 36.2999 21.8001 36.6999C22.0001 36.9999 22.6 37.0999 23 37.0999C24.3 36.9999 26.1 38.0998 26.4 39.2998C25.5 38.6998 24.6 38.2998 23.7 37.7998ZM52.9 34.7998C53.2 35.1998 53.3 35.2998 53.4 35.3998C56.5 38.3998 59.7 41.2998 62.1 44.8998C62.8 45.8998 63 46.7999 62.5 47.9999C62.2 48.6999 62.0001 49.4999 61.8001 50.1999C61.6001 50.9999 62.0001 51.2999 62.8001 50.9999C63.9001 50.6999 64.8 49.4998 64.9 48.3998C65 47.2998 65.4 46.8999 66.4 47.1999C67.5 47.3999 68.5 47.6999 69.6 47.9999C68.9 47.5998 68.1001 47.1999 67.3001 47.0999C64.5001 46.5999 62.4 45.3999 61.2 42.4999C60 39.7999 59.2001 37.1998 59.3001 34.2998C59.3001 33.6998 59.1 33.2999 58.5 33.4999C56.6 33.7999 54.8 34.2998 52.9 34.7998ZM7.59998 12.2998C7.19998 11.4998 6.60006 11.0998 5.80006 11.2998C5.00005 11.4998 3.89998 13.8999 4.09998 14.6999C5.19998 13.9999 6.29998 13.0998 7.59998 12.2998ZM2.00001 16.5999C2.70001 14.7999 3.39998 13.0998 4.09998 11.3998C1.59998 11.8998 1.10001 14.4999 2.00001 16.5999ZM65.1 50.0999C64.8 50.6999 64.2 51.1998 64.2 51.7998C64.2 52.8998 66.1 53.9998 67.2 53.7998C66.5 52.6998 65.8 51.4999 65.1 50.0999ZM65.5 54.7998C64.8 53.9998 64 53.1998 63.2 52.3998C63 52.1998 62.6001 52.1999 62.3001 52.1999C62.2001 52.1999 62.1 52.6999 62.1 52.9999C62.5 54.0998 64.3 54.9998 65.5 54.7998ZM22.6 41.2998C22.6 41.3998 22.7 41.4999 22.7 41.4999C23.2 41.3999 23.8001 41.3999 24.3001 41.1999C24.5001 41.0999 24.7 40.8999 24.9 40.5999C24.9 40.4999 24.7 40.1999 24.5 40.0999C24.2 39.9999 23.8 39.8999 23.6 40.0999C23.2 40.4999 22.9 40.9998 22.6 41.2998ZM67.2 48.9999C66.7 48.5998 66.3 48.2998 65.9 47.8998C65.8 48.1998 65.6 48.5998 65.6 48.7998C65.8 49.4998 66.3 49.3999 67.2 48.9999Z" fill="white"/>
<path d="M6.09992 10.1997C5.29992 9.59973 4.89992 8.89971 5.09992 7.89971C5.39992 6.79971 5.99992 5.99971 7.09992 5.89971C8.39992 5.79971 9.69994 5.79971 10.9999 5.89971C12.1999 5.99971 13.2999 6.0997 14.4999 6.2997C14.7999 6.2997 15.1 6.5997 15.4 6.7997C15.2 6.9997 15.1 7.39971 14.9 7.49971C13.1 8.39971 11.3 9.39971 9.39997 9.99971C8.39997 10.3997 7.19992 10.1997 6.09992 10.1997C5.99992 10.1997 6.09992 10.1997 6.09992 10.1997ZM12.6999 7.49971C12.6999 7.39971 12.6999 7.29973 12.5999 7.19973C11.7999 7.09973 11.1 6.89971 10.3 6.89971C9.19999 6.89971 8.09994 6.79971 6.99994 6.99971C6.19994 7.09971 5.89997 7.89972 5.89997 8.59972C5.99997 9.39972 6.59989 9.39971 7.19989 9.39971C9.49989 9.59971 10.8999 8.09971 12.6999 7.49971Z" fill="white"/>
<path d="M23.4 13.2001C20.9 11.9001 18.5 10.6001 16 9.30009C16 9.20009 16 9.10011 16 9.10011C16.3 9.10011 16.7 9.00011 17 9.10011C18.6 9.80011 20.1 10.5001 21.6 11.2001C22.1 11.5001 22.6 11.8001 23 12.2001C23.2 12.4001 23.4 12.7001 23.6 12.9001C23.5 13.1001 23.4 13.2001 23.4 13.2001Z" fill="white"/>
<path d="M27.8 13.9997C28.6 13.8997 29.3 14.2997 29.9 14.8997C30.9 15.8997 30.6 18.1997 29.4 18.7997C29.1 18.8997 28.7 18.7997 28.3 18.7997C28.4 18.4997 28.5 18.1997 28.7 17.9997C29.6 17.1997 29.5 15.5997 28.5 14.9997C28.2 14.7997 27.9 14.5997 27.6 14.3997C27.7 14.1997 27.7 14.0997 27.8 13.9997Z" fill="white"/>
<path d="M8 9.09991C7.7 8.69991 7.40002 8.39992 7.40002 8.19992C7.50002 7.89992 7.89998 7.6999 8.09998 7.3999C8.29998 7.5999 8.69995 7.79991 8.69995 7.99991C8.59995 8.29991 8.3 8.59991 8 9.09991Z" fill="white"/>
</g>
</svg>
