<svg width="144" height="100" viewBox="0 0 144 100" fill="none" xmlns="http://www.w3.org/2000/svg">
<g opacity="0.7">
<path d="M82.9 38.7001C83 38.1001 82.9 37.4001 83.1 36.8001C84.2 33.5001 84.1 30.2001 82.2 27.2001C82 26.8001 81.7001 26.3001 81.3 26.1001C79.4 25.2001 77.4 24.3001 75.4 23.7001C74 23.2001 72.3 23.3001 70.9 22.9001C69.4 22.5001 67.9 21.9001 66.6 21.1001C64.8 20.1001 64.3999 19.9001 62.7 21.1001C61.5 21.9001 61.5 22.8001 62.7 23.6001C64.1 24.6001 65.3999 25.7001 66.7 26.8001C67 27.1001 67.2001 27.6001 67.3 28.1001C66.1001 26.8001 63.9 27.2001 63.1 25.2001C63 24.8001 62 24.5001 61.5 24.6001C60.7 24.8001 60.6 25.7001 60.9 26.4001C61.7 28.7001 62.8 30.8001 64.5 32.6001C65 33.2001 65.6 33.8001 66 34.5001C67.8 36.9001 69.7 37.6001 72.5 36.6001C72.8 36.5001 73.1 36.4001 73.4 36.3001C73.6 37.3001 73 37.5001 72.5 37.8001C70.2 38.8001 67.3 38.0001 65.6 36.0001C65.3 35.7001 65.1 35.3001 64.7 34.9001C62.4 37.1001 59.7 36.7001 57.1 36.2001C55.7 35.9001 54.2 35.3001 53 34.5001C48.5 31.6001 43.4 31.5001 38.3 31.6001C35.8 31.6001 33.3 31.7001 30.8 31.9001C26.5 32.1001 22.2 32.7001 18.1 33.9001C14.1 35.0001 11.9 38.0001 10 41.4001C9.7 42.0001 9.49995 42.6001 9.19995 43.2001C8.49995 44.8001 6.79998 45.1001 5.59998 43.8001C4.49998 42.6001 4.29995 41.2001 4.69995 39.7001C4.89995 39.1001 5.5 38.3001 4.5 37.8001C3.5 37.4001 2.79995 37.9001 2.19995 38.6001C0.699951 40.6001 0.699976 44.0001 2.09998 46.1001C2.99998 47.4001 4.30005 47.7001 5.80005 47.9001C6.40005 48.0001 7.09995 48.1001 7.69995 48.2001C7.69995 48.3001 7.69995 48.5001 7.69995 48.6001C7.39995 48.7001 6.99995 48.9001 6.69995 49.0001C2.99995 49.3001 0 46.8001 0 43.0001C0 41.4001 0.599951 39.8001 1.19995 38.3001C1.59995 37.5001 2.69998 36.9001 3.59998 36.7001C5.29998 36.3001 6.30002 37.5001 5.90002 39.2001C5.70002 40.1001 5.49995 41.1001 5.69995 41.9001C5.89995 42.5001 6.59995 43.3001 7.19995 43.5001C8.09995 43.8001 8.39995 42.8001 8.69995 42.1001C9.59995 39.7001 11.1 37.7001 12.8 35.8001C14.9 33.5001 17.7 32.9001 20.4 32.3001C25 31.2001 29.6 30.8001 34.3 30.9001C38.4 30.9001 42.6 31.0001 46.7 31.3001C48.1 31.4001 49.4 31.9001 50.7 32.5001C52.1 33.1001 53.4 33.8001 54.7 34.6001C57.1 35.9001 62.1 36.2001 63.9 34.5001C63.7 34.2001 63.4 33.8001 63.2 33.5001C62.1 31.5001 60.9 29.5001 59.9 27.4001C59.4 26.4001 59.6 25.3001 60.4 24.4001C60.7 24.1001 60.7001 23.6001 60.8 23.2001C60.9 22.7001 60.8 22.1001 61.1 21.7001C62.1 20.0001 64.7 19.2001 66.2 20.3001C68.7999 22.2001 71.8 22.3001 74.8 22.9001C76.6001 23.3001 78.3999 24.1001 80.2 24.6001C80.7999 24.8001 81.5 24.9001 82.2 24.8001C84.2 24.7001 86.1 24.5001 88.1 24.4001C89.5 24.3001 89.9 25.0001 89 26.1001C87.9 27.6001 86.5 28.8001 85.3 30.2001C86.1001 30.5001 87.1 30.3001 88 29.7001C89.2 28.9001 90.4 27.9001 91.6 27.0001C91.9 26.8001 92.2999 26.7001 92.7 26.6001C92.7999 27.0001 92.9 27.3001 93.1 27.7001V27.8001C92.9 29.0001 92.4 30.2001 92.5 31.3001C92.6 32.4001 93.4 33.4001 93.9 34.4001C94 34.6001 94.1 34.9001 94.1 35.1001C94 35.5001 93.9 36.0001 93.8 36.4001C93.4 36.2001 92.9 36.2001 92.5 35.9001C91.5 35.1001 90.5 34.3001 89.5 33.5001C88.2 32.5001 86.8 33.2001 85.4 33.3001C85.2 33.3001 85 33.8001 84.9 34.0001C84.6 35.1001 84.4 36.3001 84.3 37.4001C84.3 37.8001 84.7 38.4001 85 38.5001C87.2 39.6001 89.5 39.8001 91.9 39.8001C92.1 39.8001 92.4 39.7001 92.6 39.7001C93 39.8001 93.2999 39.9001 93.7 40.1001C93.5 40.4001 93.5 40.8001 93.2 41.1001C92.7999 41.5001 92.4 41.9001 91.9 42.1001C91 42.5001 91.1 42.9001 91.5 43.6001C92.3 44.9001 93 46.2001 92.7 47.8001C92.6 48.2001 92.2 48.6001 91.9 49.0001C91.5 48.7001 91.1001 48.5001 90.8 48.2001C89.4 46.4001 88 44.6001 86.6 42.8001C86.3 42.5001 85.8999 42.3001 85.2 41.8001C85.6 43.3001 85.9 44.4001 86.3 45.6001C86.7001 47.1001 86.2999 47.8001 84.7 47.4001C83 46.9001 81.2999 46.2001 79.7 45.3001C78.7 44.8001 78 44.6001 77 45.1001C75.4 45.9001 73.7 46.4001 72.1 47.1001C71.2 47.5001 70.3 48.1001 69.4 48.4001C66.2 49.7001 65.4 52.4001 65.1 55.4001C64.8 57.9001 64.8 60.3001 65.9 62.6001C66.6 64.0001 67.5 65.2001 68.4 66.8001C69 66.0001 69.4 65.5001 69.9 65.0001C70.2 64.8001 70.5 64.6001 70.9 64.5001C71 64.9001 71.1 65.3001 71.1 65.7001C71.1 66.0001 71 66.2001 71 66.5001C71.1 66.6001 71.2 66.7001 71.2 66.7001C71.7 66.7001 72.2 66.8001 72.7 66.8001C72.5 67.3001 72.3 67.8001 72 68.2001C68.8 71.4001 67.8999 71.2001 65.2 68.3001C63.4 66.4001 62.2 64.0001 60.7 61.8001C60.4 61.3001 60.2 60.7001 59.9 60.2001C59.7 60.2001 59.6 60.2001 59.6 60.3001C58.6 63.1001 57.5 65.8001 56.6 68.7001C55.8 71.4001 57.6 72.4001 60 73.0001C60.5 73.1001 61 73.0001 61.6 73.0001C62.7 72.9001 63 73.3001 62.5 74.3001C62.3 74.7001 62 75.1001 61.7 75.7001C62.2 75.8001 62.6 75.8001 62.9 76.0001C63.4 76.2001 63.9 76.5001 64.4 76.8001C63.9 77.1001 63.5 77.7001 63 77.8001C60.4 78.2001 57.9 78.0001 55.4 76.9001C55.1 76.8001 54.8 76.6001 54.5 76.5001C53.2 76.0001 52.6 75.1001 52.6 73.7001C52.7 69.3001 52.7 65.0001 52.7 60.6001C52.7 59.6001 53 58.2001 52.4 57.6001C52 57.0001 50.6 57.2001 49.6 57.0001C42.8 55.8001 35.9 54.5001 29.1 53.2001C28.5 53.1001 27.9 53.0001 27.9 53.8001C27.6 56.5001 27.3 59.3001 27.1 62.0001C26.9 64.2001 27.6 66.2001 28.3 68.2001C28.6 69.1001 29.1 69.3001 29.9 68.8001C30.4 68.5001 30.8 68.3001 31.3 68.1001C31.6 68.0001 32 68.1001 32.3 68.1001C32.3 68.4001 32.2999 68.8001 32.2 69.1001C32.1 69.5001 31.8 69.8001 31.5 70.4001C32.1 70.4001 32.6 70.4001 33 70.5001C33.3 70.6001 33.6 70.8001 33.7 71.0001C33.7999 71.2001 33.5 71.7001 33.3 71.7001C31.7 71.9001 30.5 73.3001 28.8 73.1001C28 73.0001 27.1 73.4001 26.2 73.5001C24.7 73.7001 24.2 73.3001 24.1 71.9001C23.8 66.9001 22.3 62.1001 20.8 57.4001C20.7 57.2001 20.6 57.1001 20.4 56.7001C19.7 57.7001 18.9 58.5001 18.4 59.5001C17.3 61.7001 16.4 63.9001 15.5 66.1001C14.5 68.7001 13.5 71.4001 12.6 74.1001C12.5 74.3001 12.5 74.4001 12.4 74.5001C11.3 77.5001 11.6 78.2001 14.6 79.4001C14.8 79.5001 15 79.5001 15.2 79.6001C15.5 79.9001 15.7 80.2001 16 80.5001C15.6 80.6001 15.3 80.8001 14.9 80.9001C14.5 80.9001 14.1 80.8001 13.7 80.8001C13.7 81.0001 13.7 81.2001 13.8 81.3001C14 81.7001 14.2 82.2001 14.3 82.6001C13.8 82.5001 13.1 82.7001 12.8 82.4001C10.6 81.0001 8.89995 79.2001 7.69995 77.0001C7.49995 76.6001 7.59995 76.0001 7.69995 75.5001C8.79995 71.0001 9.50005 66.6001 8.80005 62.0001C8.20005 57.8001 7.69998 53.6001 8.59998 49.3001C8.69998 48.6001 9.10005 48.0001 9.30005 47.4001C9.50005 47.4001 9.60005 47.5001 9.80005 47.5001C9.70005 48.1001 9.6 48.7001 9.5 49.4001C9.4 52.2001 9.30002 54.9001 9.40002 57.7001C9.50002 60.6001 10.3 63.5001 10.2 66.4001C10.1 69.6001 9.40005 72.7001 8.80005 75.9001C8.60005 77.0001 9.4 78.8001 10.5 79.1001C10.7 79.2001 11.2 78.7001 11.2 78.5001C11.4 72.4001 14.3 67.0001 16.5 61.5001C17.4 59.3001 18.8 57.4001 20.3 55.5001C22.1 53.2001 23.6 50.8001 24.6 48.0001C24.7 47.7001 25.1 47.5001 25.3 47.2001C25.4 47.6001 25.7 47.9001 25.6 48.3001C25.4 49.2001 25 50.1001 24.6 51.2001C34 52.9001 43.2 55.0001 52.7 55.9001C52.6 55.0001 52.6 54.2001 52.6 53.5001C52.7 53.5001 52.9 53.4001 53 53.4001C53.7 54.5001 54 55.7001 54 57.0001C54.1 62.0001 54.4 67.0001 54.2 72.0001C54.1 75.2001 55.4 75.7001 58.1 76.3001C58.5 75.1001 59 73.9001 57.4 72.9001C55.6 71.7001 55.3 69.9001 55.8 67.9001C57.4 62.2001 59.5 56.7001 63.3 52.0001C65.9 48.8001 69.5 46.9001 73.3 45.4001C74.5 44.9001 75.6001 44.4001 76.8 44.0001C77.7001 43.6001 78.1 43.1001 77.6 42.2001C77.5 41.9001 77.5 41.6001 77.6 41.2001C78.8 42.2001 78.9 44.1001 80.6 44.7001C82.1 45.2001 83.4 45.9001 84.9 46.4001C84.8 44.4001 84.2999 42.7001 83.2 41.2001C82.8999 40.8001 82.7 40.5001 82.4 40.1001C82 39.2001 82.1 38.9001 82.9 38.7001C83.9 39.4001 85.1 40.0001 86 40.8001C87.9 42.5001 89.7 44.4001 91.6 46.2001C91.2 45.4001 90.8 44.4001 90.3 43.6001C89.3 42.0001 89.3 42.0001 90.8 41.0001V40.9001C90.7001 40.9001 90.7 40.8001 90.6 40.8001C88.3 40.6001 86 40.2001 83.9 38.9001C83.7 38.7001 83.2 38.7001 82.9 38.7001ZM26.5 71.9001C27.1 71.8001 27.8 71.7001 28.4 71.5001C28.6 71.4001 28.9 71.1001 29 70.8001C29 70.6001 28.8 70.4001 28.6 70.2001C28.4 69.9001 28 69.8001 27.9 69.5001C26.8 66.9001 25.8 64.3001 26.1 61.4001C26.4 58.9001 26.7 56.3001 26.9 53.8001C27 53.1001 27.3 52.4001 26.3 52.1001C24.9 51.6001 24 51.7001 23.4 52.5001C22.9 53.3001 22.3 54.0001 21.8 54.8001C21.6 55.2001 21.4 55.9001 21.6 56.3001C22.2 58.4001 23.1 60.4001 23.6 62.5001C24.3 65.3001 24.8 68.1001 25.3 71.0001C25.5 71.5001 25.6 72.0001 26.5 71.9001ZM64.4 52.6001C64.3 52.5001 64.1 52.5001 64 52.4001C62.9 54.2001 61.7999 56.1001 60.7 57.9001C60.6 58.2001 60.6 58.7001 60.7 58.9001C62.5 61.7001 64.2999 64.5001 66.2 67.2001C66.3999 67.5001 67.1 67.4001 67.5 67.5001C67.4 67.1001 67.5 66.5001 67.2 66.2001C66.6 65.3001 65.7 64.6001 65.2 63.7001C63.9 61.2001 63.4 58.5001 63.9 55.6001C64 54.7001 64.2 53.6001 64.4 52.6001ZM85.1 31.1001C86.7 31.7001 88.4 31.3001 89.9 30.7001C90.9 30.3001 91.6 29.7001 91.6 28.3001C90.5 29.0001 89.5 29.8001 88.5 30.2001C87.4 30.8001 86.2 30.9001 85.1 31.1001ZM85.5 27.8001C85.6 27.9001 85.7 28.0001 85.7 28.0001C86.5 27.2001 87.2999 26.3001 88.2 25.4001C85.3999 25.0001 83.4 25.2001 82.6 26.2001C83.5 26.1001 84.1001 26.0001 84.8 26.0001C86 26.0001 86.2 26.3001 85.7 27.3001C85.7 27.4001 85.6 27.6001 85.5 27.8001ZM92.2 34.0001C92.2999 33.9001 92.5 33.8001 92.6 33.7001C92.2 33.1001 91.7999 32.4001 91.2 31.9001C91 31.7001 90.4 32.0001 89.8 32.2001C90.8 32.9001 91.5 33.5001 92.2 34.0001Z" fill="white"/>
<path d="M118.3 59.2C118.6 57.7 118.8 56.2 119.1 54.6C119.8 49.5 119.9 44.5 119.9 39.4C119.9 36.2 120.4 33 120.6 29.8C120.6 29.5 120.7 29.1 120.6 28.9C118.8 25.2 117.8 20.2 118.4 16.3C118.8 13.5 118.9 12 121 8.89999C121.2 7.89999 121.9 7.00001 122.6 6.20001C123 5.70001 123.2 5.29999 122.7 4.79999C122.3 4.39999 122 4.00001 121.8 3.60001C121.1 2.50001 121.5 1.50001 122.8 1.20001C123.3 1.10001 123.9 0.999988 124.4 0.799988C125.5 0.599988 126.2 1.10001 126.1 2.20001C126 3.10001 125.6 3.89999 125.5 4.79999C125.4 5.49999 125.6 6.19999 125.9 6.79999C127 8.79999 128.5 10.9 128.3 13.4C128.2 15.8 128.2 18.3 128.2 20.7C128.1 23 127.2 25.1 125.9 27C125.1 28.2 124.7 29.4 124.7 30.9C124.7 34.7 124.5 38.4 124.3 42.2C124.3 42.6 124.3 43 124.3 43.4C124.4 43.5 124.6 43.6 124.7 43.7C124.8 43.5 124.8 43.3 124.9 43.1C126.6 40 129.3 37.9 132.2 36C135.6 33.6 139.9 33.9 143 36.6C143.2 36.8 143.4 37.2 143.4 37.5C143.4 37.6 142.9 37.8 142.6 37.9C142 38 141.3 38.1 140.7 38.1C137.9 38.2 135.6 39.5 133.8 41.4C131.3 44 129 46.8 126.9 49.7C125.8 51.2 125.1 53.1 124.3 54.8C124.2 54.9 124.1 55.1 124.2 55.3C124.5 58.1 124.7 60.9 125 63.8C125 63.9 125.1 63.9 125.2 64C126 62.4 126.7 60.7 127.5 59.2C128.1 58.1 128.8 57.2 129.4 56.2C130.3 54.9 131.5 54.1 133 54C134.8 53.9 136.6 53.8 138.4 53.9C140 54 140.6 55.4 141.1 56.6C141.2 56.8 140.7 57.2 140.5 57.4C140.5 57.5 140.3 57.4 140.2 57.4C137 55.8 135.4 58.3 133.7 60.1C132.2 61.7 131.1 63.7 130.1 65.6C127.7 69.9 126.2 74.6 125.1 79.3C124.6 81.5 124.4 83.8 124.3 86.1C124.1 89 125 91.6 126.7 94C127.6 95.3 127.5 96.7 127 98.1C126.9 98.4 126.5 98.7 126.3 98.9C126.1 98.6 125.8 98.3 125.7 98C124.7 96.1 123.7 94.1 122.7 92.2C122.6 92.2 122.5 92.3 122.4 92.3C122.4 93.6 122.4 94.9 122.4 96.2C122.4 96.8 122.5 97.5 122.5 98.1C122.5 98.5 122.4 98.8 122.3 99.2C121.9 99 121.3 98.9 121.1 98.6C120.3 97.2 119.6 95.7 118.9 94.2C118.7 93.9 118.7 93.5 118.6 92.8C118.1 94.6 117.7 96.1 117.3 97.7C117.2 97.9 117.2 98.1 117.1 98.3C116.8 98.7 116.6 99 116.3 99.4C116 99 115.7 98.6 115.6 98.2C115.4 97.1 115.3 95.9 115.2 94.6C114.4 95.8 113.8 96.8 113.1 97.8C112.9 98.1 112.3 98.2 111.9 98.4C111.9 98 111.8 97.5 111.9 97.1C112.1 95.6 112.4 94.2 112.7 92.7C113 91.6 113.2 90.5 113.8 89.6C114.4 88.5 114.8 87.4 114.8 86.1C115 82.1 115.3 78.1 115.5 74.1C115.7 70.1 114.9 66.3 113.7 62.5C112.8 59.7 111.9 56.9 110.8 54.1C109.9 51.8 108 50.6 105.7 49.9C105.3 49.8 104.9 49.4 104.6 49.2C104.9 48.9 105.2 48.5 105.6 48.3C107.5 47.3 109.6 47.2 111.7 47.5C113.8 47.7 114.9 49.2 115.6 51C116.4 53.4 117.1 55.7 117.8 58.1C117.9 58.4 118 58.7 118.2 59.1C118.1 59.2 118.2 59.2 118.3 59.2ZM106.4 49.1C107 49.4 107.6 49.5 108 49.8C109 50.5 110.1 51.1 110.8 52C111.8 53.5 112.6 55.1 113.2 56.8C113.9 58.7 114.4 60.6 114.9 62.6C115.9 66.5 116.6 70.5 116.6 74.6C116.6 78.9 116 83.1 115.5 87.3C115.4 88.5 115.9 88.7 116.8 88.7C117.5 88.7 118.2 88.6 118.9 88.6C120.1 88.6 121.3 88.7 122.4 88.6C123.1 88.6 123.3 88.1 123.3 87.4C123.2 86 123.1 84.7 123.3 83.3C124.1 76.7 126.2 70.5 129.3 64.7C130 63.5 130.8 62.4 131.6 61.2C133.5 58.4 135.4 55.7 139.3 55.5C138.9 55.2 138.5 54.9 138.1 54.9C137 54.8 135.8 54.9 134.7 54.8C132.2 54.6 130.5 55.8 129.3 57.8C126.7 62.3 124.3 67 123.4 72.2C123.2 73.2 122.9 74.1 122.7 75.1C122.5 75.1 122.3 75 122.2 75C122.7 72.1 123.3 69.2 123.9 66C122.7 66.7 121.6 67.1 120.8 67.8C120.4 68.1 120.3 68.9 120.4 69.4C120.6 71 121 72.6 121.1 74.3C121.2 75.5 121 76.7 120.9 77.9C120.7 77.9 120.6 77.9 120.4 77.9C120.3 77.5 120.3 77 120.2 76.6C119.5 72.2 118.9 67.7 118 63.4C117.2 59.6 115.8 55.9 114.8 52.1C113.7 48.1 110.3 47.6 106.4 49.1ZM123.8 6C123.2 7.1 122.5 7.89999 122.3 8.89999C120.7 11.1 119.9 13.6 119.5 16.2C119 19.3 119.2 23 121 26C121.1 26.3 121.2 26.9 121.4 26.9C122.6 27.2 122.2 28 122.1 28.7C122.1 29.3 121.8 29.8 121.8 30.4C121.7 34.5 121.7 38.6 121.4 42.7C121.1 47.5 120.6 52.3 120.1 57C119.9 58.9 120.9 60.6 123 61.1C123 60.2 123 59.4 123 58.5C122.9 54.8 122.6 51.1 122.7 47.3C122.8 42 123.2 36.7 123.4 31.3C123.5 29.6 123.8 28 124.7 26.4C125.6 24.9 126.7 23.4 126.9 21.6C127.3 18.6 127.3 15.5 127.2 12.5C127.2 10.2 125.8 7.9 123.8 6ZM123.7 52.8C123.9 52.8 124 52.8 124.2 52.9C124.3 52.6 124.4 52.3 124.6 52.1C125.6 50.3 126.4 48.4 127.6 46.8C129.2 44.6 131 42.5 133 40.7C134.8 39 136.9 37.4 139.6 37.3C140.1 37.3 140.5 37.1 141 37C141 36.9 141 36.7 141.1 36.6C140.3 36.3 139.4 35.8 138.6 35.7C136.1 35.4 133.8 36 131.8 37.6C130.7 38.5 129.4 39.3 128.5 40.4C127 42.1 125.2 43.9 124.4 46C123.6 47.9 123.9 50.4 123.7 52.8ZM119.9 59.4C119.7 59.6 119.5 59.7 119.4 59.9C118.5 62.2 119.5 64.3 120.1 66.5C120.9 66.1 121.6 65.8 122.4 65.5C124 64.8 124.1 64.6 123.4 63C123.2 62.6 122.8 62.4 122.5 62.1C121.8 61.6 121.1 61.1 120.5 60.5C120.1 60.3 120.1 59.8 119.9 59.4ZM120.7 96.8C120.8 96.8 120.9 96.7 121 96.7C121 94.7 121 92.7 120.9 90.7C120.9 90.4 120.2 90.1 119.8 90C119.6 90 119.2 90.6 119.2 90.9C119.3 91.8 119.5 92.7 119.7 93.6C120.1 94.7 120.4 95.7 120.7 96.8ZM116.4 95.9C116.5 95.9 116.7 95.9 116.8 95.9C117.1 94 117.4 92 117.7 90.1C117.7 89.9 117.4 89.6 117.2 89.6C116.9 89.6 116.5 89.9 116.5 90C116.3 92 116.4 93.9 116.4 95.9ZM125.3 1.89999C125.2 1.79999 125.1 1.70001 125 1.60001C124.3 2.10001 123.7 3.99999 122.9 1.89999C122 2.59999 122.8 4.2 124.6 5C124.8 4 125 2.99999 125.3 1.89999ZM125.8 95.9C125.9 95.9 126 95.8 126.1 95.8C126 95.5 126.1 95.3 125.9 95C125 93.3 124.1 91.6 123.2 90C123.1 89.8 122.7 89.8 122.5 89.7C122.5 90 122.3 90.3 122.4 90.5C123 91.4 123.7 92.3 124.3 93.2C124.9 94.1 125.4 95.1 125.8 95.9ZM113.4 93.9C113.5 93.9 113.7 94 113.8 94C114.2 92.6 115 91.4 115 89.9C114.8 89.9 114.6 89.8 114.4 89.8C114.1 91.2 113.8 92.6 113.4 93.9Z" fill="white"/>
<path d="M77.3 33.6C74.5 33.5 71.7 31.3 70.9 28.7C70.6 27.6 71 27.2 72.1 27.3C75.4 27.6 77.4 28.7 78.4 32.2C78.7 33.3 78.4 33.6 77.3 33.6ZM76.9 32.6C77 32.5 77.0999 32.4 77.1999 32.2C76.7999 31.4 76.5 30.7 76.1 29.8C75.5 30.6 75.1 31.1 74.5 31.8C75.4 32.1 76.2 32.3 76.9 32.6ZM74.4 28.7C73.5 28.5 72.7 28.3 72 28.1C71.9 28.2 71.9 28.3 71.8 28.5C72.3 29.2 72.7 30 73.3 30.9C73.7 30.1 74 29.5 74.4 28.7Z" fill="white"/>
<path d="M73.2 26.1C75.2 25.4 77.1 25.5 78.9 26.7C80.2 27.5 81.2 29.8 80.8 31.4C80.7 31.8 80.3 32 80.1 32.3C80 32 79.7 31.6 79.7 31.3C79.8 28.1 78.5 26.7 75.3 26.6C74.6 26.6 73.9 26.6 73.2 26.6C73.2 26.5 73.2 26.3 73.2 26.1Z" fill="white"/>
<path d="M83.8 44.6999C83.5 44.5999 83.1 44.5999 82.9 44.4999C81.6 43.6999 80.4 42.6999 80.2 40.9999C80.2 40.6999 80.4 40.2999 80.5 39.8999C80.8 39.9999 81.3 39.9999 81.4 40.2999C82.3 41.5999 83.2 42.9999 84.1 44.3999C84 44.3999 83.9 44.5999 83.8 44.6999Z" fill="white"/>
<path d="M63.2 22.3001C63.8 21.7001 64.5 21.8001 65.2 22.0001C66.6 22.4001 68.1 22.9001 69.5 23.4001C69.7 23.5001 69.9 23.8001 70 23.9001C69.8 24.1001 69.6 24.4001 69.4 24.4001C68.9 24.5001 68.3 24.5001 67.9 24.3001C66.4 23.8001 64.8 23.0001 63.2 22.3001Z" fill="white"/>
<path d="M34.4 40.9C32.9 40.9 31.3 40.9 29.7 40.9C30.8 40 33.3 39.9 34.4 40.9Z" fill="white"/>
<path d="M32.6 49.7002C31.3 50.2002 30.2 49.9002 29.1 49.4002C29 49.3002 28.8001 49.1002 28.9001 48.9002C28.9001 48.8002 29.2001 48.5002 29.3001 48.6002C30.4001 48.8002 31.7 48.9002 32.6 49.7002Z" fill="white"/>
<path d="M58.6 48.6003C58 49.3003 56.3999 49.9003 55.6999 49.6003C55.4999 49.5003 55.3 48.9002 55.4 48.8002C55.7 48.3002 58 48.3003 58.6 48.6003Z" fill="white"/>
<path d="M57.8 56.4999C57.4 57.1999 57 57.9999 56.5 58.6999C56.4 58.7999 56.1 58.8999 56 58.7999C55.8 58.6999 55.7 58.3999 55.7 58.1999C56 57.4999 56.4 56.7999 56.8 56.0999C56.9 55.9999 57.2 55.8999 57.4 55.9999C57.6 55.9999 57.7 56.2999 57.8 56.4999Z" fill="white"/>
<path d="M16.9 49.9C16.2 48.8 16.7 47.2 18.2 46.5C17.9 47.8 17.6001 48.9 17.3001 50C17.2001 49.9 17.1 49.9 16.9 49.9Z" fill="white"/>
<path d="M34 43.3999C35.2 43.6999 36.3 43.9999 37.8 44.3999C36.3 45.2999 34.6 44.7999 34 43.3999Z" fill="white"/>
<path d="M39.6 33.5001C38.3 33.5001 37 33.5001 35.7 33.5001C36.3 32.6001 38.5 32.5001 39.6 33.5001Z" fill="white"/>
<path d="M41.7 36.0002C40.5 36.5002 39.1 36.4002 38.3 35.7002C39.1 35.1002 40.8 35.2002 41.7 36.0002Z" fill="white"/>
<path d="M14.2 52.3999C14.8 53.5999 14.6001 55.1999 13.8001 55.9999C13.2001 55.1999 13.4 53.3999 14.2 52.3999Z" fill="white"/>
<path d="M55.2 43.7001C54.1 43.8001 53 43.8001 51.9 43.9001C52.5 42.9001 54.2 42.8001 55.1 43.4001C55.1 43.5001 55.1 43.6001 55.2 43.7001Z" fill="white"/>
<path d="M50.3 34.9001C49 35.7001 48 35.6001 47.1 34.7001C48.2 34.1001 49.2 34.4001 50.3 34.9001Z" fill="white"/>
<path d="M32.1 46.6998C31.1 46.3998 30.1 46.0998 29 45.7998C30 44.9998 31.4 45.3998 32.2 46.2998C32.2 46.3998 32.1 46.4998 32.1 46.6998Z" fill="white"/>
<path d="M79.4 38.0999C78.7 38.6999 78.2 39.1999 77.6 39.6999L77.2 39.2999C77.7 38.6999 78.2 37.9999 78.6 37.3999C78.8 37.5999 79 37.6999 79.4 38.0999Z" fill="white"/>
<path d="M53.4 40.1001C54.4 40.1001 55.5 40.1001 56.7 40.1001C55.9 41.1001 54.9 41.1001 53.4 40.1001Z" fill="white"/>
<path d="M62.5 44.8999C61.6 45.0999 60.6 45.3999 59.7 45.5999C60.2 44.2999 61.3 43.9999 62.4 44.3999C62.4 44.5999 62.4 44.6999 62.5 44.8999Z" fill="white"/>
<path d="M25.8 34.9999C27.1 34.7999 28.4 34.5999 29.8 34.3999C29.8 34.5999 29.8 34.7999 29.9 34.8999C28.6 35.0999 27.3 35.2999 25.9 35.4999C25.9 35.3999 25.9 35.1999 25.8 34.9999Z" fill="white"/>
<path d="M4.10002 43.3998C3.00002 42.4998 3.00002 41.1998 4.10002 40.2998C4.10002 41.3998 4.10002 42.2998 4.10002 43.3998Z" fill="white"/>
<path d="M53.9 38.3999C53 38.2999 52.1 38.1999 51.2 38.0999C51.2 37.8999 51.2 37.6999 51.3 37.3999C52.2 37.4999 53.1 37.4999 54 37.5999C53.9 37.8999 53.9 38.1999 53.9 38.3999Z" fill="white"/>
<path d="M23.4 41.9002C22.6 42.3002 21.8 42.7002 20.9 43.2002C21.1 41.9002 22 41.4002 23.3 41.6002C23.3 41.7002 23.3 41.8002 23.4 41.9002Z" fill="white"/>
<path d="M14.1999 45C13.9999 45.9 13.8999 46.7 13.6999 47.6C12.6999 47.1 12.8999 45.9 14.1999 45Z" fill="white"/>
<path d="M63.3 46.6002C64.4 46.2002 65.2 46.0002 66 45.7002C65.5 46.9002 64.5 47.3002 63.3 46.6002Z" fill="white"/>
<path d="M43.7 38.3999C44.5 38.5999 45.4 38.7999 46.2 38.8999C46.2 38.9999 46.1 39.1999 46.1 39.2999C45.2 39.5999 44.3 39.4999 43.6 38.7999C43.6 38.6999 43.7 38.5999 43.7 38.3999Z" fill="white"/>
<path d="M60.1 53.1002C60.2 52.1002 60.9 51.6002 61.7 51.2002C61.8 51.3002 61.9 51.4002 62.1 51.5002C61.6 52.1002 61.1 52.8002 60.5 53.4002C60.4 53.3002 60.2 53.2002 60.1 53.1002Z" fill="white"/>
<path d="M49.6 49.1002C48.8 49.1002 48 49.1002 47.2 49.1002C47.2 49.0002 47.2 48.8002 47.2 48.7002C48 48.7002 48.8 48.7002 49.6 48.7002C49.6 48.9002 49.6 49.0002 49.6 49.1002Z" fill="white"/>
<path d="M57 54C56.5 53.9 55.9 53.8 55.4 53.6C55.3 53.6 55.4 53.2 55.4 53C56 53.1 56.5 53.2 57.1 53.3C57.1 53.5 57 53.8 57 54Z" fill="white"/>
<path d="M5 45.3999C5.7 45.5999 6.49995 45.6999 7.19995 45.8999C7.19995 46.0999 7.09998 46.2999 7.09998 46.4999C6.29998 46.3999 5.60005 46.1999 4.80005 46.0999C4.90005 45.7999 4.9 45.5999 5 45.3999Z" fill="white"/>
<path d="M63.2 42.4002C62.5 42.5002 61.9 42.7002 61.2 42.8002C61.2 42.6002 61.1 42.4002 61.1 42.2002C61.8 42.0002 62.4 41.8002 63.1 41.7002C63.1 41.9002 63.1 42.1002 63.2 42.4002Z" fill="white"/>
<path d="M43 52.2002C42.2 52.6002 41.5 52.3002 41 51.6002C41 51.5002 41.1 51.4002 41.1 51.2002C41.8 51.4002 42.4 51.6002 43.1 51.8002C43.1 52.0002 43 52.1002 43 52.2002Z" fill="white"/>
<path d="M67.4 42.7999C68 42.6999 68.7 42.4999 69.3 42.3999C69.3 42.5999 69.4 42.7999 69.4 42.8999C68.8 43.0999 68.1 43.1999 67.5 43.3999C67.5 43.1999 67.4 42.9999 67.4 42.7999Z" fill="white"/>
<path d="M42.3 41.6001C43 41.8001 43.6 42.0001 44.3 42.2001C44.3 42.4001 44.2 42.5001 44.2 42.7001C43.5 42.5001 42.9 42.4001 42.2 42.2001C42.2 42.0001 42.2 41.8001 42.3 41.6001Z" fill="white"/>
<path d="M33.6 37.8002C32.8 37.9002 31.9 37.9002 31.1 38.0002C31.1 37.9002 31.1 37.7002 31 37.6002C31.8 37.5002 32.6 37.3002 33.5 37.2002C33.5 37.4002 33.6 37.6002 33.6 37.8002Z" fill="white"/>
<path d="M21.7 39.0002C22.5 38.7002 23.2 38.5002 24 38.2002C24.1 38.4002 24.1 38.5002 24.2 38.7002C23.4 39.0002 22.7 39.3002 21.9 39.6002C21.8 39.3002 21.7 39.2002 21.7 39.0002Z" fill="white"/>
<path d="M21.3 50.1002C21.6 49.5002 22 48.8002 22.3 48.2002C22.5 48.3002 22.6 48.3002 22.8 48.4002C22.5 49.1002 22.2 49.7002 21.9 50.4002C21.6 50.3002 21.4 50.2002 21.3 50.1002Z" fill="white"/>
<path d="M67 40.6999C67.4 40.2999 67.9 39.7999 68.3 39.3999C68.5 39.5999 68.7 39.6999 68.8 39.8999C68.4 40.3999 68 40.7999 67.6 41.2999C67.4 41.0999 67.2 40.8999 67 40.6999Z" fill="white"/>
<path d="M11.8 51.3999C11.7 52.1999 11.6 53.0999 11.5 53.8999C11.4 53.8999 11.3 53.8999 11.1 53.8999C11.2 53.0999 11.2 52.1999 11.3 51.3999C11.5 51.2999 11.6 51.3999 11.8 51.3999Z" fill="white"/>
<path d="M38.1 47.2002C38.7 47.4002 39.3 47.5002 39.9 47.7002C39.9 47.9002 39.8 48.1002 39.8 48.3002C39.2 48.2002 38.6 48.0002 38 47.9002C38 47.7002 38.1 47.4002 38.1 47.2002Z" fill="white"/>
<path d="M73.2 39.8999C72.8 40.2999 72.4 40.6999 72 41.0999C71.9 40.9999 71.7 40.7999 71.6 40.6999C72 40.2999 72.4 39.7999 72.8 39.3999C72.9 39.5999 73 39.6999 73.2 39.8999Z" fill="white"/>
<path d="M44 45.6001C44.6 45.6001 45.3 45.6001 45.9 45.6001C45.9 45.7001 45.9 45.8001 45.9 45.9001C45.3 45.9001 44.6 45.9001 44 45.9001C44 45.8001 44 45.7001 44 45.6001Z" fill="white"/>
<path d="M17.3 38C17.8 37.7 18.3 37.4 18.8 37C18.9 37.1 19 37.3 19.1 37.4C18.6 37.7 18.1 38.1 17.6 38.4C17.6 38.3 17.5 38.1 17.3 38Z" fill="white"/>
<path d="M63.2 39.7999C63.8 39.6999 64.3 39.5999 64.9 39.3999C64.9 39.5999 65 39.7999 65 39.9999C64.4 40.0999 63.9 40.1999 63.3 40.2999C63.3 40.1999 63.3 39.9999 63.2 39.7999Z" fill="white"/>
<path d="M40.1 39.1001C39.5 39.1001 38.9 39.0001 38.3 39.0001C38.3 38.9001 38.3 38.7001 38.3 38.6001C38.9 38.6001 39.5 38.6001 40.1 38.6001C40.1 38.8001 40.1 39.0001 40.1 39.1001Z" fill="white"/>
<path d="M54.4 46.2001C53.8 46.2001 53.2 46.3001 52.6 46.3001C52.6 46.1001 52.6 45.9001 52.5 45.8001C53.1 45.7001 53.7 45.7001 54.2 45.6001C54.3 45.8001 54.4 46.0001 54.4 46.2001Z" fill="white"/>
<path d="M122.9 17C121.6 16.2 122.1 11.4 123.6 10.5C123.4 12.6 123.1 14.8 122.9 17Z" fill="white"/>
<path d="M124.5 19.0998C124.7 17.3998 124.9 15.6998 125.1 13.7998C126 14.9998 125.8 17.9998 124.9 19.0998C124.7 19.0998 124.6 19.0998 124.5 19.0998Z" fill="white"/>
</g>
</svg>
