<svg width="53" height="66" viewBox="0 0 53 66" fill="none" xmlns="http://www.w3.org/2000/svg">
<g opacity="0.7">
<path d="M22.9 21C21.8 22.4 20.6 23.3 18.8 23.4C18 23.4 17.2 23.7 16.4 23.6C14.9 23.4 13.4 23.1 12.3 22C11.7 21.5 11.4 20.8 11.4 20C11.4 19 11.4 17.9 11.5 16.9C11.7 15.3 12.8999 14.5 14.1999 13.9C15.0999 13.5 16.1 13 17 13C18.2 13 19.5 13.4 20.6 13.8C21.3 14.1 21.6 14.9 21.9 15.6C22 16 22.3 16.3 22.5 16.6C22.6 16.6 22.8 16.5 22.9 16.5C22.8 14.2 22.7 11.9 22.6 9.3C21.3 10.2 20.1 10 18.9 9.8C16.7 9.6 14.5 9.2 13.3 7.2C12.8 6.4 12.6 5.3 12.6 4.3C12.6 2.2 14.2 1.5 15.8 0.7C17 0.1 18.2 0 19.5 0C21.3 0 22.5 1 23.5 2.2C24 2.8 24.4 3.6 24.9 4.3C25 4.4 25 4.5 25 4.7C25.1 5.7 25.2 6.6 25.3 7.6C25.4 9 25.3999 9 26.6999 9.4C26.6999 9.5 26.6999 9.5 26.6999 9.6C26.1999 9.7 25.7 9.9 25.3 9.8C24.2 9.6 24.0999 8.7 24.1999 7.6C23.4999 8.2 23.2 8.5 23.4 9.4C23.7 10.8 23.7 12.2 23.9 13.6C24 14.7 24.0999 15.9 24.1999 17C24.1999 17.4 24 17.8 23.8 18.1C23.7 18.2 23.2 17.9 22.9 17.9C21.7 17.7 21.5 16.5 21 15.7C20.7 15.2 20.3 14.7 19.9 14.5C17.3 13.3 14.4 14.4 12.8 16.2C12.6 16.5 12.5 17 12.4 17.4C12.3 18.1 12.3 18.8 12.3 19.5C12.2 21.1 12.8 22 14.4 22.4C15.5 22.7 16.7 22.8 17.8 22.7C19 22.6 20.2 22.5 21.1 21.5C21.4 21.1 21.7 20.7 21.8 20.2C21.9 19.6 22.1 19.2 22.8 19.3C23.5 19.4 24 19.7 24 20.4C24.1 21.1 23.9 21.7 23.9 22.4C23.9 23.8 24 25.1 24.1 26.5C24.1 26.6 24.4 26.8 24.6 26.8C24.9 26.8 25.2 26.8 25.5 26.8C27.3 26.8 27.6 26.5 27 24.7C26.4 22.7 27 20.8 27.9 19.1C28.2 18.5 29.2 18.1 29.9 17.7C30.1 17.6 30.5 17.9 31 18C30.6 18.3 30.3999 18.5 30.1999 18.6C29.5999 18.8 29.7 19.1 30 19.5C31.4 21.3 33.3 21.4 34.9 20.5C35.9 20 36.9 19.4 37.8 18.6C39 17.5 39.5 16.4 38.3 14.9C37 13.4 35.5 12.5 33.5 12.5C31.7 12.5 30.1 13.7 29.6 15.6C30.1 15.5 30.5 15.4 30.9 15.3C30.9 15.4 31 15.4 31 15.5C30.8 15.7 30.7 15.9 30.5 16C29.6 16.4 28.7 16.9 27.8 17.2C27.3 17.4 26.8 17.3 26.8 16.5C26.8 16.1 26.6 15.6 26.4 15.2C25.8 13.9 26.2 12.7 27 11.7C27.7 10.7 28.6999 10 29.6999 9.2C29.8999 9 30.4 9 30.8 9C30.9 9.2 31 9.3 31.1 9.5C30.8 9.6 30.5 9.8 30.3 9.9C31.4 10.5 33.2 9.7 33.6 9C34.2 8 34.9 7 35.4 6C36.1 4.5 36.1 3.1 34.6 2.1C34 1.7 33.2 1.4 32.5 1.5C29.5 1.7 27.7999 3.2 27.6999 6.5C27.6999 7.5 28.1 7.8 28.9 7.2C29.4 6.9 29.7999 6.4 30.1999 6.1C30.3999 6 30.7 6 31 6C30.9 6.3 30.8999 6.7 30.6999 6.9C30.2999 7.3 29.6999 7.6 29.1999 7.9C28.6999 8.2 28.3 8.6 27.9 8.9C27.6 8.3 27.3 7.9 27 7.4C26.5 6.5 26.7 5.6 27 4.7C27.5 3 28.3 1.6 30.1 1C30.6 0.8 31.1 0.6 31.5 0.5C33.5 -0.1 35.1 0.9 36.4 2.2C37 2.8 37.2 3.8 37 4.7C36.8 5.8 36.3999 6.8 35.6999 7.6C35.3999 8 35.1 8.5 34.8 8.9C33.3 11.1 32.2 11 29.9 10.7C29.7 10.7 29.4 10.6 29.3 10.7C28.2 11.8 26.7999 12.9 27.1999 14.7C27.2999 15.1 27.4 15.5 27.5 15.8C27.6 16 27.8 16.2 27.9 16.1C28.1 16 28.3 15.9 28.4 15.7C28.6 15.2 28.7 14.7 28.9 14.3C30.1 11.7 33.2 10.6 35.8 11.7C37.4 12.4 38.6 13.5 39.5 14.9C40.4 16.3 39.8 17.8 38.8 18.7C37.6 19.9 36.1 20.8 34.5 21.5C32.7 22.2 30.8 21.6 29.8 20.1C29.6 19.8 29.3 19.5 29 19.2C28.8 19.6 28.7 19.9 28.5 20.3C28 21.2 27.7 22.1 27.9 23.2C28 24.1 28.1 24.9 28.3 25.8C28.4 26 28.8 26.4 29.1 26.4C31.4 26.3 33.7 26.2 36.1 26.1C36.8 26.1 37.4999 26.1 38.1999 26.1C38.6999 26.1 38.9 25.9 39.1 25.5C39.5 24.7 39.9999 23.9 40.6999 23.4C41.7999 22.6 43.9 23 45 23.9C45.2 24 45.3 24.2 45.5 24.2C47.2 24.9 47.6 26.3 47.9 28C48.3 29.7 47.7 31 46.5 32.2C46.3 32.4 46.1999 32.8 46.1999 33.1C46.2999 35.1 46.4 37.1 46.4 39C46.4 42.6 46.2 46.3 46.1 49.9C46.1 50.4 45.9 50.8 45.9 51.3C45.9 51.7 46.1 51.9 46.5 51.5C47.7 50.1 49.2 50.7 50.6 50.9C50.9 50.9 51.2 51.3 51.4 51.5C52.9 53.6 53.2 55.7 51.8 58C50.9 59.6 49.7 60.3 47.9 60.3C46.6 60.3 45.3 60.1 44.1 59.2C44.1 59.7 44.1 60 44 60.3C43.8 61.6 43.6 63 43.3 64.3C43.2 64.6 42.5999 65.1 42.1999 65.1C39.8999 65.2 37.6 65.2 35.3 65C33.7 64.9 33.5 64.9 33.4 63.2C33.3 61.6 33.2 59.9 33.1 58.3C33.1 58 32.9 57.6 32.8 57.6C32.3 57.5 31.8 57.6 31.3 57.7C31.2 57.7 31.1999 58.3 31.1999 58.6C31.2999 60.5 31.4 62.4 31.4 64.3C31.4 64.5 31 64.8 30.8 64.9C29.6 65.1 28.3 65 27.1 65.3C25.7 65.6 24.3 65.5 22.9 65.3C22 65.2 21.8 65.1 21.8 64.2C21.8 62.3 21.8 60.5 21.8 58.6C21.8 57.8 21.5 57.6 20.8 57.6C19.6 57.6 19.6 57.6 19.6 58.6C19.6 60.5 19.6999 62.4 19.6999 64.2C19.6999 65.3 19.5 65.5 18.4 65.5C16.1 65.5 13.8 65.5 11.6 65.5C11.1 65.5 10.5 65.4 9.99998 65.1C9.79998 65 9.59998 64.5 9.49998 64.2C9.39998 63.4 9.49998 62.6 9.49998 61.8C9.49998 61.5 9.49998 61.2 9.49998 60.9C8.79998 61.1 8.19996 61.3 7.59996 61.6C6.19996 62.2 4.89993 61.6 3.69993 61.1C1.69993 60.2 0.800007 57.8 1.40001 55.7C1.60001 54.9 2.30003 54.2 2.80003 53.6C3.10003 53.2 3.19996 53 3.09996 52.5C3.09996 51.1 3.19993 49.7 3.19993 48.3C3.19993 46.8 3.30003 45.2 3.30003 43.7C3.30003 42.6 3.30003 41.5 3.30003 40.4C3.40003 38.8 3.49996 37.1 3.59996 35.5C3.59996 34.9 3.60001 34.5 2.90001 34.2C1.80001 33.7 1.30001 32.7 0.900007 31.6C0.400007 30.3 0.599983 29 0.999983 27.8C1.59998 25.7 4.59996 24.3 6.59996 25.1C7.49996 25.5 8.49996 25.7 9.09996 26.7C9.19996 26.8 9.49993 26.9 9.69993 26.9C13.2999 26.9 16.9 26.9 20.4 26.8C21 26.8 21.5999 26.7 22.1999 26.5C22.2999 26.5 22.5 26.3 22.5 26.2C22.9 24.6 22.9 22.8 22.9 21ZM7.99998 43.1C7.99998 45.7 7.99998 48.3 7.99998 51C7.99998 51.7 8.30001 52 8.90001 52.2C9.30001 52.3 9.69998 52.6 9.99998 52.8C10.7 53.3 11.2 54 12 54.2C13 54.5 14.0999 54.6 15.1999 54.6C16.8999 54.6 18.4999 54.4 20.1999 54.4C24.4999 54.3 28.7 54.1 33 54.1C36 54.1 38.9 54.2 41.9 54.3C42.5 54.3 42.6999 54.1 42.6999 53.5C42.6999 51.7 42.6999 50 42.6999 48.2C42.5999 43.4 42.5 38.5 42.4 33.7C42.4 33.4 42.1 33 41.8 32.8C41.2 32.3 40.5 31.8 39.8 31.4C39.4 31.2 39 30.9 38.6 30.9C36 31 33.5 31.1 30.9 31.2C30.8 31.2 30.6 31.2 30.5 31.2C29.1 31.3 27.7 31.4 26.3 31.4C25.7 31.4 25.2 31.2 24.6 31.2C24 31.2 23.4 31.4 22.9 31.4C21.7 31.4 20.6 31.2 19.4 31.2C17 31.2 14.5999 31.2 12.1999 31.2C11.3999 31.2 10.5 31 10.6 32.3C10.6 32.4 10.5 32.4 10.5 32.5C9.89998 33.1 9.39993 33.7 8.69993 34.3C8.29993 34.6 8.09996 35 8.09996 35.5C7.99996 37.9 7.99998 40.5 7.99998 43.1ZM12.1 57C12.3 57 12.5 57.1 12.6 57.1C14.4 57 16.1 56.9 17.9 56.9C19.6 56.9 21.3 56.9 23.1 56.9C26 56.9 28.7999 56.9 31.6999 56.9C35.3999 56.8 39.1 56.7 42.8 56.6C43.6 56.6 44.3 56.5 45 56.3C45.8 56 46.3 56.2 46.8 56.8C46.9 56.9 47.4 57 47.5 56.8C47.9 56.5 48.1 56 48.4 55.6C48.3 55.5 48.2999 55.4 48.1999 55.4C47.8999 55.5 47.6 55.5 47.3 55.6C46.7 55.9 46.3 55.8 45.8 55.4C45 54.7 44.7 53.9 44.8 52.9C44.9 48.9 45 44.9 45.1 40.9C45.2 38.5 45.2 36.1 45.3 33.8C45.3 33.6 45 33.2 44.8 33.2C44.2 33.1 43.6 33.2 43.1 33.2C43 33.2 42.7 33.5 42.8 33.7C42.9 35.1 43.2 36.5 43.3 37.8C43.4 39.9 43.6 42.1 43.5 44.2C43.5 47.1 43.4 50.1 43.3 53C43.3 53.4 43.4 53.9 43.5 54.3C43.7 55 43.4999 55.4 42.6999 55.3C41.4999 55.2 40.3 55.1 39.1 55.1C35.5 55.1 31.9 55.3 28.3 55.3C25.4 55.3 22.5 55.3 19.6 55.4C18.6 55.4 17.6 55.6 16.6 55.6C15.1 55.6 13.6 55.4 12 55.3C12.1 55.7 12.1 56.3 12.1 57ZM13.5 4.7C13.7 6.9 14.4 8.4 17 8.7C18.1 8.8 19.0999 9.1 20.1999 9.2C20.3999 9.2 20.7 9.2 21 9.1C22.1 8.6 22.7999 7.8 23.1999 6.7C23.1999 6.5 23.3 6.3 23.4 6.2C24 5.8 23.9 5.2 23.8 4.7C23.3 2.7 21.2999 1.2 19.1999 1.2C18.1999 1.2 17.3 1.4 16.3 1.5C14.8 1.9 13.6 3.3 13.5 4.7ZM10.3 27.9C10.4 28.4 10.5 28.7 10.6 29C10.8 29.7 11.1 30 12 30C14.5 29.9 17.1 30 19.6 30C22.8 30 25.9 30.1 29.1 30C31.8 30 34.5 29.8 37.3 29.7C38.7 29.6 38.6999 29.7 38.6999 28.2C38.6999 27.5 38.5 27.2 37.8 27.2C35.7 27.3 33.6 27.4 31.5 27.5C29.7 27.6 27.9 27.7 26.1 27.8C21.8 27.9 17.4999 28 13.1999 28.1C12.1999 28.2 11.3 28 10.3 27.9ZM6.80003 51.7C6.80003 51.2 6.80003 50.7 6.80003 50.2C6.80003 48.5 6.80003 46.8 6.80003 45.1C6.80003 41.9 6.90001 38.7 6.90001 35.5C6.90001 35.3 6.79993 34.9 6.69993 34.9C6.09993 34.8 5.50001 34.8 4.90001 34.9C4.80001 34.9 4.69993 35.5 4.69993 35.8C4.69993 40.4 4.59996 45 4.59996 49.5C4.59996 50.2 4.40001 50.8 4.40001 51.5C4.40001 52.1 4.60003 52.4 5.30003 52.1C5.70003 52 6.20003 51.9 6.80003 51.7ZM39 64.4C40 64.4 40.9 64.4 41.9 64.4C42.4 64.4 42.6999 64.2 42.6999 63.7C42.7999 62.2 43 60.6 43 59.1C43 57.3 43.3 57.5 41.3 57.5C40.8 57.5 40.6 57.7 40.6 58.2C40.6 58.9 40.6 59.6 40.6 60.3C40.6 61.4 40.1 61.9 39 62C38.6 62 38.0999 62.1 37.6999 62.1C36.5999 62.1 36.1 61.7 36 60.5C36 59.8 36 59.2 36 58.5C36 57.9 35.7999 57.7 35.1999 57.7C34.5999 57.7 34.4 57.8 34.4 58.5C34.5 60 34.5999 61.4 34.6999 62.9C34.7999 64 35.0999 64.3 36.1999 64.4C37.0999 64.4 38 64.4 39 64.4ZM12.3 57.8C12.2 57.8 12.2 57.8 12.1 57.8C12 57.9 11.9 58 11.8 58.1C11.5 58.6 11.3 59.2 11.1 59.7C11 59.9 10.9 60.2 10.9 60.4C10.9 61.6 10.9 62.7 10.9 63.9C10.9 64.5 11.0999 64.7 11.6999 64.7C13.7999 64.7 16 64.7 18.1 64.7C18.7 64.7 19 64.5 18.9 63.9C18.8 62 18.6999 60.2 18.6999 58.3C18.6999 58.1 18.6 57.9 18.5 57.8C17.8 57.3 16.8 57.9 16.8 58.7C16.8 59.6 16.7999 60.5 16.6999 61.4C16.6999 62.1 16.2 62.6 15.5 62.6C14.6 62.6 13.8 62.6 12.9 62.6C12.3 62.6 12 62.3 12.1 61.7C12.2 60.7 12.3 59.8 12.4 58.8C12.4 58.5 12.3 58.2 12.3 57.8ZM48.6999 51.9C47.3999 51.5 46.8999 52.7 46.1999 53.5C45.9999 53.7 46.2 54.3 46.4 54.6C46.5 54.7 46.9999 54.7 47.1999 54.6C47.3999 54.6 47.6 54.4 47.9 54.3C48.4 54.2 48.9 54.3 49.1 54.8C49.5 55.5 48.9999 56.9 48.1999 57.5C47.6999 57.9 46.9 57.7 46.1 57.3C45.7 57.1 45.1 57.3 44.6 57.3C44.6 57.7 44.5999 58.1 44.6999 58.5C44.7999 58.7 44.9999 59 45.1999 59.1C46.5999 59.7 48 59.9 49.4 59.3C51 58.7 52.1 56.2 51.6 54.5C51 52.5 50.9999 51.8 48.6999 51.9ZM7.30003 53C6.00003 52.8 4.99998 53.5 3.99998 54.3C1.89998 55.9 2.50003 60 4.80003 60.5C5.70003 60.7 6.59998 60.8 7.49998 60.8C10.1 60.7 11.7 57.4 11 55.2C10.5 53.8 9.20003 53 7.30003 53ZM5.80003 34C6.30003 33.8 6.89998 33.4 7.49998 33.2C8.29998 33 8.99993 32.5 9.19993 31.9C9.39993 31 9.39993 29.9 9.19993 29C9.09993 28.5 8.70001 28 8.40001 27.5C7.40001 25.9 4.69998 24.9 2.99998 27.1C1.79998 28.7 1.79998 30.3 2.49998 32.1C2.69998 32.6 3.09996 33.3 3.59996 33.6C4.19996 33.8 4.90003 33.8 5.80003 34ZM43.3 31.9C44.9 32.1 46.4999 31.2 46.6999 30.1C46.9999 28.6 46.7 27.2 46 25.9C45.4 24.9 44.5 24.3 43.4 24.2C42 24 40.9 23.9 40.1 25.2C39.9 25.6 39.7999 25.8 40.1999 26.1C40.5999 26.4 40.6 26.7 40.1 27C39.9 27.1 39.6 27.3 39.6 27.5C39.5 28.4 39.4 29.3 39.9 30.1C40.8 31.3 41.8 32.1 43.3 31.9ZM29.1 60C29.1 60.5 29 61 29.1 61.4C29.2 62.1 28.7999 62.5 28.1999 62.5C27.2999 62.6 26.5 62.6 25.6 62.6C24.8 62.6 24.5 62.2 24.5 61.5C24.5 60.5 24.4 59.5 24.4 58.5C24.4 58 24.2999 57.7 23.6999 57.7C23.0999 57.7 23.1999 58.1 23.1999 58.5C23.1999 60.1 23.2999 61.7 23.1999 63.3C23.1999 64 23.3999 64.4 24.1999 64.3C26.2999 64.1 28.3 64 30.4 63.7C30.6 63.7 30.8 63.3 30.8 63C30.7 62 30.5 61.1 30.5 60.1C30.4 59.5 30.5 58.9 30.5 58.3C30.5 57.8 30.5 57.5 29.8 57.5C29.2 57.5 29.1999 57.9 29.1999 58.3C29.0999 59 29.1 59.5 29.1 60ZM28.1 59.6C28.1 57.3 28.2999 57.8 26.1999 57.7C26.0999 57.7 26 57.7 25.9 57.7C25.4 57.7 25.2 57.9 25.3 58.4C25.4 59.4 25.5 60.3 25.6 61.3C25.6 61.5 25.9 61.7 26.1 61.7C27.8 62 28.1 61.7 28.1 60C28.2 59.9 28.1 59.8 28.1 59.6ZM13.1 60C13.1 60.3 13.1 60.6 13.1 61C13 61.8 13.6 61.9 14.1 62C14.9 62.1 15.6999 61.6 15.6999 61.1C15.6999 60.4 15.7 59.7 15.8 59C16 58 16 58 15 58C12.7 58 13.1 57.7 13.1 60ZM37.1 59.4C37.1 61.3 36.8999 61.1 38.6999 61.1C39.2999 61.1 39.6 60.8 39.6 60.2C39.6 59.6 39.6 58.9 39.6 58.3C39.6 58.1 39.3 57.8 39.1 57.7C37.3 57.5 37.1 57.7 37.1 59.4Z" fill="white"/>
<path d="M18.5 50.7999C17.4 50.8999 16.3 51.0999 15.2 51.1999C14.4 51.2999 13.9 50.8999 13.9 49.8999C13.8 47.5999 13.8 45.1999 13.5 42.8999C13.3 41.0999 13.1 39.3999 13.1 37.6999C13.1 36.0999 14 35.2999 15.5 35.2999C19 35.1999 22.6 35.0999 26.1 34.8999C28.7 34.7999 31.2 34.4999 33.7 34.3999C34.2 34.3999 34.7 34.4999 35.1 34.6999C35.4 34.7999 35.6 35.1999 35.7 35.4999C35.9 36.9999 35.9 38.5999 36.1 40.0999C36.3 41.7999 36.6 43.3999 36.8 44.9999C36.9 46.4999 36.9 48.0999 36.8 49.5999C36.8 50.2999 36 50.2999 35.4 50.2999C33.6 50.3999 31.7 50.2999 29.9 50.3999C27.2 50.4999 24.6 50.5999 21.9 50.6999C20.8 50.7999 19.7 50.8999 18.5 51.0999C18.5 50.8999 18.5 50.7999 18.5 50.7999ZM31.7 49.2999C32.3 49.2999 32.9 49.2999 33.5 49.2999C35.7 49.2999 35.7 49.2999 35.6 47.0999C35.4 43.8999 35.2 40.6999 34.9 37.4999C34.9 36.9999 34.7 36.3999 34.7 35.8999C34.6 35.3999 34.3 35.1999 33.8 35.1999C32.3 35.2999 30.7 34.9999 29.2 35.4999C28.1 35.8999 26.9 35.7999 25.8 35.8999C22.3 36.0999 18.9 36.1999 15.4 36.2999C14.3 36.2999 14.1 36.3999 14.2 37.4999C14.3 39.9999 14.4 42.5999 14.5 45.0999C14.6 46.6999 14.7 48.1999 14.8 49.7999C14.8 49.9999 15.2 50.3999 15.4 50.2999C17.9 50.0999 20.4 49.7999 23 49.5999C25.9 49.4999 28.8 49.3999 31.7 49.2999Z" fill="white"/>
<path d="M9.30003 57.2999C9.50003 58.7999 8.09993 59.8999 6.69993 59.7999C4.79993 59.5999 3.79993 58.6999 3.69993 56.8999C3.59993 55.4999 5.09998 54.0999 6.49998 54.2999C7.89998 54.4999 9.30003 55.1999 9.30003 57.2999ZM6.59996 58.7999C7.89996 58.7999 8.20003 58.3999 8.30003 57.1999C8.40003 55.8999 7.39993 55.2999 6.19993 55.1999C5.19993 55.0999 4.59996 55.7999 4.59996 56.8999C4.59996 58.2999 5.09996 58.7999 6.59996 58.7999Z" fill="white"/>
<path d="M5.90008 33.3999C4.40008 33.2999 3.3 31.7999 3.7 30.2999C3.8 29.8999 3.90003 29.3999 4.10003 28.9999C4.90003 27.5999 6.50005 27.4999 7.50005 28.7999C8.60005 30.0999 8.70005 31.9999 7.00005 32.9999C6.70005 33.0999 6.30008 33.1999 5.90008 33.3999ZM4.60003 30.4999C4.60003 30.8999 4.6 31.1999 4.7 31.3999C4.8 32.1999 6.00003 32.7999 6.60003 32.1999C7.20003 31.6999 7.40003 30.9999 7.10003 30.2999C6.90003 29.6999 6.5 28.8999 5.7 28.8999C5.5 28.8999 5.10008 29.0999 4.90008 29.2999C4.70008 29.7999 4.60003 30.2999 4.60003 30.4999Z" fill="white"/>
<path d="M43.0999 25.3999C44.2999 25.3999 45.6999 26.7999 45.6999 27.7999C45.6999 29.1999 44.7 30.2999 43.4 30.2999C42 30.2999 40.8 29.0999 40.9 27.6999C41 26.3999 41.8999 25.3999 43.0999 25.3999ZM44.5999 27.8999C44.5999 27.0999 43.8999 26.2999 43.0999 26.3999C42.6999 26.3999 42 27.1999 42 27.7999C42 28.2999 42.9999 29.2999 43.6999 29.1999C44.2999 29.1999 44.5999 28.7999 44.5999 27.8999Z" fill="white"/>
</g>
</svg>
